<?xml version="1.0" encoding="UTF-8"?>
<!DOCTYPE svg PUBLIC "-//W3C//DTD SVG 1.1//EN" "http://www.w3.org/Graphics/SVG/1.1/DTD/svg11.dtd">
<svg version="1.2" width="210mm" height="297mm" viewBox="0 0 21000 29700" preserveAspectRatio="xMidYMid" fill-rule="evenodd" stroke-width="28.222" stroke-linejoin="round" xmlns="http://www.w3.org/2000/svg" xmlns:ooo="http://xml.openoffice.org/svg/export" xmlns:xlink="http://www.w3.org/1999/xlink" xmlns:presentation="http://sun.com/xmlns/staroffice/presentation" xmlns:smil="http://www.w3.org/2001/SMIL20/" xmlns:anim="urn:oasis:names:tc:opendocument:xmlns:animation:1.0" xml:space="preserve">
 <defs class="ClipPathGroup">
  <clipPath id="presentation_clip_path" clipPathUnits="userSpaceOnUse">
   <rect x="0" y="0" width="21000" height="29700"/>
  </clipPath>
  <clipPath id="presentation_clip_path_shrink" clipPathUnits="userSpaceOnUse">
   <rect x="21" y="29" width="20958" height="29641"/>
  </clipPath>
 </defs>
 <defs class="TextShapeIndex">
  <g ooo:slide="id1" ooo:id-list="id3 id4 id5 id6 id7 id8 id9 id10 id11 id12 id13 id14 id15 id16 id17 id18 id19 id20 id21 id22"/>
 </defs>
 <defs class="EmbeddedBulletChars">
  <g id="bullet-char-template-57356" transform="scale(0.00048828125,-0.00048828125)">
   <path d="M 580,1141 L 1163,571 580,0 -4,571 580,1141 Z"/>
  </g>
  <g id="bullet-char-template-57354" transform="scale(0.00048828125,-0.00048828125)">
   <path d="M 8,1128 L 1137,1128 1137,0 8,0 8,1128 Z"/>
  </g>
  <g id="bullet-char-template-10146" transform="scale(0.00048828125,-0.00048828125)">
   <path d="M 174,0 L 602,739 174,1481 1456,739 174,0 Z M 1358,739 L 309,1346 659,739 1358,739 Z"/>
  </g>
  <g id="bullet-char-template-10132" transform="scale(0.00048828125,-0.00048828125)">
   <path d="M 2015,739 L 1276,0 717,0 1260,543 174,543 174,936 1260,936 717,1481 1274,1481 2015,739 Z"/>
  </g>
  <g id="bullet-char-template-10007" transform="scale(0.00048828125,-0.00048828125)">
   <path d="M 0,-2 C -7,14 -16,27 -25,37 L 356,567 C 262,823 215,952 215,954 215,979 228,992 255,992 264,992 276,990 289,987 310,991 331,999 354,1012 L 381,999 492,748 772,1049 836,1024 860,1049 C 881,1039 901,1025 922,1006 886,937 835,863 770,784 769,783 710,716 594,584 L 774,223 C 774,196 753,168 711,139 L 727,119 C 717,90 699,76 672,76 641,76 570,178 457,381 L 164,-76 C 142,-110 111,-127 72,-127 30,-127 9,-110 8,-76 1,-67 -2,-52 -2,-32 -2,-23 -1,-13 0,-2 Z"/>
  </g>
  <g id="bullet-char-template-10004" transform="scale(0.00048828125,-0.00048828125)">
   <path d="M 285,-33 C 182,-33 111,30 74,156 52,228 41,333 41,471 41,549 55,616 82,672 116,743 169,778 240,778 293,778 328,747 346,684 L 369,508 C 377,444 397,411 428,410 L 1163,1116 C 1174,1127 1196,1133 1229,1133 1271,1133 1292,1118 1292,1087 L 1292,965 C 1292,929 1282,901 1262,881 L 442,47 C 390,-6 338,-33 285,-33 Z"/>
  </g>
  <g id="bullet-char-template-9679" transform="scale(0.00048828125,-0.00048828125)">
   <path d="M 813,0 C 632,0 489,54 383,161 276,268 223,411 223,592 223,773 276,916 383,1023 489,1130 632,1184 813,1184 992,1184 1136,1130 1245,1023 1353,916 1407,772 1407,592 1407,412 1353,268 1245,161 1136,54 992,0 813,0 Z"/>
  </g>
  <g id="bullet-char-template-8226" transform="scale(0.00048828125,-0.00048828125)">
   <path d="M 346,457 C 273,457 209,483 155,535 101,586 74,649 74,723 74,796 101,859 155,911 209,963 273,989 346,989 419,989 480,963 531,910 582,859 608,796 608,723 608,648 583,586 532,535 482,483 420,457 346,457 Z"/>
  </g>
  <g id="bullet-char-template-8211" transform="scale(0.00048828125,-0.00048828125)">
   <path d="M -4,459 L 1135,459 1135,606 -4,606 -4,459 Z"/>
  </g>
  <g id="bullet-char-template-61548" transform="scale(0.00048828125,-0.00048828125)">
   <path d="M 173,740 C 173,903 231,1043 346,1159 462,1274 601,1332 765,1332 928,1332 1067,1274 1183,1159 1299,1043 1357,903 1357,740 1357,577 1299,437 1183,322 1067,206 928,148 765,148 601,148 462,206 346,322 231,437 173,577 173,740 Z"/>
  </g>
 </defs>
 <g>
  <g id="id2" class="Master_Slide">
   <g id="bg-id2" class="Background"/>
   <g id="bo-id2" class="BackgroundObjects"/>
  </g>
 </g>
 <g class="SlideGroup">
  <g>
   <g id="container-id1">
    <g id="id1" class="Slide" clip-path="url(#presentation_clip_path)">
     <g class="Page">
      <g class="Group">
       <g class="com.sun.star.drawing.ClosedBezierShape">
        <g id="id3">
         <rect class="BoundingBox" stroke="none" fill="none" x="1477" y="16119" width="18077" height="8202"/>
         <path fill="rgb(231,91,120)" stroke="none" d="M 9923,23648 L 10378,23648 C 10391,23641 10778,23625 10828,23622 10842,23621 10857,23620 10872,23619 11010,23841 10960,23910 11222,24117 11839,24604 12270,24098 11820,23799 11624,23669 11366,23645 11127,23599 11130,23598 11136,23595 11146,23592 11182,23588 11219,23584 11256,23579 11602,23537 11939,23474 12270,23393 12474,23626 13028,24241 13306,24002 13495,23644 12900,23421 12574,23313 12863,23231 13147,23135 13429,23025 13569,23208 13777,23321 13989,23372 14972,23607 15030,22806 13806,22870 L 13820,22864 C 14127,22730 14427,22572 14714,22402 L 14847,22509 C 14899,22540 15038,22592 15125,22615 15885,22816 16079,22180 15547,22085 15431,22065 15312,22074 15192,22096 15280,22035 15367,21974 15453,21911 15476,21894 15496,21882 15519,21863 15543,21844 15557,21832 15584,21814 L 15879,21571 C 16202,21719 16844,21980 16991,21678 17018,21322 16526,21305 16174,21328 16320,21213 16681,20822 16809,20694 16820,20683 16827,20674 16833,20666 17024,20761 17242,20780 17443,20746 18429,20584 18188,19837 17113,20338 L 17135,20313 C 17307,20113 17511,19829 17688,19557 L 17899,19618 C 17959,19627 18106,19622 18195,19609 18974,19500 18906,18839 18379,18958 18207,18997 18053,19102 17904,19211 17935,19159 17964,19108 17989,19062 L 18351,18350 C 18615,18361 19532,18409 19553,18022 19426,17644 18773,17926 18442,18153 L 18456,18122 C 18505,18010 18545,17902 18590,17787 18628,17691 18674,17569 18716,17446 18966,17037 19424,16286 18963,16126 18756,16056 18628,16648 18591,16820 18572,16906 18560,17042 18547,17181 18489,17380 18418,17581 18339,17774 18315,17832 18281,17915 18242,18008 18204,17732 18136,17138 17854,16866 17633,16652 17397,16963 17577,17540 17698,17931 17900,18063 18089,18361 18049,18449 18011,18525 17981,18576 17952,18625 17933,18675 17902,18727 17813,18874 17742,19026 17650,19165 17631,19195 17611,19226 17592,19258 17573,19102 17613,18934 17470,18573 17377,18337 17186,17991 16933,18088 16480,18264 17197,19195 17476,19443 17445,19492 17413,19540 17380,19584 17344,19632 17315,19680 17282,19725 L 17085,19989 C 17024,20076 16940,20157 16880,20243 16857,20276 16824,20316 16785,20360 16763,20123 16792,19955 16695,19644 16630,19432 16472,18963 16207,19035 15889,19121 15969,19525 16076,19741 16236,20065 16414,20256 16664,20492 16601,20559 16541,20623 16502,20671 16398,20799 16215,20949 16096,21069 L 15913,21232 C 15891,21249 15874,21267 15853,21286 L 15836,21301 C 15832,21285 15814,21271 15763,21265 15793,21090 16054,20375 15873,19954 15752,19672 15414,19866 15356,20468 15314,20897 15466,21096 15520,21480 15327,21672 14932,21965 14691,22106 14724,21933 14847,21808 14857,21378 14863,21125 14820,20732 14550,20724 14048,20709 14383,21917 14540,22212 14503,22236 14462,22263 14416,22294 14125,22454 13837,22595 13546,22719 13615,22516 13697,22370 13727,22065 13749,21844 13786,21351 13513,21315 13186,21271 13104,21674 13119,21914 13140,22261 13224,22502 13354,22799 13029,22929 12697,23038 12348,23128 12452,22974 12966,22428 12968,21974 12970,21667 12582,21711 12289,22239 12086,22606 12136,22846 12045,23201 11970,23218 11894,23234 11817,23249 11594,23293 11367,23327 11138,23352 11230,23259 11346,23145 11470,22877 11576,22646 11693,22268 11448,22153 11043,21962 10861,22933 10845,23380 9552,23478 8206,23290 7027,22832 6911,22788 6803,22746 6694,22695 L 6379,22551 C 6104,22429 5614,22158 5350,21968 L 5078,21781 C 4803,21588 4420,21286 4186,21053 3978,20846 3635,20524 3459,20286 L 3302,20098 C 3233,20017 3172,19928 3101,19838 L 2911,19569 C 2877,19516 2848,19481 2814,19427 L 2551,19000 C 2236,18462 1921,17766 1748,17158 1739,17127 1733,17086 1707,17080 L 1477,17081 C 1526,17308 1631,17575 1713,17794 L 1920,18296 C 2039,18558 2173,18820 2314,19069 2431,19274 2550,19457 2674,19647 2805,19848 3062,20201 3226,20386 3244,20407 3262,20427 3280,20447 3322,20495 3345,20531 3389,20577 L 3556,20764 C 3615,20840 3941,21156 4024,21234 4049,21258 4062,21259 4088,21284 4129,21324 4163,21355 4207,21395 4267,21451 4400,21570 4460,21611 4484,21628 4504,21645 4529,21666 4552,21687 4560,21692 4593,21716 4771,21850 4947,21993 5135,22112 L 5562,22385 C 5961,22633 6377,22828 6816,23006 7265,23189 7772,23352 8253,23446 8381,23471 8515,23500 8646,23521 8782,23544 8918,23562 9053,23580 9197,23599 9338,23613 9483,23622 9531,23625 9912,23642 9923,23648 Z M 9923,23648 L 9923,23648 Z M 2573,17377 C 2448,17052 2547,17075 2306,17081 2330,17188 2378,17307 2415,17412 2520,17715 2654,18026 2787,18313 L 2896,18523 C 2910,18547 2916,18565 2931,18594 L 3242,19132 C 3299,19221 3354,19300 3411,19387 3521,19553 3669,19731 3773,19883 3902,20069 4443,20655 4583,20771 L 4806,20973 C 4922,21078 5151,21274 5278,21359 5440,21467 5589,21588 5777,21709 6601,22239 7500,22624 8477,22831 8719,22883 8948,22919 9206,22952 9446,22983 9754,23008 9996,23008 10232,23008 10441,23003 10640,22991 L 10642,22832 C 10268,22856 9877,22856 9532,22822 8944,22763 8352,22672 7798,22485 7309,22320 7062,22224 6622,22006 6073,21734 5706,21473 5234,21120 L 4948,20884 C 4933,20872 4914,20853 4897,20838 4802,20751 4460,20435 4419,20378 4400,20352 4401,20350 4375,20325 4183,20135 4013,19925 3846,19713 L 3754,19593 C 3738,19571 3733,19558 3715,19535 L 3546,19297 C 3434,19122 3326,18966 3224,18787 2922,18258 2788,17935 2573,17377 Z"/>
        </g>
       </g>
       <g class="com.sun.star.drawing.ClosedBezierShape">
        <g id="id4">
         <rect class="BoundingBox" stroke="none" fill="none" x="1638" y="5382" width="17026" height="6090"/>
         <path fill="rgb(231,91,120)" stroke="none" d="M 10163,5383 L 10136,5383 C 10097,5402 9772,5392 9695,5396 9559,5402 9407,5415 9270,5428 8740,5481 8245,5573 7735,5715 7079,5897 6388,6170 5799,6511 5419,6731 5040,6957 4699,7233 4577,7332 4433,7438 4322,7537 L 4083,7749 C 3966,7862 3838,7966 3730,8086 L 3512,8319 C 3157,8688 2805,9187 2524,9614 2462,9709 2410,9801 2353,9895 2324,9943 2297,9992 2271,10042 2244,10091 2213,10142 2189,10190 2034,10499 1881,10806 1756,11128 1730,11195 1640,11408 1638,11465 L 1880,11464 C 1896,11438 2086,10945 2136,10844 2184,10746 2227,10643 2277,10544 2483,10135 2719,9748 2972,9372 3124,9148 3325,8893 3502,8691 3537,8650 3575,8615 3608,8575 3644,8531 3682,8485 3711,8457 3787,8380 3851,8306 3927,8230 4112,8047 4294,7864 4503,7700 L 4991,7313 C 5210,7161 5423,7001 5654,6870 5751,6816 5836,6766 5935,6709 6317,6488 6738,6306 7150,6155 8797,5549 10741,5448 12468,5936 12706,6003 12910,6071 13138,6150 13561,6297 13960,6490 14348,6700 14532,6800 14716,6909 14901,7031 14946,7060 14986,7089 15034,7119 15260,7263 15516,7459 15721,7635 15858,7753 16012,7878 16134,8000 16253,8118 16349,8194 16466,8332 16532,8408 16613,8478 16683,8559 16697,8576 16714,8599 16731,8616 16898,8791 17030,8972 17177,9169 17374,9431 17545,9683 17705,9959 17925,10339 18124,10735 18291,11142 18313,11195 18335,11250 18354,11300 18436,11516 18375,11467 18662,11464 18663,11396 18451,10905 18410,10811 18319,10598 18219,10400 18113,10197 17990,9963 17759,9562 17601,9347 L 17112,8695 C 17022,8586 16949,8490 16850,8390 16821,8362 16822,8355 16799,8327 16731,8244 16648,8167 16573,8092 16496,8015 16424,7947 16345,7869 L 15990,7544 C 15973,7530 15975,7535 15958,7522 L 15671,7288 C 15648,7269 15631,7253 15607,7236 15471,7142 15349,7043 15211,6951 14553,6514 14025,6239 13259,5940 12581,5676 11765,5496 11038,5429 10898,5416 10753,5406 10613,5396 10530,5390 10205,5401 10163,5383 Z"/>
        </g>
       </g>
       <g class="com.sun.star.drawing.ClosedBezierShape">
        <g id="id5">
         <rect class="BoundingBox" stroke="none" fill="none" x="2478" y="6028" width="15346" height="5439"/>
         <path fill="rgb(231,91,120)" stroke="none" d="M 2479,11465 L 2639,11465 2877,10914 C 3044,10530 3348,10002 3601,9655 3727,9482 3841,9315 3982,9152 L 4208,8883 C 4240,8848 4271,8812 4306,8778 4379,8706 4539,8521 4599,8478 L 4903,8189 C 5082,8019 5359,7817 5565,7666 5645,7607 5711,7562 5801,7504 6139,7283 6447,7107 6813,6931 7749,6482 8978,6185 10031,6185 11062,6185 11966,6332 12929,6695 13022,6730 13115,6769 13206,6806 L 13748,7060 C 13837,7109 13921,7149 14008,7199 14103,7255 14166,7290 14253,7344 14454,7470 14658,7599 14845,7743 L 15178,8003 C 15216,8031 15246,8066 15282,8093 15307,8112 15312,8114 15337,8136 15407,8200 15471,8272 15546,8325 15606,8366 15746,8516 15803,8572 L 15947,8720 C 15964,8739 15972,8757 15989,8775 16049,8844 16123,8909 16180,8982 16202,9009 16204,9015 16223,9037 L 16313,9141 C 16432,9280 16599,9500 16697,9650 16857,9894 17009,10125 17156,10386 17251,10554 17335,10736 17421,10908 17466,10997 17504,11091 17544,11183 17576,11256 17619,11402 17661,11464 L 17822,11465 C 17829,11381 17540,10770 17468,10631 17423,10542 17375,10455 17328,10365 17281,10274 17234,10196 17184,10110 17136,10026 17090,9950 17034,9862 16986,9787 16934,9702 16876,9622 L 16624,9272 C 16610,9254 16596,9239 16580,9219 16477,9088 16378,8957 16266,8835 L 16122,8678 C 16102,8652 16099,8645 16073,8620 L 15775,8317 C 15674,8216 15566,8127 15461,8029 15398,7971 15310,7893 15239,7844 15199,7817 15172,7788 15127,7753 14826,7523 14522,7309 14172,7107 13834,6913 13461,6725 13086,6582 12696,6432 12292,6301 11858,6209 11476,6128 10832,6029 10429,6029 9948,6029 9629,6027 9146,6088 7891,6251 6685,6709 5645,7411 5446,7545 5151,7756 4960,7928 L 4644,8205 C 4600,8240 4581,8270 4539,8303 4477,8355 4392,8445 4335,8505 L 4003,8873 C 3981,8898 3972,8910 3955,8930 3935,8952 3927,8960 3909,8982 3889,9005 3885,9015 3867,9037 3544,9431 3260,9845 3012,10288 2900,10488 2478,11335 2479,11465 Z"/>
        </g>
       </g>
       <g class="com.sun.star.drawing.ClosedBezierShape">
        <g id="id6">
         <rect class="BoundingBox" stroke="none" fill="none" x="18137" y="13372" width="691" height="666"/>
         <path fill="rgb(231,91,120)" stroke="none" d="M 18308,13384 C 18218,13488 18069,13596 18172,13849 18238,14009 18458,14083 18632,14004 18894,13886 18983,13279 18308,13384 Z"/>
        </g>
       </g>
       <g class="com.sun.star.drawing.ClosedBezierShape">
        <g id="id7">
         <rect class="BoundingBox" stroke="none" fill="none" x="1449" y="13613" width="688" height="673"/>
         <path fill="rgb(231,91,120)" stroke="none" d="M 1927,13619 C 1310,13548 1366,14174 1669,14267 1865,14327 2054,14230 2108,14071 2192,13821 2069,13738 1927,13619 Z"/>
        </g>
       </g>
       <g class="com.sun.star.drawing.ClosedBezierShape">
        <g id="id8">
         <rect class="BoundingBox" stroke="none" fill="none" x="9991" y="18737" width="217" height="133"/>
         <path fill="rgb(199,199,198)" stroke="none" d="M 10026,18799 C 10201,18886 9801,18884 10116,18833 L 10206,18799 C 10099,18707 10137,18725 10026,18799 Z"/>
        </g>
       </g>
       <g class="Group">
        <g class="Group">
         <g class="com.sun.star.drawing.ClosedBezierShape">
          <g id="id9">
           <rect class="BoundingBox" stroke="none" fill="none" x="3436" y="15618" width="4687" height="2968"/>
           <path fill="rgb(231,91,120)" stroke="none" d="M 3542,17015 C 3538,16989 3535,16956 3535,16927 3538,16821 3575,16700 3634,16572 3754,16297 3974,16000 4157,15795 4124,16030 4132,16370 4143,16736 4154,17088 4161,17463 4139,17774 4102,17792 4073,17810 4040,17825 3985,17858 3934,17887 3853,17924 3637,18027 3535,18173 3516,18301 3509,18360 3516,18415 3542,18459 3568,18506 3608,18543 3659,18565 3718,18587 3791,18587 3875,18558 3908,18550 3941,18536 3970,18514 3996,18499 4022,18481 4047,18462 4263,18298 4370,18045 4417,17748 4494,17712 4571,17668 4641,17613 4736,17539 4813,17441 4860,17305 4882,17247 4794,17199 4769,17276 4729,17393 4663,17474 4582,17539 4534,17576 4483,17605 4432,17631 4469,17327 4450,16982 4432,16656 4414,16330 4399,16019 4439,15781 4443,15748 4439,15718 4425,15696 4414,15674 4395,15656 4377,15645 4355,15634 4337,15627 4315,15627 4260,15617 4201,15627 4165,15645 L 4154,15656 C 3956,15865 3689,16209 3546,16535 3483,16671 3447,16802 3440,16923 3440,16960 3443,16996 3447,17029 3447,17033 3450,17037 3450,17040 3465,17118 3502,17188 3560,17247 3593,17279 3637,17305 3689,17327 3732,17349 3765,17349 3791,17342 3809,17334 3820,17323 3828,17305 3839,17290 3839,17276 3835,17258 3831,17232 3809,17199 3776,17177 3751,17159 3725,17151 3692,17140 3637,17122 3568,17095 3542,17015 Z M 3542,17015 L 3542,17015 Z M 3923,18429 C 3828,18488 3747,18495 3692,18473 3663,18462 3641,18444 3626,18415 3612,18389 3604,18352 3612,18316 3623,18213 3710,18096 3894,18012 3978,17972 4033,17942 4088,17909 L 4128,17887 C 4099,18147 4036,18345 3923,18429 Z M 3923,18429 L 3923,18429 Z M 5296,16674 C 5289,16638 5267,16605 5238,16579 5219,16564 5197,16553 5175,16546 5128,16531 5076,16539 5036,16579 4857,16751 4762,17048 4762,17327 4762,17430 4776,17532 4805,17624 4835,17715 4879,17799 4937,17862 4992,17920 5058,17961 5139,17979 5238,18005 5340,17997 5424,17939 5509,17880 5571,17778 5611,17660 5684,17653 5776,17620 5861,17550 5927,17496 5989,17419 6030,17309 6052,17243 5960,17214 5938,17276 5905,17367 5854,17433 5799,17477 5747,17521 5688,17547 5637,17558 5666,17437 5673,17301 5662,17173 5651,17044 5622,16923 5571,16832 5509,16718 5417,16652 5296,16674 Z M 5296,16674 L 5296,16674 Z M 5234,16813 C 5267,16773 5314,16755 5366,16769 5417,16780 5457,16821 5487,16879 5531,16956 5556,17062 5567,17181 5574,17301 5567,17426 5545,17539 L 5538,17565 C 5402,17550 5307,17474 5249,17375 5208,17309 5183,17232 5172,17155 5161,17081 5164,17004 5179,16938 5190,16887 5208,16843 5234,16813 Z M 5234,16813 L 5234,16813 Z M 5080,17188 C 5095,17268 5124,17353 5164,17422 5238,17543 5351,17635 5509,17657 5476,17748 5424,17825 5362,17865 5311,17898 5252,17902 5197,17862 5142,17825 5102,17745 5080,17646 5058,17539 5054,17415 5065,17290 L 5080,17188 Z M 5080,17188 L 5080,17188 Z M 5307,16209 C 5362,16151 5417,16099 5446,16070 5483,16033 5479,15960 5454,15902 5443,15883 5435,15869 5424,15858 5410,15839 5391,15825 5373,15821 5340,15814 5307,15821 5282,15858 5238,15920 5194,15986 5161,16048 5113,16129 5076,16205 5058,16253 5047,16279 5047,16301 5051,16315 5058,16334 5065,16345 5080,16352 5091,16359 5102,16363 5117,16363 5135,16363 5157,16352 5172,16337 L 5307,16209 Z M 5307,16209 L 5307,16209 Z M 6312,17873 C 6301,17884 6290,17880 6286,17869 6268,17832 6249,17759 6238,17664 6224,17514 6224,17320 6246,17126 6253,17033 6268,16945 6282,16861 6293,16806 6253,16758 6198,16733 6176,16722 6150,16715 6125,16711 6099,16707 6074,16711 6052,16715 6008,16729 5975,16762 5975,16817 5949,17000 5938,17166 5938,17305 5938,17510 5964,17671 6011,17785 6059,17906 6136,17975 6231,17990 6242,17994 6253,17994 6264,17994 6290,17994 6301,17990 6323,17979 6403,17935 6476,17818 6539,17686 6601,17543 6656,17389 6681,17309 6703,17243 6612,17214 6590,17276 6564,17353 6513,17507 6451,17646 6407,17745 6356,17832 6312,17873 Z M 6312,17873 L 6312,17873 Z M 6147,16275 C 6128,16264 6114,16257 6096,16257 6074,16253 6052,16257 6037,16264 6015,16271 6000,16282 5989,16304 5956,16367 6033,16469 6092,16550 6106,16568 6117,16586 6128,16597 L 6161,16645 6198,16601 6260,16535 C 6334,16458 6407,16381 6370,16315 6356,16290 6337,16275 6312,16268 6293,16260 6275,16260 6257,16264 6242,16268 6224,16275 6209,16282 L 6183,16301 C 6172,16290 6161,16282 6147,16275 Z M 6147,16275 L 6147,16275 Z M 7674,17869 C 7612,17906 7593,17836 7586,17763 7579,17671 7579,17550 7586,17415 7601,17155 7637,16854 7699,16667 7718,16601 7685,16542 7634,16509 7619,16498 7597,16487 7579,16480 7557,16473 7538,16473 7516,16473 7469,16476 7429,16502 7418,16553 L 7407,16594 7377,16711 C 7374,16707 7374,16704 7374,16700 7352,16641 7322,16594 7282,16564 7253,16542 7223,16535 7190,16531 6934,16502 6755,16696 6659,16953 6616,17073 6590,17210 6583,17342 6575,17470 6590,17598 6627,17704 6681,17880 6795,17997 6971,17983 7117,17972 7234,17723 7308,17485 7330,17737 7410,17920 7568,17972 7571,17972 7571,17972 7575,17975 L 7582,17975 C 7685,18001 7784,17928 7868,17807 7967,17675 8055,17477 8113,17301 8139,17221 8047,17192 8022,17276 7963,17444 7883,17627 7791,17752 7751,17807 7710,17847 7674,17869 Z M 7674,17869 L 7674,17869 Z M 7161,16649 C 7201,16627 7227,16638 7249,16667 7260,16682 7271,16707 7282,16733 7308,16806 7319,16909 7322,17015 7319,17037 7315,17055 7315,17077 7282,17243 7143,17873 6963,17887 6930,17891 6905,17847 6887,17774 6865,17679 6861,17536 6876,17386 6887,17236 6919,17077 6967,16942 7018,16799 7084,16685 7161,16649 Z"/>
           <path fill="none" stroke="rgb(231,91,120)" stroke-width="8" stroke-linejoin="miter" d="M 3542,17015 C 3538,16989 3535,16956 3535,16927 3538,16821 3575,16700 3634,16572 3754,16297 3974,16000 4157,15795 4124,16030 4132,16370 4143,16736 4154,17088 4161,17463 4139,17774 4102,17792 4073,17810 4040,17825 3985,17858 3934,17887 3853,17924 3637,18027 3535,18173 3516,18301 3509,18360 3516,18415 3542,18459 3568,18506 3608,18543 3659,18565 3718,18587 3791,18587 3875,18558 3908,18550 3941,18536 3970,18514 3996,18499 4022,18481 4047,18462 4263,18298 4370,18045 4417,17748 4494,17712 4571,17668 4641,17613 4736,17539 4813,17441 4860,17305 4882,17247 4794,17199 4769,17276 4729,17393 4663,17474 4582,17539 4534,17576 4483,17605 4432,17631 4469,17327 4450,16982 4432,16656 4414,16330 4399,16019 4439,15781 4443,15748 4439,15718 4425,15696 4414,15674 4395,15656 4377,15645 4355,15634 4337,15627 4315,15627 4260,15617 4201,15627 4165,15645 L 4154,15656 C 3956,15865 3689,16209 3546,16535 3483,16671 3447,16802 3440,16923 3440,16960 3443,16996 3447,17029 3447,17033 3450,17037 3450,17040 3465,17118 3502,17188 3560,17247 3593,17279 3637,17305 3689,17327 3732,17349 3765,17349 3791,17342 3809,17334 3820,17323 3828,17305 3839,17290 3839,17276 3835,17258 3831,17232 3809,17199 3776,17177 3751,17159 3725,17151 3692,17140 3637,17122 3568,17095 3542,17015 Z"/>
           <path fill="none" stroke="rgb(231,91,120)" stroke-width="8" stroke-linejoin="miter" d="M 3923,18429 C 3828,18488 3747,18495 3692,18473 3663,18462 3641,18444 3626,18415 3612,18389 3604,18352 3612,18316 3623,18213 3710,18096 3894,18012 3978,17972 4033,17942 4088,17909 L 4128,17887 C 4099,18147 4036,18345 3923,18429 Z"/>
           <path fill="none" stroke="rgb(231,91,120)" stroke-width="8" stroke-linejoin="miter" d="M 5296,16674 C 5289,16638 5267,16605 5238,16579 5219,16564 5197,16553 5175,16546 5128,16531 5076,16539 5036,16579 4857,16751 4762,17048 4762,17327 4762,17430 4776,17532 4805,17624 4835,17715 4879,17799 4937,17862 4992,17920 5058,17961 5139,17979 5238,18005 5340,17997 5424,17939 5509,17880 5571,17778 5611,17660 5684,17653 5776,17620 5861,17550 5927,17496 5989,17419 6030,17309 6052,17243 5960,17214 5938,17276 5905,17367 5854,17433 5799,17477 5747,17521 5688,17547 5637,17558 5666,17437 5673,17301 5662,17173 5651,17044 5622,16923 5571,16832 5509,16718 5417,16652 5296,16674 Z"/>
           <path fill="none" stroke="rgb(231,91,120)" stroke-width="8" stroke-linejoin="miter" d="M 5234,16813 C 5267,16773 5314,16755 5366,16769 5417,16780 5457,16821 5487,16879 5531,16956 5556,17062 5567,17181 5574,17301 5567,17426 5545,17539 L 5538,17565 C 5402,17550 5307,17474 5249,17375 5208,17309 5183,17232 5172,17155 5161,17081 5164,17004 5179,16938 5190,16887 5208,16843 5234,16813 Z"/>
           <path fill="none" stroke="rgb(231,91,120)" stroke-width="8" stroke-linejoin="miter" d="M 5080,17188 C 5095,17268 5124,17353 5164,17422 5238,17543 5351,17635 5509,17657 5476,17748 5424,17825 5362,17865 5311,17898 5252,17902 5197,17862 5142,17825 5102,17745 5080,17646 5058,17539 5054,17415 5065,17290 L 5080,17188 Z"/>
           <path fill="none" stroke="rgb(231,91,120)" stroke-width="8" stroke-linejoin="miter" d="M 5307,16209 C 5362,16151 5417,16099 5446,16070 5483,16033 5479,15960 5454,15902 5443,15883 5435,15869 5424,15858 5410,15839 5391,15825 5373,15821 5340,15814 5307,15821 5282,15858 5238,15920 5194,15986 5161,16048 5113,16129 5076,16205 5058,16253 5047,16279 5047,16301 5051,16315 5058,16334 5065,16345 5080,16352 5091,16359 5102,16363 5117,16363 5135,16363 5157,16352 5172,16337 L 5307,16209 Z"/>
           <path fill="none" stroke="rgb(231,91,120)" stroke-width="8" stroke-linejoin="miter" d="M 6312,17873 C 6301,17884 6290,17880 6286,17869 6268,17832 6249,17759 6238,17664 6224,17514 6224,17320 6246,17126 6253,17033 6268,16945 6282,16861 6293,16806 6253,16758 6198,16733 6176,16722 6150,16715 6125,16711 6099,16707 6074,16711 6052,16715 6008,16729 5975,16762 5975,16817 5949,17000 5938,17166 5938,17305 5938,17510 5964,17671 6011,17785 6059,17906 6136,17975 6231,17990 6242,17994 6253,17994 6264,17994 6290,17994 6301,17990 6323,17979 6403,17935 6476,17818 6539,17686 6601,17543 6656,17389 6681,17309 6703,17243 6612,17214 6590,17276 6564,17353 6513,17507 6451,17646 6407,17745 6356,17832 6312,17873 Z"/>
           <path fill="none" stroke="rgb(231,91,120)" stroke-width="8" stroke-linejoin="miter" d="M 6147,16275 C 6128,16264 6114,16257 6096,16257 6074,16253 6052,16257 6037,16264 6015,16271 6000,16282 5989,16304 5956,16367 6033,16469 6092,16550 6106,16568 6117,16586 6128,16597 L 6161,16645 6198,16601 6260,16535 C 6334,16458 6407,16381 6370,16315 6356,16290 6337,16275 6312,16268 6293,16260 6275,16260 6257,16264 6242,16268 6224,16275 6209,16282 L 6183,16301 C 6172,16290 6161,16282 6147,16275 Z"/>
           <path fill="none" stroke="rgb(231,91,120)" stroke-width="8" stroke-linejoin="miter" d="M 7674,17869 C 7612,17906 7593,17836 7586,17763 7579,17671 7579,17550 7586,17415 7601,17155 7637,16854 7699,16667 7718,16601 7685,16542 7634,16509 7619,16498 7597,16487 7579,16480 7557,16473 7538,16473 7516,16473 7469,16476 7429,16502 7418,16553 L 7407,16594 7377,16711 C 7374,16707 7374,16704 7374,16700 7352,16641 7322,16594 7282,16564 7253,16542 7223,16535 7190,16531 6934,16502 6755,16696 6659,16953 6616,17073 6590,17210 6583,17342 6575,17470 6590,17598 6627,17704 6681,17880 6795,17997 6971,17983 7117,17972 7234,17723 7308,17485 7330,17737 7410,17920 7568,17972 7571,17972 7571,17972 7575,17975 L 7582,17975 C 7685,18001 7784,17928 7868,17807 7967,17675 8055,17477 8113,17301 8139,17221 8047,17192 8022,17276 7963,17444 7883,17627 7791,17752 7751,17807 7710,17847 7674,17869 Z"/>
           <path fill="none" stroke="rgb(231,91,120)" stroke-width="8" stroke-linejoin="miter" d="M 7161,16649 C 7201,16627 7227,16638 7249,16667 7260,16682 7271,16707 7282,16733 7308,16806 7319,16909 7322,17015 7319,17037 7315,17055 7315,17077 7282,17243 7143,17873 6963,17887 6930,17891 6905,17847 6887,17774 6865,17679 6861,17536 6876,17386 6887,17236 6919,17077 6967,16942 7018,16799 7084,16685 7161,16649 Z"/>
          </g>
         </g>
         <g class="com.sun.star.drawing.ClosedBezierShape">
          <g id="id10">
           <rect class="BoundingBox" stroke="none" fill="none" x="8456" y="15587" width="8657" height="2691"/>
           <path fill="rgb(117,198,217)" stroke="none" d="M 9261,17998 C 9254,17966 9250,17914 9247,17878 9228,17698 9228,17393 9236,17082 9250,16661 9283,16217 9327,16012 9342,15946 9309,15898 9265,15869 9243,15858 9221,15851 9195,15847 9170,15843 9144,15847 9122,15858 9082,15872 9056,15905 9056,15957 9009,16169 8972,16478 8954,16782 8924,17206 8921,17632 8939,17801 L 8943,17823 C 8950,17900 8957,17955 8990,18002 9049,18086 9254,18101 9349,18097 9697,18094 9957,17881 10115,17584 10213,17397 10276,17181 10298,16957 10316,16734 10298,16507 10235,16302 10115,15902 9836,15591 9378,15591 9074,15591 8844,15686 8686,15821 8595,15905 8525,16004 8492,16107 8457,16213 8449,16320 8478,16419 8511,16533 8584,16632 8705,16701 8749,16727 8785,16730 8811,16719 8825,16712 8840,16701 8847,16686 8855,16675 8858,16657 8858,16643 8855,16613 8836,16577 8796,16551 8774,16536 8749,16525 8719,16514 8661,16492 8591,16467 8565,16375 8547,16302 8554,16220 8580,16140 8609,16052 8668,15968 8752,15894 8891,15770 9100,15682 9378,15686 9638,15686 9789,15880 9876,16118 9939,16298 9972,16514 9972,16738 9975,16961 9942,17192 9887,17393 9796,17717 9638,17966 9422,17998 9371,18002 9316,18006 9261,17998 Z M 9261,17998 L 9261,17998 Z M 10720,17492 C 10896,17423 11020,17254 11086,17086 11115,17009 11130,16928 11134,16859 11134,16782 11123,16716 11090,16668 11060,16621 11016,16591 10958,16588 10782,16573 10643,16686 10550,16855 10495,16950 10462,17064 10444,17181 10426,17298 10422,17419 10444,17532 10484,17760 10605,17955 10826,18013 10972,18053 11108,17998 11221,17878 11339,17757 11434,17565 11511,17335 11536,17261 11441,17236 11423,17302 11350,17521 11258,17702 11152,17812 11071,17900 10980,17944 10881,17929 10804,17911 10756,17797 10734,17643 10727,17595 10720,17547 10720,17492 Z M 10720,17492 L 10720,17492 Z M 10954,16683 C 10980,16686 10998,16697 11013,16719 11031,16752 11038,16800 11038,16855 11035,16917 11020,16983 10994,17053 10943,17188 10852,17320 10720,17390 10720,17342 10723,17298 10727,17254 10742,17122 10767,16990 10804,16884 10844,16767 10899,16683 10954,16683 Z M 10954,16683 L 10954,16683 Z M 11701,17108 C 11782,17009 11954,16723 12086,16434 12155,16276 12210,16114 12236,15982 12258,15836 12243,15719 12155,15660 12137,15649 12119,15642 12100,15634 11928,15591 11771,15766 11654,16045 11569,16242 11500,16492 11460,16749 11423,17001 11408,17261 11434,17477 11467,17786 11580,18009 11796,18024 11921,18039 12027,17918 12111,17764 12188,17621 12251,17448 12287,17331 12309,17269 12221,17236 12199,17302 12163,17412 12104,17580 12027,17717 11958,17845 11877,17944 11796,17929 11738,17914 11705,17760 11694,17543 11687,17415 11690,17265 11701,17108 Z M 11701,17108 L 11701,17108 Z M 12104,15741 C 12152,15774 12159,15858 12141,15968 12119,16089 12064,16242 11998,16393 11910,16591 11800,16785 11720,16917 L 11731,16796 C 11767,16533 11818,16273 11884,16070 11947,15869 12016,15733 12082,15730 L 12104,15741 Z M 12104,15741 L 12104,15741 Z M 12573,17900 C 12562,17911 12551,17907 12547,17896 12529,17859 12511,17786 12500,17691 12485,17540 12485,17346 12507,17152 12514,17060 12529,16972 12543,16888 12554,16833 12514,16785 12459,16760 12437,16749 12412,16741 12386,16738 12360,16734 12335,16738 12313,16741 12269,16756 12236,16789 12236,16844 12210,17027 12199,17192 12199,17331 12199,17536 12225,17698 12272,17812 12320,17933 12397,18002 12492,18017 12503,18020 12514,18020 12525,18020 12551,18020 12562,18017 12584,18006 12664,17962 12738,17845 12800,17713 12862,17569 12917,17415 12943,17335 12965,17269 12873,17239 12851,17302 12825,17379 12774,17532 12712,17673 12668,17771 12617,17859 12573,17900 Z M 12573,17900 L 12573,17900 Z M 12470,16357 C 12525,16298 12580,16246 12609,16217 12646,16180 12642,16107 12617,16048 12606,16030 12598,16015 12587,16004 12573,15986 12554,15971 12536,15968 12503,15960 12470,15968 12445,16004 12401,16067 12357,16132 12324,16195 12276,16276 12240,16353 12221,16401 12210,16426 12210,16448 12214,16463 12221,16481 12229,16492 12243,16500 12254,16507 12265,16511 12280,16511 12298,16511 12320,16500 12335,16485 L 12470,16357 Z M 12470,16357 L 12470,16357 Z M 13371,16683 C 13393,16686 13415,16690 13430,16697 13474,16712 13507,16745 13525,16789 13529,16796 13532,16804 13532,16811 13558,16892 13510,16946 13470,16990 13455,17009 13444,17020 13437,17034 13404,17082 13404,17130 13415,17163 13422,17184 13433,17199 13452,17210 13470,17221 13492,17221 13518,17214 13547,17199 13580,17166 13609,17089 13627,17045 13638,16998 13642,16946 13646,16892 13642,16837 13624,16785 L 13613,16749 C 13584,16686 13536,16635 13466,16606 13441,16599 13408,16591 13375,16588 13203,16573 13060,16686 12968,16855 12917,16950 12880,17064 12862,17181 12844,17298 12844,17419 12862,17532 12902,17760 13023,17955 13243,18013 13393,18053 13536,17998 13660,17874 13785,17753 13891,17562 13968,17331 13986,17276 13895,17243 13876,17302 13803,17518 13708,17695 13595,17808 13503,17896 13404,17944 13298,17925 13221,17911 13173,17797 13151,17643 13133,17525 13133,17390 13144,17254 13159,17122 13184,16990 13221,16884 13265,16767 13316,16683 13371,16683 Z M 13371,16683 L 13371,16683 Z M 14250,17900 C 14239,17911 14228,17907 14224,17896 14206,17859 14188,17786 14177,17691 14162,17540 14162,17346 14184,17152 14191,17060 14206,16972 14221,16888 14232,16833 14191,16785 14136,16760 14115,16749 14089,16741 14063,16738 14038,16734 14012,16738 13990,16741 13946,16756 13913,16789 13913,16844 13887,17027 13876,17192 13876,17331 13876,17536 13902,17698 13950,17812 13997,17933 14074,18002 14169,18017 14180,18020 14191,18020 14202,18020 14228,18020 14239,18017 14261,18006 14342,17962 14415,17845 14477,17713 14539,17569 14594,17415 14620,17335 14642,17269 14550,17239 14528,17302 14503,17379 14451,17532 14389,17673 14345,17771 14294,17859 14250,17900 Z M 14250,17900 L 14250,17900 Z M 14085,16302 C 14067,16291 14052,16284 14034,16284 14012,16280 13990,16284 13975,16291 13953,16298 13939,16309 13928,16331 13895,16393 13972,16496 14030,16577 14045,16595 14056,16613 14067,16624 L 14100,16672 14136,16628 14199,16562 C 14272,16485 14345,16408 14309,16342 14294,16317 14276,16302 14250,16295 14232,16287 14213,16287 14195,16291 14180,16295 14162,16302 14147,16309 L 14122,16328 C 14111,16317 14100,16309 14085,16302 Z M 14085,16302 L 14085,16302 Z M 15613,17896 C 15551,17933 15533,17863 15525,17790 15518,17698 15518,17576 15525,17441 15540,17181 15577,16881 15639,16694 15657,16628 15624,16569 15573,16536 15558,16525 15536,16514 15518,16507 15496,16500 15478,16500 15456,16500 15408,16503 15368,16529 15357,16580 L 15346,16621 15317,16738 C 15313,16734 15313,16730 15313,16727 15291,16668 15262,16621 15221,16591 15192,16569 15163,16562 15130,16558 14873,16529 14693,16723 14598,16979 14554,17100 14528,17236 14521,17368 14514,17496 14528,17625 14565,17731 14620,17907 14733,18024 14909,18009 15057,17998 15174,17749 15247,17510 15269,17764 15350,17947 15507,17998 15511,17998 15511,17998 15514,18002 L 15522,18002 C 15624,18028 15723,17955 15807,17834 15906,17702 15994,17503 16053,17327 16078,17247 15987,17217 15961,17302 15903,17470 15822,17654 15730,17779 15690,17834 15650,17874 15613,17896 Z M 15613,17896 L 15613,17896 Z M 15101,16675 C 15141,16653 15167,16664 15189,16694 15199,16708 15210,16734 15221,16760 15247,16833 15258,16935 15262,17042 15258,17064 15254,17082 15254,17104 15221,17269 15082,17900 14902,17914 14869,17918 14843,17874 14825,17801 14803,17706 14799,17562 14814,17412 14825,17261 14858,17104 14906,16968 14958,16826 15024,16712 15101,16675 Z M 15101,16675 L 15101,16675 Z M 15961,17302 C 15939,17379 16034,17393 16053,17331 L 16089,17214 16093,17199 C 16144,17261 16203,17320 16261,17379 16349,17459 16430,17540 16474,17625 L 16423,17632 C 16327,17643 16236,17658 16148,17684 15998,17727 15917,17823 15892,17925 15884,17969 15884,18013 15895,18053 15906,18097 15925,18138 15954,18171 16009,18229 16089,18269 16192,18273 16265,18273 16327,18258 16390,18229 16522,18178 16620,18094 16690,18002 16774,17889 16807,17757 16800,17643 16935,17591 17045,17503 17104,17331 17126,17269 17038,17239 17012,17302 16968,17426 16884,17499 16782,17547 16730,17386 16591,17254 16456,17130 16353,17034 16254,16943 16214,16851 16199,16815 16188,16774 16185,16738 16174,16646 16203,16529 16313,16533 16353,16533 16390,16544 16423,16558 16452,16573 16481,16595 16503,16624 16518,16653 16522,16683 16522,16708 16518,16741 16500,16771 16481,16793 16445,16826 16441,16866 16452,16899 16463,16924 16481,16943 16500,16950 16525,16961 16554,16961 16580,16943 16609,16924 16639,16881 16642,16804 16653,16653 16595,16536 16463,16474 16419,16452 16368,16437 16316,16437 16265,16434 16214,16445 16166,16463 16042,16507 15939,16621 15936,16793 15932,16910 15965,17009 16020,17093 16012,17130 16001,17159 15994,17188 15987,17225 15972,17272 15961,17302 Z M 15961,17302 L 15961,17302 Z M 16503,17720 C 16529,17848 16511,17951 16467,18028 16437,18079 16397,18116 16349,18141 16302,18167 16251,18178 16196,18178 16119,18178 16064,18149 16027,18108 16009,18086 15994,18061 15987,18031 15980,18006 15980,17977 15987,17947 16005,17874 16064,17808 16174,17775 16254,17753 16346,17738 16437,17727 L 16503,17717 16503,17720 Z"/>
           <path fill="none" stroke="rgb(117,198,217)" stroke-width="8" stroke-linejoin="miter" d="M 9261,17998 C 9254,17966 9250,17914 9247,17878 9228,17698 9228,17393 9236,17082 9250,16661 9283,16217 9327,16012 9342,15946 9309,15898 9265,15869 9243,15858 9221,15851 9195,15847 9170,15843 9144,15847 9122,15858 9082,15872 9056,15905 9056,15957 9009,16169 8972,16478 8954,16782 8924,17206 8921,17632 8939,17801 L 8943,17823 C 8950,17900 8957,17955 8990,18002 9049,18086 9254,18101 9349,18097 9697,18094 9957,17881 10115,17584 10213,17397 10276,17181 10298,16957 10316,16734 10298,16507 10235,16302 10115,15902 9836,15591 9378,15591 9074,15591 8844,15686 8686,15821 8595,15905 8525,16004 8492,16107 8457,16213 8449,16320 8478,16419 8511,16533 8584,16632 8705,16701 8749,16727 8785,16730 8811,16719 8825,16712 8840,16701 8847,16686 8855,16675 8858,16657 8858,16643 8855,16613 8836,16577 8796,16551 8774,16536 8749,16525 8719,16514 8661,16492 8591,16467 8565,16375 8547,16302 8554,16220 8580,16140 8609,16052 8668,15968 8752,15894 8891,15770 9100,15682 9378,15686 9638,15686 9789,15880 9876,16118 9939,16298 9972,16514 9972,16738 9975,16961 9942,17192 9887,17393 9796,17717 9638,17966 9422,17998 9371,18002 9316,18006 9261,17998 Z"/>
           <path fill="none" stroke="rgb(117,198,217)" stroke-width="8" stroke-linejoin="miter" d="M 10720,17492 C 10896,17423 11020,17254 11086,17086 11115,17009 11130,16928 11134,16859 11134,16782 11123,16716 11090,16668 11060,16621 11016,16591 10958,16588 10782,16573 10643,16686 10550,16855 10495,16950 10462,17064 10444,17181 10426,17298 10422,17419 10444,17532 10484,17760 10605,17955 10826,18013 10972,18053 11108,17998 11221,17878 11339,17757 11434,17565 11511,17335 11536,17261 11441,17236 11423,17302 11350,17521 11258,17702 11152,17812 11071,17900 10980,17944 10881,17929 10804,17911 10756,17797 10734,17643 10727,17595 10720,17547 10720,17492 Z"/>
           <path fill="none" stroke="rgb(117,198,217)" stroke-width="8" stroke-linejoin="miter" d="M 10954,16683 C 10980,16686 10998,16697 11013,16719 11031,16752 11038,16800 11038,16855 11035,16917 11020,16983 10994,17053 10943,17188 10852,17320 10720,17390 10720,17342 10723,17298 10727,17254 10742,17122 10767,16990 10804,16884 10844,16767 10899,16683 10954,16683 Z"/>
           <path fill="none" stroke="rgb(117,198,217)" stroke-width="8" stroke-linejoin="miter" d="M 11701,17108 C 11782,17009 11954,16723 12086,16434 12155,16276 12210,16114 12236,15982 12258,15836 12243,15719 12155,15660 12137,15649 12119,15642 12100,15634 11928,15591 11771,15766 11654,16045 11569,16242 11500,16492 11460,16749 11423,17001 11408,17261 11434,17477 11467,17786 11580,18009 11796,18024 11921,18039 12027,17918 12111,17764 12188,17621 12251,17448 12287,17331 12309,17269 12221,17236 12199,17302 12163,17412 12104,17580 12027,17717 11958,17845 11877,17944 11796,17929 11738,17914 11705,17760 11694,17543 11687,17415 11690,17265 11701,17108 Z"/>
           <path fill="none" stroke="rgb(117,198,217)" stroke-width="8" stroke-linejoin="miter" d="M 12104,15741 C 12152,15774 12159,15858 12141,15968 12119,16089 12064,16242 11998,16393 11910,16591 11800,16785 11720,16917 L 11731,16796 C 11767,16533 11818,16273 11884,16070 11947,15869 12016,15733 12082,15730 L 12104,15741 Z"/>
           <path fill="none" stroke="rgb(117,198,217)" stroke-width="8" stroke-linejoin="miter" d="M 12573,17900 C 12562,17911 12551,17907 12547,17896 12529,17859 12511,17786 12500,17691 12485,17540 12485,17346 12507,17152 12514,17060 12529,16972 12543,16888 12554,16833 12514,16785 12459,16760 12437,16749 12412,16741 12386,16738 12360,16734 12335,16738 12313,16741 12269,16756 12236,16789 12236,16844 12210,17027 12199,17192 12199,17331 12199,17536 12225,17698 12272,17812 12320,17933 12397,18002 12492,18017 12503,18020 12514,18020 12525,18020 12551,18020 12562,18017 12584,18006 12664,17962 12738,17845 12800,17713 12862,17569 12917,17415 12943,17335 12965,17269 12873,17239 12851,17302 12825,17379 12774,17532 12712,17673 12668,17771 12617,17859 12573,17900 Z"/>
           <path fill="none" stroke="rgb(117,198,217)" stroke-width="8" stroke-linejoin="miter" d="M 12470,16357 C 12525,16298 12580,16246 12609,16217 12646,16180 12642,16107 12617,16048 12606,16030 12598,16015 12587,16004 12573,15986 12554,15971 12536,15968 12503,15960 12470,15968 12445,16004 12401,16067 12357,16132 12324,16195 12276,16276 12240,16353 12221,16401 12210,16426 12210,16448 12214,16463 12221,16481 12229,16492 12243,16500 12254,16507 12265,16511 12280,16511 12298,16511 12320,16500 12335,16485 L 12470,16357 Z"/>
           <path fill="none" stroke="rgb(117,198,217)" stroke-width="8" stroke-linejoin="miter" d="M 13371,16683 C 13393,16686 13415,16690 13430,16697 13474,16712 13507,16745 13525,16789 13529,16796 13532,16804 13532,16811 13558,16892 13510,16946 13470,16990 13455,17009 13444,17020 13437,17034 13404,17082 13404,17130 13415,17163 13422,17184 13433,17199 13452,17210 13470,17221 13492,17221 13518,17214 13547,17199 13580,17166 13609,17089 13627,17045 13638,16998 13642,16946 13646,16892 13642,16837 13624,16785 L 13613,16749 C 13584,16686 13536,16635 13466,16606 13441,16599 13408,16591 13375,16588 13203,16573 13060,16686 12968,16855 12917,16950 12880,17064 12862,17181 12844,17298 12844,17419 12862,17532 12902,17760 13023,17955 13243,18013 13393,18053 13536,17998 13660,17874 13785,17753 13891,17562 13968,17331 13986,17276 13895,17243 13876,17302 13803,17518 13708,17695 13595,17808 13503,17896 13404,17944 13298,17925 13221,17911 13173,17797 13151,17643 13133,17525 13133,17390 13144,17254 13159,17122 13184,16990 13221,16884 13265,16767 13316,16683 13371,16683 Z"/>
           <path fill="none" stroke="rgb(117,198,217)" stroke-width="8" stroke-linejoin="miter" d="M 14250,17900 C 14239,17911 14228,17907 14224,17896 14206,17859 14188,17786 14177,17691 14162,17540 14162,17346 14184,17152 14191,17060 14206,16972 14221,16888 14232,16833 14191,16785 14136,16760 14115,16749 14089,16741 14063,16738 14038,16734 14012,16738 13990,16741 13946,16756 13913,16789 13913,16844 13887,17027 13876,17192 13876,17331 13876,17536 13902,17698 13950,17812 13997,17933 14074,18002 14169,18017 14180,18020 14191,18020 14202,18020 14228,18020 14239,18017 14261,18006 14342,17962 14415,17845 14477,17713 14539,17569 14594,17415 14620,17335 14642,17269 14550,17239 14528,17302 14503,17379 14451,17532 14389,17673 14345,17771 14294,17859 14250,17900 Z"/>
           <path fill="none" stroke="rgb(117,198,217)" stroke-width="8" stroke-linejoin="miter" d="M 14085,16302 C 14067,16291 14052,16284 14034,16284 14012,16280 13990,16284 13975,16291 13953,16298 13939,16309 13928,16331 13895,16393 13972,16496 14030,16577 14045,16595 14056,16613 14067,16624 L 14100,16672 14136,16628 14199,16562 C 14272,16485 14345,16408 14309,16342 14294,16317 14276,16302 14250,16295 14232,16287 14213,16287 14195,16291 14180,16295 14162,16302 14147,16309 L 14122,16328 C 14111,16317 14100,16309 14085,16302 Z"/>
           <path fill="none" stroke="rgb(117,198,217)" stroke-width="8" stroke-linejoin="miter" d="M 15613,17896 C 15551,17933 15533,17863 15525,17790 15518,17698 15518,17576 15525,17441 15540,17181 15577,16881 15639,16694 15657,16628 15624,16569 15573,16536 15558,16525 15536,16514 15518,16507 15496,16500 15478,16500 15456,16500 15408,16503 15368,16529 15357,16580 L 15346,16621 15317,16738 C 15313,16734 15313,16730 15313,16727 15291,16668 15262,16621 15221,16591 15192,16569 15163,16562 15130,16558 14873,16529 14693,16723 14598,16979 14554,17100 14528,17236 14521,17368 14514,17496 14528,17625 14565,17731 14620,17907 14733,18024 14909,18009 15057,17998 15174,17749 15247,17510 15269,17764 15350,17947 15507,17998 15511,17998 15511,17998 15514,18002 L 15522,18002 C 15624,18028 15723,17955 15807,17834 15906,17702 15994,17503 16053,17327 16078,17247 15987,17217 15961,17302 15903,17470 15822,17654 15730,17779 15690,17834 15650,17874 15613,17896 Z"/>
           <path fill="none" stroke="rgb(117,198,217)" stroke-width="8" stroke-linejoin="miter" d="M 15101,16675 C 15141,16653 15167,16664 15189,16694 15199,16708 15210,16734 15221,16760 15247,16833 15258,16935 15262,17042 15258,17064 15254,17082 15254,17104 15221,17269 15082,17900 14902,17914 14869,17918 14843,17874 14825,17801 14803,17706 14799,17562 14814,17412 14825,17261 14858,17104 14906,16968 14958,16826 15024,16712 15101,16675 Z"/>
           <path fill="none" stroke="rgb(117,198,217)" stroke-width="8" stroke-linejoin="miter" d="M 15961,17302 C 15939,17379 16034,17393 16053,17331 L 16089,17214 16093,17199 C 16144,17261 16203,17320 16261,17379 16349,17459 16430,17540 16474,17625 L 16423,17632 C 16327,17643 16236,17658 16148,17684 15998,17727 15917,17823 15892,17925 15884,17969 15884,18013 15895,18053 15906,18097 15925,18138 15954,18171 16009,18229 16089,18269 16192,18273 16265,18273 16327,18258 16390,18229 16522,18178 16620,18094 16690,18002 16774,17889 16807,17757 16800,17643 16935,17591 17045,17503 17104,17331 17126,17269 17038,17239 17012,17302 16968,17426 16884,17499 16782,17547 16730,17386 16591,17254 16456,17130 16353,17034 16254,16943 16214,16851 16199,16815 16188,16774 16185,16738 16174,16646 16203,16529 16313,16533 16353,16533 16390,16544 16423,16558 16452,16573 16481,16595 16503,16624 16518,16653 16522,16683 16522,16708 16518,16741 16500,16771 16481,16793 16445,16826 16441,16866 16452,16899 16463,16924 16481,16943 16500,16950 16525,16961 16554,16961 16580,16943 16609,16924 16639,16881 16642,16804 16653,16653 16595,16536 16463,16474 16419,16452 16368,16437 16316,16437 16265,16434 16214,16445 16166,16463 16042,16507 15939,16621 15936,16793 15932,16910 15965,17009 16020,17093 16012,17130 16001,17159 15994,17188 15987,17225 15972,17272 15961,17302 Z"/>
           <path fill="none" stroke="rgb(117,198,217)" stroke-width="8" stroke-linejoin="miter" d="M 16503,17720 C 16529,17848 16511,17951 16467,18028 16437,18079 16397,18116 16349,18141 16302,18167 16251,18178 16196,18178 16119,18178 16064,18149 16027,18108 16009,18086 15994,18061 15987,18031 15980,18006 15980,17977 15987,17947 16005,17874 16064,17808 16174,17775 16254,17753 16346,17738 16437,17727 L 16503,17717 16503,17720 Z"/>
          </g>
         </g>
        </g>
        <g class="Group">
         <g class="com.sun.star.drawing.ClosedBezierShape">
          <g id="id11">
           <rect class="BoundingBox" stroke="none" fill="none" x="5233" y="9735" width="2201" height="3320"/>
           <path fill="rgb(117,198,217)" stroke="none" d="M 7346,9980 C 7322,10012 7291,10062 7229,10061 7175,10060 7130,10021 7132,9954 7134,9849 7299,9801 7346,9980 Z M 7346,9980 L 7346,9980 Z M 6676,11431 C 6685,11549 6629,11817 6604,11921 6565,12089 6514,12247 6460,12385 6405,12526 6325,12683 6218,12793 6122,12891 5887,13047 5726,12996 5792,12941 5896,12943 6091,12680 6269,12440 6624,11598 6623,11414 6648,11393 6671,11365 6676,11431 Z M 6676,11431 L 6676,11431 Z M 6583,11355 C 6591,11500 6331,12119 6274,12249 6186,12451 5890,12987 5638,12952 5656,12914 5764,12809 5794,12771 5835,12718 5891,12635 5926,12577 6146,12212 6387,11730 6555,11334 6601,11329 6573,11312 6583,11355 Z M 6583,11355 L 6583,11355 Z M 6499,11316 C 6501,11383 6144,12076 6096,12171 6013,12336 5724,12877 5530,12944 5484,12693 5985,11936 6171,11657 6256,11531 6355,11373 6449,11262 6495,11262 6499,11262 6499,11316 Z M 6499,11316 L 6499,11316 Z M 6393,11252 C 6240,11424 5752,12206 5644,12430 5589,12545 5491,12733 5475,12873 5318,12598 5648,12103 5744,11963 5837,11827 5924,11715 6028,11588 6120,11474 6246,11322 6356,11231 L 6397,11216 C 6389,11232 6398,11231 6393,11252 Z M 6393,11252 L 6393,11252 Z M 6305,11205 C 6199,11334 6093,11425 5994,11548 5734,11874 5338,12355 5391,12814 5184,12456 5305,12161 5537,11868 5695,11669 5845,11506 6053,11335 6112,11286 6206,11222 6252,11177 6288,11176 6303,11164 6305,11205 Z M 6305,11205 L 6305,11205 Z M 6177,11177 C 5989,11266 5552,11755 5418,11951 4920,12679 5531,13291 6083,12963 6395,12778 6534,12382 6621,12048 6657,11913 6726,11642 6724,11500 6744,11474 6734,11480 6776,11469 L 6770,11459 C 6724,10997 7186,10391 7405,10010 7470,9897 7412,9753 7293,9737 7138,9718 7084,9871 7041,9945 L 6729,10496 C 6615,10688 6184,11148 6177,11177 Z"/>
          </g>
         </g>
         <g class="com.sun.star.drawing.ClosedBezierShape">
          <g id="id12">
           <rect class="BoundingBox" stroke="none" fill="none" x="4567" y="9404" width="6330" height="6141"/>
           <path fill="rgb(231,91,120)" stroke="none" d="M 9991,13929 C 9744,13928 9496,13908 9248,13874 8981,13837 8714,13784 8449,13724 8553,13531 8647,13335 8736,13138 8945,12663 9117,12179 9283,11699 9368,11459 9449,11220 9535,10984 9578,10867 9622,10750 9668,10635 L 9672,10627 C 9699,10620 9727,10612 9754,10603 9885,10561 10012,10504 10128,10431 10245,10359 10352,10272 10447,10175 10471,10151 10493,10126 10516,10101 L 10549,10064 C 10560,10051 10571,10037 10582,10023 10626,9968 10666,9906 10694,9831 10708,9794 10719,9754 10722,9709 10723,9686 10722,9662 10718,9638 10714,9614 10706,9589 10694,9565 10683,9541 10667,9519 10649,9500 10631,9481 10611,9466 10590,9454 10548,9429 10505,9417 10464,9410 10423,9404 10385,9404 10346,9404 10308,9406 10269,9412 10231,9421 10193,9429 10157,9442 10122,9457 10103,9464 10087,9473 10070,9481 10053,9490 10037,9499 10021,9509 9957,9547 9900,9593 9847,9640 9794,9688 9746,9739 9701,9792 9610,9897 9533,10009 9465,10123 9417,10206 9374,10291 9334,10377 L 9333,10377 C 9214,10377 9096,10367 8978,10350 L 8934,10344 8890,10336 C 8860,10331 8831,10326 8802,10319 8773,10313 8743,10308 8713,10299 L 8625,10275 C 8388,10212 8148,10148 7898,10091 7649,10037 7390,9986 7110,9989 7075,9990 7040,9992 7004,9995 6969,9998 6933,10002 6897,10009 6825,10022 6753,10044 6684,10076 6615,10109 6551,10153 6497,10206 6470,10232 6445,10260 6423,10289 6401,10319 6380,10349 6362,10380 6324,10443 6296,10514 6281,10587 6264,10661 6261,10737 6270,10813 6280,10888 6304,10963 6339,11031 6376,11099 6423,11162 6480,11213 6595,11318 6740,11381 6886,11412 7034,11443 7182,11443 7329,11435 L 7341,11434 C 7368,11432 7396,11425 7421,11412 7525,11361 7567,11235 7516,11131 7464,11027 7339,10985 7234,11036 7134,11086 7027,11113 6921,11115 6817,11116 6714,11090 6632,11031 6551,10973 6493,10884 6477,10783 6468,10733 6470,10681 6481,10630 6492,10580 6512,10531 6539,10485 6568,10438 6603,10397 6641,10363 6681,10330 6725,10305 6773,10288 6821,10271 6873,10263 6928,10261 6982,10259 7038,10262 7095,10271 7208,10287 7324,10319 7441,10355 7558,10390 7676,10431 7796,10469 8037,10546 8286,10618 8546,10657 8579,10661 8611,10666 8644,10670 8677,10673 8710,10677 8744,10681 8777,10686 8810,10689 8844,10692 L 8894,10696 8945,10699 C 9028,10704 9111,10704 9194,10700 9176,10745 9158,10790 9140,10835 9046,11074 8958,11314 8871,11552 8696,12028 8524,12501 8323,12956 8224,13181 8118,13401 8001,13614 7926,13594 7852,13575 7776,13554 7532,13489 7287,13421 7041,13357 6793,13293 6543,13232 6286,13187 6157,13165 6026,13148 5892,13140 5759,13132 5622,13132 5482,13152 5344,13172 5201,13212 5070,13288 4939,13362 4826,13473 4747,13598 4738,13614 4728,13629 4719,13645 4709,13661 4701,13677 4693,13693 4684,13710 4677,13726 4669,13742 4661,13759 4654,13776 4647,13793 4618,13862 4598,13934 4584,14007 4559,14153 4563,14301 4589,14443 4616,14586 4667,14723 4737,14850 4807,14977 4898,15093 5006,15192 5115,15291 5240,15372 5375,15430 5511,15488 5655,15524 5800,15537 5836,15541 5872,15543 5909,15544 5944,15544 5978,15544 6012,15543 6081,15542 6151,15537 6220,15530 6357,15515 6494,15487 6628,15448 6896,15368 7146,15235 7366,15069 7586,14904 7776,14708 7944,14498 8083,14327 8204,14145 8315,13960 8611,14026 8911,14083 9216,14121 9473,14152 9732,14171 9993,14168 10913,14157 11451,13935 9991,13929 Z M 9991,13929 L 9991,13929 Z M 9956,9971 C 9984,9919 10014,9870 10047,9824 10080,9779 10116,9737 10157,9703 10197,9669 10241,9643 10288,9627 10311,9619 10335,9615 10360,9612 10385,9609 10411,9610 10432,9613 10454,9616 10473,9622 10485,9630 10491,9634 10496,9638 10500,9642 10504,9646 10507,9650 10510,9655 10519,9673 10519,9714 10500,9759 10483,9803 10453,9849 10418,9892 10409,9903 10400,9913 10390,9924 L 10360,9958 C 10339,9979 10318,10001 10296,10021 10210,10102 10113,10170 10009,10223 9958,10250 9904,10272 9849,10292 9834,10297 9819,10302 9803,10307 L 9808,10296 C 9855,10184 9902,10074 9956,9971 Z M 9956,9971 L 9956,9971 Z M 7603,14231 C 7457,14420 7294,14593 7111,14737 6928,14880 6725,14992 6508,15064 6399,15100 6287,15124 6173,15140 6114,15148 6057,15153 5998,15156 5970,15158 5940,15159 5912,15159 5885,15159 5858,15158 5830,15156 5722,15150 5617,15127 5517,15088 5418,15049 5326,14994 5244,14924 5081,14785 4960,14589 4912,14377 4887,14271 4880,14161 4893,14056 4900,14003 4913,13952 4930,13903 4934,13891 4939,13879 4944,13866 4950,13853 4956,13841 4962,13829 4968,13817 4974,13805 4981,13794 4987,13782 4994,13771 5001,13760 5029,13715 5061,13674 5098,13638 5134,13602 5175,13571 5219,13544 5308,13491 5414,13459 5525,13442 5637,13425 5756,13423 5875,13429 5995,13435 6117,13449 6239,13469 6483,13508 6727,13565 6972,13625 7217,13686 7462,13750 7709,13814 7760,13827 7811,13839 7863,13852 7782,13983 7696,14110 7603,14231 Z"/>
          </g>
         </g>
         <g class="Group">
          <g class="com.sun.star.drawing.ClosedBezierShape">
           <g id="id13">
            <rect class="BoundingBox" stroke="none" fill="none" x="9977" y="10051" width="4376" height="5089"/>
            <path fill="rgb(117,198,217)" stroke="none" d="M 14322,14413 C 14226,14404 14109,14433 14001,14429 13892,14425 13777,14393 13668,14386 13612,14382 13548,14379 13505,14339 13522,14321 13540,14303 13557,14284 13716,14112 13853,13917 13960,13702 14013,13596 14059,13483 14093,13368 14127,13256 14154,13141 14174,13024 14215,12790 14222,12549 14195,12311 14167,12073 14103,11838 14007,11619 13911,11399 13783,11192 13629,11010 13475,10828 13296,10667 13099,10535 13049,10501 12999,10471 12947,10441 12901,10415 12854,10390 12807,10367 12830,10310 12855,10252 12880,10195 L 12880,10195 C 12899,10151 12886,10099 12846,10070 12800,10038 12735,10048 12702,10093 12661,10151 12621,10210 12583,10270 12542,10255 12501,10240 12460,10226 12234,10155 11996,10117 11759,10119 11699,10120 11642,10123 11584,10127 11526,10132 11468,10138 11410,10146 11294,10163 11179,10188 11066,10224 10953,10261 10843,10307 10740,10365 10636,10424 10539,10494 10451,10576 10364,10657 10287,10749 10222,10848 10157,10947 10105,11054 10064,11165 10023,11276 9994,11392 9982,11513 9971,11633 9977,11759 10011,11881 10028,11942 10053,12002 10086,12059 10119,12115 10160,12168 10209,12214 10306,12306 10434,12364 10560,12389 10623,12401 10687,12408 10752,12407 10817,12406 10882,12398 10945,12384 11074,12355 11192,12298 11297,12227 11402,12156 11494,12070 11576,11977 11618,11930 11656,11881 11691,11831 11728,11780 11761,11727 11793,11673 L 11795,11669 C 11802,11657 11808,11644 11813,11630 11848,11522 11790,11406 11682,11370 11574,11334 11457,11393 11422,11501 11361,11683 11252,11855 11110,11979 11038,12040 10958,12089 10873,12117 10787,12147 10694,12155 10602,12143 10512,12131 10429,12099 10362,12043 10329,12014 10300,11981 10275,11944 10252,11906 10233,11864 10218,11819 10189,11730 10182,11631 10189,11532 10197,11433 10222,11333 10256,11235 10292,11139 10339,11048 10395,10963 10452,10878 10519,10802 10596,10735 10748,10602 10935,10510 11135,10461 11234,10436 11337,10421 11440,10413 11492,10409 11544,10408 11596,10407 11648,10407 11701,10409 11751,10412 11954,10426 12155,10475 12345,10551 12365,10559 12384,10567 12403,10575 12383,10610 12364,10645 12345,10681 12239,10883 12142,11090 12051,11298 11870,11715 11712,12137 11556,12556 11399,12976 11245,13394 11076,13802 11049,13864 11023,13926 10996,13987 10907,13974 10817,13962 10726,13953 10669,13947 10613,13943 10555,13941 10497,13939 10438,13938 10374,13946 10342,13950 10309,13955 10271,13970 10252,13977 10232,13987 10211,14002 10190,14017 10169,14041 10155,14070 10142,14099 10138,14131 10140,14156 10141,14183 10147,14204 10153,14223 10166,14261 10184,14290 10201,14318 10237,14372 10275,14417 10314,14459 L 10373,14523 10435,14583 C 10495,14641 10558,14695 10626,14745 10580,14825 10534,14903 10484,14981 L 10484,14982 C 10458,15023 10464,15078 10501,15112 10543,15150 10607,15148 10646,15107 10712,15034 10775,14959 10834,14882 10892,14915 10950,14945 11011,14971 11226,15066 11460,15117 11695,15124 11930,15132 12165,15096 12388,15028 12499,14993 12609,14951 12714,14902 12820,14853 12922,14796 13020,14733 13119,14671 13229,14567 13320,14492 13325,14488 13329,14484 13334,14480 13448,14491 13563,14500 13677,14508 13788,14515 13829,14517 13940,14521 14052,14525 14227,14541 14342,14505 14370,14496 14327,14511 14309,14478 14295,14452 14373,14418 14322,14413 Z M 14322,14413 L 14322,14413 Z M 11938,12700 C 12098,12279 12247,11856 12398,11436 12486,11192 12574,10950 12668,10710 12740,10753 12810,10800 12877,10850 13040,10971 13188,11112 13317,11269 13381,11349 13439,11431 13492,11517 13546,11602 13594,11691 13634,11783 13717,11967 13770,12162 13800,12361 13828,12561 13825,12764 13800,12966 13786,13068 13767,13168 13740,13268 13734,13293 13727,13316 13720,13341 13712,13364 13705,13388 13697,13412 13680,13459 13661,13506 13641,13552 13559,13737 13447,13912 13315,14071 13245,14151 13172,14228 13094,14300 12851,14273 12608,14241 12366,14205 12148,14173 11931,14138 11714,14102 11595,14082 11475,14062 11355,14042 11371,14012 11386,13983 11401,13952 11605,13542 11776,13121 11938,12700 Z M 11938,12700 L 11938,12700 Z M 10570,14439 C 10494,14368 10415,14289 10364,14212 10352,14193 10342,14174 10337,14160 10336,14157 10335,14155 10335,14153 10337,14152 10339,14151 10341,14150 10355,14145 10376,14140 10398,14138 10444,14132 10496,14132 10548,14134 10600,14136 10653,14140 10707,14145 10776,14152 10845,14160 10915,14170 10854,14303 10791,14435 10723,14565 10670,14526 10619,14484 10570,14439 Z M 10570,14439 L 10570,14439 Z M 12857,14491 C 12772,14551 12683,14606 12591,14654 12499,14702 12404,14745 12307,14779 12111,14848 11905,14888 11699,14888 11595,14890 11492,14880 11391,14861 11290,14841 11191,14813 11095,14774 11048,14755 11003,14734 10958,14712 10994,14660 11030,14606 11063,14553 11134,14444 11199,14334 11260,14221 11618,14278 11977,14340 12338,14393 12521,14421 12704,14446 12888,14468 12878,14476 12868,14484 12857,14491 Z"/>
           </g>
          </g>
          <g class="com.sun.star.drawing.OpenBezierShape">
           <g id="id14">
            <rect class="BoundingBox" stroke="none" fill="none" x="13194" y="13631" width="2320" height="934"/>
            <path fill="none" stroke="rgb(117,198,217)" stroke-width="200" stroke-linejoin="round" d="M 13294,14399 C 13628,14350 14872,14833 15413,13731"/>
           </g>
          </g>
         </g>
         <g class="com.sun.star.drawing.OpenBezierShape">
          <g id="id15">
           <rect class="BoundingBox" stroke="none" fill="none" x="13194" y="14294" width="1218" height="269"/>
           <path fill="none" stroke="rgb(117,198,217)" stroke-width="200" stroke-linejoin="round" d="M 13294,14397 C 13466,14373 13878,14488 14311,14456"/>
          </g>
         </g>
         <g class="com.sun.star.drawing.ClosedBezierShape">
          <g id="id16">
           <rect class="BoundingBox" stroke="none" fill="none" x="14916" y="11560" width="2130" height="2756"/>
           <path fill="rgb(231,91,120)" stroke="none" d="M 15022,14210 L 15004,14230 15013,14204 15122,13873 C 15201,13866 15269,13911 15293,13990 L 15022,14210 Z M 15022,14210 L 15022,14210 Z M 15150,13781 C 15170,13691 15273,13405 15310,13285 L 15631,12297 C 15686,12121 15984,12255 16174,12175 L 16225,12239 C 16145,12304 15962,12350 16039,12408 16117,12467 16349,12169 16319,12374 L 16298,12523 C 16292,12563 16285,12577 16318,12597 16397,12642 16386,12420 16407,12359 L 16479,12385 C 16496,12497 16535,12584 16573,12689 16629,12842 16652,12868 16560,12945 16425,13055 16296,13161 16163,13270 16045,13368 15476,13850 15365,13928 L 15345,13906 C 15306,13857 15281,13826 15212,13802 15196,13796 15192,13797 15178,13792 L 15150,13781 Z M 15150,13781 L 15150,13781 Z M 16955,12146 C 16844,12184 16734,12217 16621,12253 16533,12282 16529,12354 16358,12238 16188,12123 16252,12089 16247,12000 16240,11883 16230,11766 16226,11647 L 16376,11755 C 16358,11833 16286,12038 16330,12064 16409,12085 16415,11929 16431,11872 16501,11621 16451,11597 16686,11757 16878,11888 16889,11878 16764,11968 16733,11991 16699,12016 16667,12040 16549,12126 16498,12132 16528,12205 16593,12216 16739,12082 16801,12043 16831,12052 16939,12128 16955,12146 Z M 16955,12146 L 16955,12146 Z M 14917,14216 L 14926,14268 C 14940,14278 14947,14287 14958,14295 14972,14303 14982,14305 14999,14314 L 15046,14305 16244,13309 C 16769,12870 16773,12989 16587,12488 16552,12397 16555,12360 16650,12329 16725,12305 16802,12282 16878,12257 16979,12224 17009,12237 17045,12154 L 17036,12106 C 17001,12077 16997,12066 16958,12040 16931,12022 16905,12006 16882,11988 16901,11958 16972,11876 16886,11798 L 16568,11583 C 16462,11538 16412,11642 16398,11660 L 16232,11560 16184,11569 C 16122,11634 16145,11665 16152,11772 16157,11852 16165,11930 16169,12009 16174,12115 16120,12116 16023,12118 15586,12129 15609,12116 15522,12377 15477,12512 14940,14176 14917,14216 Z"/>
          </g>
         </g>
         <g class="com.sun.star.drawing.ClosedBezierShape">
          <g id="id17">
           <rect class="BoundingBox" stroke="none" fill="none" x="15013" y="12175" width="1611" height="2037"/>
           <path fill="rgb(255,255,255)" stroke="none" d="M 15014,14205 L 15022,14211 15293,13991 C 15269,13912 15202,13867 15123,13874 L 15014,14205 Z M 15014,14205 L 15014,14205 Z M 15677,12653 C 15649,12592 15707,12560 15746,12611 15776,12649 15787,12675 15823,12715 15937,12840 16011,12810 16031,12843 16066,12900 15991,12908 15952,12896 15853,12868 15720,12751 15677,12653 Z M 15677,12653 L 15677,12653 Z M 15775,12509 C 15749,12450 15805,12416 15845,12467 15874,12504 15885,12531 15921,12570 16035,12694 16109,12665 16129,12699 16168,12763 16082,12791 15941,12696 15892,12662 15807,12579 15775,12509 Z M 15775,12509 L 15775,12509 Z M 15150,13782 L 15178,13793 C 15192,13797 15197,13797 15213,13803 15282,13827 15306,13858 15346,13907 L 15366,13929 C 15476,13851 16046,13368 16164,13270 16297,13161 16426,13055 16560,12945 16653,12869 16629,12843 16574,12690 16535,12584 16498,12497 16480,12385 L 16408,12359 C 16387,12420 16398,12642 16319,12597 16286,12577 16293,12563 16299,12523 L 16321,12374 C 16351,12170 16117,12467 16039,12408 15962,12350 16146,12304 16226,12239 L 16175,12175 C 15985,12255 15687,12122 15631,12297 L 15310,13285 C 15273,13405 15171,13691 15150,13782 Z"/>
          </g>
         </g>
         <g class="com.sun.star.drawing.ClosedBezierShape">
          <g id="id18">
           <rect class="BoundingBox" stroke="none" fill="none" x="15668" y="12586" width="374" height="317"/>
           <path fill="rgb(231,91,120)" stroke="none" d="M 15822,12715 C 15786,12675 15775,12649 15744,12611 15705,12561 15648,12592 15675,12653 15718,12751 15852,12869 15952,12897 15991,12908 16066,12901 16031,12844 16011,12810 15936,12840 15822,12715 Z"/>
          </g>
         </g>
         <g class="com.sun.star.drawing.ClosedBezierShape">
          <g id="id19">
           <rect class="BoundingBox" stroke="none" fill="none" x="15767" y="12442" width="372" height="318"/>
           <path fill="rgb(231,91,120)" stroke="none" d="M 15919,12570 C 15883,12531 15872,12503 15843,12466 15803,12416 15748,12450 15773,12508 15805,12580 15890,12662 15940,12697 16081,12792 16167,12763 16128,12699 16108,12665 16035,12695 15919,12570 Z"/>
          </g>
         </g>
         <g class="com.sun.star.drawing.ClosedBezierShape">
          <g id="id20">
           <rect class="BoundingBox" stroke="none" fill="none" x="14927" y="14267" width="74" height="60"/>
           <path fill="rgb(117,198,217)" stroke="none" d="M 14937,14326 L 15000,14314 C 14984,14305 14973,14303 14959,14294 14947,14286 14940,14276 14927,14267 L 14937,14326 Z"/>
          </g>
         </g>
         <g class="com.sun.star.drawing.PolyPolygonShape">
          <g id="id21">
           <rect class="BoundingBox" stroke="none" fill="none" x="15003" y="14203" width="21" height="29"/>
           <path fill="rgb(121,121,121)" stroke="none" d="M 15023,14210 L 15014,14204 15004,14231 15023,14210 Z"/>
          </g>
         </g>
         <g class="com.sun.star.drawing.ClosedBezierShape">
          <g id="id22">
           <rect class="BoundingBox" stroke="none" fill="none" x="6757" y="9122" width="1056" height="1596"/>
           <path fill="rgb(117,198,217)" stroke="none" d="M 7785,9398 C 7850,9285 7793,9141 7673,9125 7517,9106 7463,9259 7421,9333 7200,9674 6989,9992 6885,10222 6629,10787 6769,10925 7206,10336 7361,10126 7540,9810 7785,9398 Z"/>
          </g>
         </g>
        </g>
       </g>
      </g>
     </g>
    </g>
   </g>
  </g>
 </g>
</svg>