<?xml version="1.0" encoding="UTF-8"?>
<!DOCTYPE svg PUBLIC "-//W3C//DTD SVG 1.1//EN" "http://www.w3.org/Graphics/SVG/1.1/DTD/svg11.dtd">
<svg version="1.2" width="210mm" height="297mm" viewBox="0 0 21000 29700" preserveAspectRatio="xMidYMid" fill-rule="evenodd" stroke-width="28.222" stroke-linejoin="round" xmlns="http://www.w3.org/2000/svg" xmlns:ooo="http://xml.openoffice.org/svg/export" xmlns:xlink="http://www.w3.org/1999/xlink" xmlns:presentation="http://sun.com/xmlns/staroffice/presentation" xmlns:smil="http://www.w3.org/2001/SMIL20/" xmlns:anim="urn:oasis:names:tc:opendocument:xmlns:animation:1.0" xml:space="preserve">
 <defs class="ClipPathGroup">
  <clipPath id="presentation_clip_path" clipPathUnits="userSpaceOnUse">
   <rect x="0" y="0" width="21000" height="29700"/>
  </clipPath>
  <clipPath id="presentation_clip_path_shrink" clipPathUnits="userSpaceOnUse">
   <rect x="21" y="29" width="20958" height="29641"/>
  </clipPath>
 </defs>
 <defs class="TextShapeIndex">
  <g ooo:slide="id1" ooo:id-list="id3 id4 id5 id6 id7 id8 id9 id10 id11 id12 id13 id14 id15 id16 id17"/>
 </defs>
 <defs class="EmbeddedBulletChars">
  <g id="bullet-char-template-57356" transform="scale(0.00048828125,-0.00048828125)">
   <path d="M 580,1141 L 1163,571 580,0 -4,571 580,1141 Z"/>
  </g>
  <g id="bullet-char-template-57354" transform="scale(0.00048828125,-0.00048828125)">
   <path d="M 8,1128 L 1137,1128 1137,0 8,0 8,1128 Z"/>
  </g>
  <g id="bullet-char-template-10146" transform="scale(0.00048828125,-0.00048828125)">
   <path d="M 174,0 L 602,739 174,1481 1456,739 174,0 Z M 1358,739 L 309,1346 659,739 1358,739 Z"/>
  </g>
  <g id="bullet-char-template-10132" transform="scale(0.00048828125,-0.00048828125)">
   <path d="M 2015,739 L 1276,0 717,0 1260,543 174,543 174,936 1260,936 717,1481 1274,1481 2015,739 Z"/>
  </g>
  <g id="bullet-char-template-10007" transform="scale(0.00048828125,-0.00048828125)">
   <path d="M 0,-2 C -7,14 -16,27 -25,37 L 356,567 C 262,823 215,952 215,954 215,979 228,992 255,992 264,992 276,990 289,987 310,991 331,999 354,1012 L 381,999 492,748 772,1049 836,1024 860,1049 C 881,1039 901,1025 922,1006 886,937 835,863 770,784 769,783 710,716 594,584 L 774,223 C 774,196 753,168 711,139 L 727,119 C 717,90 699,76 672,76 641,76 570,178 457,381 L 164,-76 C 142,-110 111,-127 72,-127 30,-127 9,-110 8,-76 1,-67 -2,-52 -2,-32 -2,-23 -1,-13 0,-2 Z"/>
  </g>
  <g id="bullet-char-template-10004" transform="scale(0.00048828125,-0.00048828125)">
   <path d="M 285,-33 C 182,-33 111,30 74,156 52,228 41,333 41,471 41,549 55,616 82,672 116,743 169,778 240,778 293,778 328,747 346,684 L 369,508 C 377,444 397,411 428,410 L 1163,1116 C 1174,1127 1196,1133 1229,1133 1271,1133 1292,1118 1292,1087 L 1292,965 C 1292,929 1282,901 1262,881 L 442,47 C 390,-6 338,-33 285,-33 Z"/>
  </g>
  <g id="bullet-char-template-9679" transform="scale(0.00048828125,-0.00048828125)">
   <path d="M 813,0 C 632,0 489,54 383,161 276,268 223,411 223,592 223,773 276,916 383,1023 489,1130 632,1184 813,1184 992,1184 1136,1130 1245,1023 1353,916 1407,772 1407,592 1407,412 1353,268 1245,161 1136,54 992,0 813,0 Z"/>
  </g>
  <g id="bullet-char-template-8226" transform="scale(0.00048828125,-0.00048828125)">
   <path d="M 346,457 C 273,457 209,483 155,535 101,586 74,649 74,723 74,796 101,859 155,911 209,963 273,989 346,989 419,989 480,963 531,910 582,859 608,796 608,723 608,648 583,586 532,535 482,483 420,457 346,457 Z"/>
  </g>
  <g id="bullet-char-template-8211" transform="scale(0.00048828125,-0.00048828125)">
   <path d="M -4,459 L 1135,459 1135,606 -4,606 -4,459 Z"/>
  </g>
  <g id="bullet-char-template-61548" transform="scale(0.00048828125,-0.00048828125)">
   <path d="M 173,740 C 173,903 231,1043 346,1159 462,1274 601,1332 765,1332 928,1332 1067,1274 1183,1159 1299,1043 1357,903 1357,740 1357,577 1299,437 1183,322 1067,206 928,148 765,148 601,148 462,206 346,322 231,437 173,577 173,740 Z"/>
  </g>
 </defs>
 <g>
  <g id="id2" class="Master_Slide">
   <g id="bg-id2" class="Background"/>
   <g id="bo-id2" class="BackgroundObjects"/>
  </g>
 </g>
 <g class="SlideGroup">
  <g>
   <g id="container-id1">
    <g id="id1" class="Slide" clip-path="url(#presentation_clip_path)">
     <g class="Page">
      <g class="Group">
       <g class="com.sun.star.drawing.ClosedBezierShape">
        <g id="id3">
         <rect class="BoundingBox" stroke="none" fill="none" x="9991" y="18737" width="217" height="133"/>
         <path fill="rgb(199,199,198)" stroke="none" d="M 10026,18799 C 10201,18886 9801,18884 10116,18833 L 10206,18799 C 10099,18707 10137,18725 10026,18799 Z"/>
        </g>
       </g>
       <g class="Group">
        <g class="Group">
         <g class="com.sun.star.drawing.ClosedBezierShape">
          <g id="id4">
           <rect class="BoundingBox" stroke="none" fill="none" x="3436" y="15718" width="4687" height="2968"/>
           <path fill="rgb(231,91,120)" stroke="none" d="M 3542,17115 C 3538,17089 3535,17056 3535,17027 3538,16921 3575,16800 3634,16672 3754,16397 3974,16100 4157,15895 4124,16130 4132,16470 4143,16836 4154,17188 4161,17563 4139,17874 4102,17892 4073,17910 4040,17925 3985,17958 3934,17987 3853,18024 3637,18127 3535,18273 3516,18401 3509,18460 3516,18515 3542,18559 3568,18606 3608,18643 3659,18665 3718,18687 3791,18687 3875,18658 3908,18650 3941,18636 3970,18614 3996,18599 4022,18581 4047,18562 4263,18398 4370,18145 4417,17848 4494,17812 4571,17768 4641,17713 4736,17639 4813,17541 4860,17405 4882,17347 4794,17299 4769,17376 4729,17493 4663,17574 4582,17639 4534,17676 4483,17705 4432,17731 4469,17427 4450,17082 4432,16756 4414,16430 4399,16119 4439,15881 4443,15848 4439,15818 4425,15796 4414,15774 4395,15756 4377,15745 4355,15734 4337,15727 4315,15727 4260,15717 4201,15727 4165,15745 L 4154,15756 C 3956,15965 3689,16309 3546,16635 3483,16771 3447,16902 3440,17023 3440,17060 3443,17096 3447,17129 3447,17133 3450,17137 3450,17140 3465,17218 3502,17288 3560,17347 3593,17379 3637,17405 3689,17427 3732,17449 3765,17449 3791,17442 3809,17434 3820,17423 3828,17405 3839,17390 3839,17376 3835,17358 3831,17332 3809,17299 3776,17277 3751,17259 3725,17251 3692,17240 3637,17222 3568,17195 3542,17115 Z M 3542,17115 L 3542,17115 Z M 3923,18529 C 3828,18588 3747,18595 3692,18573 3663,18562 3641,18544 3626,18515 3612,18489 3604,18452 3612,18416 3623,18313 3710,18196 3894,18112 3978,18072 4033,18042 4088,18009 L 4128,17987 C 4099,18247 4036,18445 3923,18529 Z M 3923,18529 L 3923,18529 Z M 5296,16774 C 5289,16738 5267,16705 5238,16679 5219,16664 5197,16653 5175,16646 5128,16631 5076,16639 5036,16679 4857,16851 4762,17148 4762,17427 4762,17530 4776,17632 4805,17724 4835,17815 4879,17899 4937,17962 4992,18020 5058,18061 5139,18079 5238,18105 5340,18097 5424,18039 5509,17980 5571,17878 5611,17760 5684,17753 5776,17720 5861,17650 5927,17596 5989,17519 6030,17409 6052,17343 5960,17314 5938,17376 5905,17467 5854,17533 5799,17577 5747,17621 5688,17647 5637,17658 5666,17537 5673,17401 5662,17273 5651,17144 5622,17023 5571,16932 5509,16818 5417,16752 5296,16774 Z M 5296,16774 L 5296,16774 Z M 5234,16913 C 5267,16873 5314,16855 5366,16869 5417,16880 5457,16921 5487,16979 5531,17056 5556,17162 5567,17281 5574,17401 5567,17526 5545,17639 L 5538,17665 C 5402,17650 5307,17574 5249,17475 5208,17409 5183,17332 5172,17255 5161,17181 5164,17104 5179,17038 5190,16987 5208,16943 5234,16913 Z M 5234,16913 L 5234,16913 Z M 5080,17288 C 5095,17368 5124,17453 5164,17522 5238,17643 5351,17735 5509,17757 5476,17848 5424,17925 5362,17965 5311,17998 5252,18002 5197,17962 5142,17925 5102,17845 5080,17746 5058,17639 5054,17515 5065,17390 L 5080,17288 Z M 5080,17288 L 5080,17288 Z M 5307,16309 C 5362,16251 5417,16199 5446,16170 5483,16133 5479,16060 5454,16002 5443,15983 5435,15969 5424,15958 5410,15939 5391,15925 5373,15921 5340,15914 5307,15921 5282,15958 5238,16020 5194,16086 5161,16148 5113,16229 5076,16305 5058,16353 5047,16379 5047,16401 5051,16415 5058,16434 5065,16445 5080,16452 5091,16459 5102,16463 5117,16463 5135,16463 5157,16452 5172,16437 L 5307,16309 Z M 5307,16309 L 5307,16309 Z M 6312,17973 C 6301,17984 6290,17980 6286,17969 6268,17932 6249,17859 6238,17764 6224,17614 6224,17420 6246,17226 6253,17133 6268,17045 6282,16961 6293,16906 6253,16858 6198,16833 6176,16822 6150,16815 6125,16811 6099,16807 6074,16811 6052,16815 6008,16829 5975,16862 5975,16917 5949,17100 5938,17266 5938,17405 5938,17610 5964,17771 6011,17885 6059,18006 6136,18075 6231,18090 6242,18094 6253,18094 6264,18094 6290,18094 6301,18090 6323,18079 6403,18035 6476,17918 6539,17786 6601,17643 6656,17489 6681,17409 6703,17343 6612,17314 6590,17376 6564,17453 6513,17607 6451,17746 6407,17845 6356,17932 6312,17973 Z M 6312,17973 L 6312,17973 Z M 6147,16375 C 6128,16364 6114,16357 6096,16357 6074,16353 6052,16357 6037,16364 6015,16371 6000,16382 5989,16404 5956,16467 6033,16569 6092,16650 6106,16668 6117,16686 6128,16697 L 6161,16745 6198,16701 6260,16635 C 6334,16558 6407,16481 6370,16415 6356,16390 6337,16375 6312,16368 6293,16360 6275,16360 6257,16364 6242,16368 6224,16375 6209,16382 L 6183,16401 C 6172,16390 6161,16382 6147,16375 Z M 6147,16375 L 6147,16375 Z M 7674,17969 C 7612,18006 7593,17936 7586,17863 7579,17771 7579,17650 7586,17515 7601,17255 7637,16954 7699,16767 7718,16701 7685,16642 7634,16609 7619,16598 7597,16587 7579,16580 7557,16573 7538,16573 7516,16573 7469,16576 7429,16602 7418,16653 L 7407,16694 7377,16811 C 7374,16807 7374,16804 7374,16800 7352,16741 7322,16694 7282,16664 7253,16642 7223,16635 7190,16631 6934,16602 6755,16796 6659,17053 6616,17173 6590,17310 6583,17442 6575,17570 6590,17698 6627,17804 6681,17980 6795,18097 6971,18083 7117,18072 7234,17823 7308,17585 7330,17837 7410,18020 7568,18072 7571,18072 7571,18072 7575,18075 L 7582,18075 C 7685,18101 7784,18028 7868,17907 7967,17775 8055,17577 8113,17401 8139,17321 8047,17292 8022,17376 7963,17544 7883,17727 7791,17852 7751,17907 7710,17947 7674,17969 Z M 7674,17969 L 7674,17969 Z M 7161,16749 C 7201,16727 7227,16738 7249,16767 7260,16782 7271,16807 7282,16833 7308,16906 7319,17009 7322,17115 7319,17137 7315,17155 7315,17177 7282,17343 7143,17973 6963,17987 6930,17991 6905,17947 6887,17874 6865,17779 6861,17636 6876,17486 6887,17336 6919,17177 6967,17042 7018,16899 7084,16785 7161,16749 Z"/>
           <path fill="none" stroke="rgb(231,91,120)" stroke-width="8" stroke-linejoin="miter" d="M 3542,17115 C 3538,17089 3535,17056 3535,17027 3538,16921 3575,16800 3634,16672 3754,16397 3974,16100 4157,15895 4124,16130 4132,16470 4143,16836 4154,17188 4161,17563 4139,17874 4102,17892 4073,17910 4040,17925 3985,17958 3934,17987 3853,18024 3637,18127 3535,18273 3516,18401 3509,18460 3516,18515 3542,18559 3568,18606 3608,18643 3659,18665 3718,18687 3791,18687 3875,18658 3908,18650 3941,18636 3970,18614 3996,18599 4022,18581 4047,18562 4263,18398 4370,18145 4417,17848 4494,17812 4571,17768 4641,17713 4736,17639 4813,17541 4860,17405 4882,17347 4794,17299 4769,17376 4729,17493 4663,17574 4582,17639 4534,17676 4483,17705 4432,17731 4469,17427 4450,17082 4432,16756 4414,16430 4399,16119 4439,15881 4443,15848 4439,15818 4425,15796 4414,15774 4395,15756 4377,15745 4355,15734 4337,15727 4315,15727 4260,15717 4201,15727 4165,15745 L 4154,15756 C 3956,15965 3689,16309 3546,16635 3483,16771 3447,16902 3440,17023 3440,17060 3443,17096 3447,17129 3447,17133 3450,17137 3450,17140 3465,17218 3502,17288 3560,17347 3593,17379 3637,17405 3689,17427 3732,17449 3765,17449 3791,17442 3809,17434 3820,17423 3828,17405 3839,17390 3839,17376 3835,17358 3831,17332 3809,17299 3776,17277 3751,17259 3725,17251 3692,17240 3637,17222 3568,17195 3542,17115 Z"/>
           <path fill="none" stroke="rgb(231,91,120)" stroke-width="8" stroke-linejoin="miter" d="M 3923,18529 C 3828,18588 3747,18595 3692,18573 3663,18562 3641,18544 3626,18515 3612,18489 3604,18452 3612,18416 3623,18313 3710,18196 3894,18112 3978,18072 4033,18042 4088,18009 L 4128,17987 C 4099,18247 4036,18445 3923,18529 Z"/>
           <path fill="none" stroke="rgb(231,91,120)" stroke-width="8" stroke-linejoin="miter" d="M 5296,16774 C 5289,16738 5267,16705 5238,16679 5219,16664 5197,16653 5175,16646 5128,16631 5076,16639 5036,16679 4857,16851 4762,17148 4762,17427 4762,17530 4776,17632 4805,17724 4835,17815 4879,17899 4937,17962 4992,18020 5058,18061 5139,18079 5238,18105 5340,18097 5424,18039 5509,17980 5571,17878 5611,17760 5684,17753 5776,17720 5861,17650 5927,17596 5989,17519 6030,17409 6052,17343 5960,17314 5938,17376 5905,17467 5854,17533 5799,17577 5747,17621 5688,17647 5637,17658 5666,17537 5673,17401 5662,17273 5651,17144 5622,17023 5571,16932 5509,16818 5417,16752 5296,16774 Z"/>
           <path fill="none" stroke="rgb(231,91,120)" stroke-width="8" stroke-linejoin="miter" d="M 5234,16913 C 5267,16873 5314,16855 5366,16869 5417,16880 5457,16921 5487,16979 5531,17056 5556,17162 5567,17281 5574,17401 5567,17526 5545,17639 L 5538,17665 C 5402,17650 5307,17574 5249,17475 5208,17409 5183,17332 5172,17255 5161,17181 5164,17104 5179,17038 5190,16987 5208,16943 5234,16913 Z"/>
           <path fill="none" stroke="rgb(231,91,120)" stroke-width="8" stroke-linejoin="miter" d="M 5080,17288 C 5095,17368 5124,17453 5164,17522 5238,17643 5351,17735 5509,17757 5476,17848 5424,17925 5362,17965 5311,17998 5252,18002 5197,17962 5142,17925 5102,17845 5080,17746 5058,17639 5054,17515 5065,17390 L 5080,17288 Z"/>
           <path fill="none" stroke="rgb(231,91,120)" stroke-width="8" stroke-linejoin="miter" d="M 5307,16309 C 5362,16251 5417,16199 5446,16170 5483,16133 5479,16060 5454,16002 5443,15983 5435,15969 5424,15958 5410,15939 5391,15925 5373,15921 5340,15914 5307,15921 5282,15958 5238,16020 5194,16086 5161,16148 5113,16229 5076,16305 5058,16353 5047,16379 5047,16401 5051,16415 5058,16434 5065,16445 5080,16452 5091,16459 5102,16463 5117,16463 5135,16463 5157,16452 5172,16437 L 5307,16309 Z"/>
           <path fill="none" stroke="rgb(231,91,120)" stroke-width="8" stroke-linejoin="miter" d="M 6312,17973 C 6301,17984 6290,17980 6286,17969 6268,17932 6249,17859 6238,17764 6224,17614 6224,17420 6246,17226 6253,17133 6268,17045 6282,16961 6293,16906 6253,16858 6198,16833 6176,16822 6150,16815 6125,16811 6099,16807 6074,16811 6052,16815 6008,16829 5975,16862 5975,16917 5949,17100 5938,17266 5938,17405 5938,17610 5964,17771 6011,17885 6059,18006 6136,18075 6231,18090 6242,18094 6253,18094 6264,18094 6290,18094 6301,18090 6323,18079 6403,18035 6476,17918 6539,17786 6601,17643 6656,17489 6681,17409 6703,17343 6612,17314 6590,17376 6564,17453 6513,17607 6451,17746 6407,17845 6356,17932 6312,17973 Z"/>
           <path fill="none" stroke="rgb(231,91,120)" stroke-width="8" stroke-linejoin="miter" d="M 6147,16375 C 6128,16364 6114,16357 6096,16357 6074,16353 6052,16357 6037,16364 6015,16371 6000,16382 5989,16404 5956,16467 6033,16569 6092,16650 6106,16668 6117,16686 6128,16697 L 6161,16745 6198,16701 6260,16635 C 6334,16558 6407,16481 6370,16415 6356,16390 6337,16375 6312,16368 6293,16360 6275,16360 6257,16364 6242,16368 6224,16375 6209,16382 L 6183,16401 C 6172,16390 6161,16382 6147,16375 Z"/>
           <path fill="none" stroke="rgb(231,91,120)" stroke-width="8" stroke-linejoin="miter" d="M 7674,17969 C 7612,18006 7593,17936 7586,17863 7579,17771 7579,17650 7586,17515 7601,17255 7637,16954 7699,16767 7718,16701 7685,16642 7634,16609 7619,16598 7597,16587 7579,16580 7557,16573 7538,16573 7516,16573 7469,16576 7429,16602 7418,16653 L 7407,16694 7377,16811 C 7374,16807 7374,16804 7374,16800 7352,16741 7322,16694 7282,16664 7253,16642 7223,16635 7190,16631 6934,16602 6755,16796 6659,17053 6616,17173 6590,17310 6583,17442 6575,17570 6590,17698 6627,17804 6681,17980 6795,18097 6971,18083 7117,18072 7234,17823 7308,17585 7330,17837 7410,18020 7568,18072 7571,18072 7571,18072 7575,18075 L 7582,18075 C 7685,18101 7784,18028 7868,17907 7967,17775 8055,17577 8113,17401 8139,17321 8047,17292 8022,17376 7963,17544 7883,17727 7791,17852 7751,17907 7710,17947 7674,17969 Z"/>
           <path fill="none" stroke="rgb(231,91,120)" stroke-width="8" stroke-linejoin="miter" d="M 7161,16749 C 7201,16727 7227,16738 7249,16767 7260,16782 7271,16807 7282,16833 7308,16906 7319,17009 7322,17115 7319,17137 7315,17155 7315,17177 7282,17343 7143,17973 6963,17987 6930,17991 6905,17947 6887,17874 6865,17779 6861,17636 6876,17486 6887,17336 6919,17177 6967,17042 7018,16899 7084,16785 7161,16749 Z"/>
          </g>
         </g>
         <g class="com.sun.star.drawing.ClosedBezierShape">
          <g id="id5">
           <rect class="BoundingBox" stroke="none" fill="none" x="8456" y="15687" width="8657" height="2691"/>
           <path fill="rgb(117,198,217)" stroke="none" d="M 9261,18098 C 9254,18066 9250,18014 9247,17978 9228,17798 9228,17493 9236,17182 9250,16761 9283,16317 9327,16112 9342,16046 9309,15998 9265,15969 9243,15958 9221,15951 9195,15947 9170,15943 9144,15947 9122,15958 9082,15972 9056,16005 9056,16057 9009,16269 8972,16578 8954,16882 8924,17306 8921,17732 8939,17901 L 8943,17923 C 8950,18000 8957,18055 8990,18102 9049,18186 9254,18201 9349,18197 9697,18194 9957,17981 10115,17684 10213,17497 10276,17281 10298,17057 10316,16834 10298,16607 10235,16402 10115,16002 9836,15691 9378,15691 9074,15691 8844,15786 8686,15921 8595,16005 8525,16104 8492,16207 8457,16313 8449,16420 8478,16519 8511,16633 8584,16732 8705,16801 8749,16827 8785,16830 8811,16819 8825,16812 8840,16801 8847,16786 8855,16775 8858,16757 8858,16743 8855,16713 8836,16677 8796,16651 8774,16636 8749,16625 8719,16614 8661,16592 8591,16567 8565,16475 8547,16402 8554,16320 8580,16240 8609,16152 8668,16068 8752,15994 8891,15870 9100,15782 9378,15786 9638,15786 9789,15980 9876,16218 9939,16398 9972,16614 9972,16838 9975,17061 9942,17292 9887,17493 9796,17817 9638,18066 9422,18098 9371,18102 9316,18106 9261,18098 Z M 9261,18098 L 9261,18098 Z M 10720,17592 C 10896,17523 11020,17354 11086,17186 11115,17109 11130,17028 11134,16959 11134,16882 11123,16816 11090,16768 11060,16721 11016,16691 10958,16688 10782,16673 10643,16786 10550,16955 10495,17050 10462,17164 10444,17281 10426,17398 10422,17519 10444,17632 10484,17860 10605,18055 10826,18113 10972,18153 11108,18098 11221,17978 11339,17857 11434,17665 11511,17435 11536,17361 11441,17336 11423,17402 11350,17621 11258,17802 11152,17912 11071,18000 10980,18044 10881,18029 10804,18011 10756,17897 10734,17743 10727,17695 10720,17647 10720,17592 Z M 10720,17592 L 10720,17592 Z M 10954,16783 C 10980,16786 10998,16797 11013,16819 11031,16852 11038,16900 11038,16955 11035,17017 11020,17083 10994,17153 10943,17288 10852,17420 10720,17490 10720,17442 10723,17398 10727,17354 10742,17222 10767,17090 10804,16984 10844,16867 10899,16783 10954,16783 Z M 10954,16783 L 10954,16783 Z M 11701,17208 C 11782,17109 11954,16823 12086,16534 12155,16376 12210,16214 12236,16082 12258,15936 12243,15819 12155,15760 12137,15749 12119,15742 12100,15734 11928,15691 11771,15866 11654,16145 11569,16342 11500,16592 11460,16849 11423,17101 11408,17361 11434,17577 11467,17886 11580,18109 11796,18124 11921,18139 12027,18018 12111,17864 12188,17721 12251,17548 12287,17431 12309,17369 12221,17336 12199,17402 12163,17512 12104,17680 12027,17817 11958,17945 11877,18044 11796,18029 11738,18014 11705,17860 11694,17643 11687,17515 11690,17365 11701,17208 Z M 11701,17208 L 11701,17208 Z M 12104,15841 C 12152,15874 12159,15958 12141,16068 12119,16189 12064,16342 11998,16493 11910,16691 11800,16885 11720,17017 L 11731,16896 C 11767,16633 11818,16373 11884,16170 11947,15969 12016,15833 12082,15830 L 12104,15841 Z M 12104,15841 L 12104,15841 Z M 12573,18000 C 12562,18011 12551,18007 12547,17996 12529,17959 12511,17886 12500,17791 12485,17640 12485,17446 12507,17252 12514,17160 12529,17072 12543,16988 12554,16933 12514,16885 12459,16860 12437,16849 12412,16841 12386,16838 12360,16834 12335,16838 12313,16841 12269,16856 12236,16889 12236,16944 12210,17127 12199,17292 12199,17431 12199,17636 12225,17798 12272,17912 12320,18033 12397,18102 12492,18117 12503,18120 12514,18120 12525,18120 12551,18120 12562,18117 12584,18106 12664,18062 12738,17945 12800,17813 12862,17669 12917,17515 12943,17435 12965,17369 12873,17339 12851,17402 12825,17479 12774,17632 12712,17773 12668,17871 12617,17959 12573,18000 Z M 12573,18000 L 12573,18000 Z M 12470,16457 C 12525,16398 12580,16346 12609,16317 12646,16280 12642,16207 12617,16148 12606,16130 12598,16115 12587,16104 12573,16086 12554,16071 12536,16068 12503,16060 12470,16068 12445,16104 12401,16167 12357,16232 12324,16295 12276,16376 12240,16453 12221,16501 12210,16526 12210,16548 12214,16563 12221,16581 12229,16592 12243,16600 12254,16607 12265,16611 12280,16611 12298,16611 12320,16600 12335,16585 L 12470,16457 Z M 12470,16457 L 12470,16457 Z M 13371,16783 C 13393,16786 13415,16790 13430,16797 13474,16812 13507,16845 13525,16889 13529,16896 13532,16904 13532,16911 13558,16992 13510,17046 13470,17090 13455,17109 13444,17120 13437,17134 13404,17182 13404,17230 13415,17263 13422,17284 13433,17299 13452,17310 13470,17321 13492,17321 13518,17314 13547,17299 13580,17266 13609,17189 13627,17145 13638,17098 13642,17046 13646,16992 13642,16937 13624,16885 L 13613,16849 C 13584,16786 13536,16735 13466,16706 13441,16699 13408,16691 13375,16688 13203,16673 13060,16786 12968,16955 12917,17050 12880,17164 12862,17281 12844,17398 12844,17519 12862,17632 12902,17860 13023,18055 13243,18113 13393,18153 13536,18098 13660,17974 13785,17853 13891,17662 13968,17431 13986,17376 13895,17343 13876,17402 13803,17618 13708,17795 13595,17908 13503,17996 13404,18044 13298,18025 13221,18011 13173,17897 13151,17743 13133,17625 13133,17490 13144,17354 13159,17222 13184,17090 13221,16984 13265,16867 13316,16783 13371,16783 Z M 13371,16783 L 13371,16783 Z M 14250,18000 C 14239,18011 14228,18007 14224,17996 14206,17959 14188,17886 14177,17791 14162,17640 14162,17446 14184,17252 14191,17160 14206,17072 14221,16988 14232,16933 14191,16885 14136,16860 14115,16849 14089,16841 14063,16838 14038,16834 14012,16838 13990,16841 13946,16856 13913,16889 13913,16944 13887,17127 13876,17292 13876,17431 13876,17636 13902,17798 13950,17912 13997,18033 14074,18102 14169,18117 14180,18120 14191,18120 14202,18120 14228,18120 14239,18117 14261,18106 14342,18062 14415,17945 14477,17813 14539,17669 14594,17515 14620,17435 14642,17369 14550,17339 14528,17402 14503,17479 14451,17632 14389,17773 14345,17871 14294,17959 14250,18000 Z M 14250,18000 L 14250,18000 Z M 14085,16402 C 14067,16391 14052,16384 14034,16384 14012,16380 13990,16384 13975,16391 13953,16398 13939,16409 13928,16431 13895,16493 13972,16596 14030,16677 14045,16695 14056,16713 14067,16724 L 14100,16772 14136,16728 14199,16662 C 14272,16585 14345,16508 14309,16442 14294,16417 14276,16402 14250,16395 14232,16387 14213,16387 14195,16391 14180,16395 14162,16402 14147,16409 L 14122,16428 C 14111,16417 14100,16409 14085,16402 Z M 14085,16402 L 14085,16402 Z M 15613,17996 C 15551,18033 15533,17963 15525,17890 15518,17798 15518,17676 15525,17541 15540,17281 15577,16981 15639,16794 15657,16728 15624,16669 15573,16636 15558,16625 15536,16614 15518,16607 15496,16600 15478,16600 15456,16600 15408,16603 15368,16629 15357,16680 L 15346,16721 15317,16838 C 15313,16834 15313,16830 15313,16827 15291,16768 15262,16721 15221,16691 15192,16669 15163,16662 15130,16658 14873,16629 14693,16823 14598,17079 14554,17200 14528,17336 14521,17468 14514,17596 14528,17725 14565,17831 14620,18007 14733,18124 14909,18109 15057,18098 15174,17849 15247,17610 15269,17864 15350,18047 15507,18098 15511,18098 15511,18098 15514,18102 L 15522,18102 C 15624,18128 15723,18055 15807,17934 15906,17802 15994,17603 16053,17427 16078,17347 15987,17317 15961,17402 15903,17570 15822,17754 15730,17879 15690,17934 15650,17974 15613,17996 Z M 15613,17996 L 15613,17996 Z M 15101,16775 C 15141,16753 15167,16764 15189,16794 15199,16808 15210,16834 15221,16860 15247,16933 15258,17035 15262,17142 15258,17164 15254,17182 15254,17204 15221,17369 15082,18000 14902,18014 14869,18018 14843,17974 14825,17901 14803,17806 14799,17662 14814,17512 14825,17361 14858,17204 14906,17068 14958,16926 15024,16812 15101,16775 Z M 15101,16775 L 15101,16775 Z M 15961,17402 C 15939,17479 16034,17493 16053,17431 L 16089,17314 16093,17299 C 16144,17361 16203,17420 16261,17479 16349,17559 16430,17640 16474,17725 L 16423,17732 C 16327,17743 16236,17758 16148,17784 15998,17827 15917,17923 15892,18025 15884,18069 15884,18113 15895,18153 15906,18197 15925,18238 15954,18271 16009,18329 16089,18369 16192,18373 16265,18373 16327,18358 16390,18329 16522,18278 16620,18194 16690,18102 16774,17989 16807,17857 16800,17743 16935,17691 17045,17603 17104,17431 17126,17369 17038,17339 17012,17402 16968,17526 16884,17599 16782,17647 16730,17486 16591,17354 16456,17230 16353,17134 16254,17043 16214,16951 16199,16915 16188,16874 16185,16838 16174,16746 16203,16629 16313,16633 16353,16633 16390,16644 16423,16658 16452,16673 16481,16695 16503,16724 16518,16753 16522,16783 16522,16808 16518,16841 16500,16871 16481,16893 16445,16926 16441,16966 16452,16999 16463,17024 16481,17043 16500,17050 16525,17061 16554,17061 16580,17043 16609,17024 16639,16981 16642,16904 16653,16753 16595,16636 16463,16574 16419,16552 16368,16537 16316,16537 16265,16534 16214,16545 16166,16563 16042,16607 15939,16721 15936,16893 15932,17010 15965,17109 16020,17193 16012,17230 16001,17259 15994,17288 15987,17325 15972,17372 15961,17402 Z M 15961,17402 L 15961,17402 Z M 16503,17820 C 16529,17948 16511,18051 16467,18128 16437,18179 16397,18216 16349,18241 16302,18267 16251,18278 16196,18278 16119,18278 16064,18249 16027,18208 16009,18186 15994,18161 15987,18131 15980,18106 15980,18077 15987,18047 16005,17974 16064,17908 16174,17875 16254,17853 16346,17838 16437,17827 L 16503,17817 16503,17820 Z"/>
           <path fill="none" stroke="rgb(117,198,217)" stroke-width="8" stroke-linejoin="miter" d="M 9261,18098 C 9254,18066 9250,18014 9247,17978 9228,17798 9228,17493 9236,17182 9250,16761 9283,16317 9327,16112 9342,16046 9309,15998 9265,15969 9243,15958 9221,15951 9195,15947 9170,15943 9144,15947 9122,15958 9082,15972 9056,16005 9056,16057 9009,16269 8972,16578 8954,16882 8924,17306 8921,17732 8939,17901 L 8943,17923 C 8950,18000 8957,18055 8990,18102 9049,18186 9254,18201 9349,18197 9697,18194 9957,17981 10115,17684 10213,17497 10276,17281 10298,17057 10316,16834 10298,16607 10235,16402 10115,16002 9836,15691 9378,15691 9074,15691 8844,15786 8686,15921 8595,16005 8525,16104 8492,16207 8457,16313 8449,16420 8478,16519 8511,16633 8584,16732 8705,16801 8749,16827 8785,16830 8811,16819 8825,16812 8840,16801 8847,16786 8855,16775 8858,16757 8858,16743 8855,16713 8836,16677 8796,16651 8774,16636 8749,16625 8719,16614 8661,16592 8591,16567 8565,16475 8547,16402 8554,16320 8580,16240 8609,16152 8668,16068 8752,15994 8891,15870 9100,15782 9378,15786 9638,15786 9789,15980 9876,16218 9939,16398 9972,16614 9972,16838 9975,17061 9942,17292 9887,17493 9796,17817 9638,18066 9422,18098 9371,18102 9316,18106 9261,18098 Z"/>
           <path fill="none" stroke="rgb(117,198,217)" stroke-width="8" stroke-linejoin="miter" d="M 10720,17592 C 10896,17523 11020,17354 11086,17186 11115,17109 11130,17028 11134,16959 11134,16882 11123,16816 11090,16768 11060,16721 11016,16691 10958,16688 10782,16673 10643,16786 10550,16955 10495,17050 10462,17164 10444,17281 10426,17398 10422,17519 10444,17632 10484,17860 10605,18055 10826,18113 10972,18153 11108,18098 11221,17978 11339,17857 11434,17665 11511,17435 11536,17361 11441,17336 11423,17402 11350,17621 11258,17802 11152,17912 11071,18000 10980,18044 10881,18029 10804,18011 10756,17897 10734,17743 10727,17695 10720,17647 10720,17592 Z"/>
           <path fill="none" stroke="rgb(117,198,217)" stroke-width="8" stroke-linejoin="miter" d="M 10954,16783 C 10980,16786 10998,16797 11013,16819 11031,16852 11038,16900 11038,16955 11035,17017 11020,17083 10994,17153 10943,17288 10852,17420 10720,17490 10720,17442 10723,17398 10727,17354 10742,17222 10767,17090 10804,16984 10844,16867 10899,16783 10954,16783 Z"/>
           <path fill="none" stroke="rgb(117,198,217)" stroke-width="8" stroke-linejoin="miter" d="M 11701,17208 C 11782,17109 11954,16823 12086,16534 12155,16376 12210,16214 12236,16082 12258,15936 12243,15819 12155,15760 12137,15749 12119,15742 12100,15734 11928,15691 11771,15866 11654,16145 11569,16342 11500,16592 11460,16849 11423,17101 11408,17361 11434,17577 11467,17886 11580,18109 11796,18124 11921,18139 12027,18018 12111,17864 12188,17721 12251,17548 12287,17431 12309,17369 12221,17336 12199,17402 12163,17512 12104,17680 12027,17817 11958,17945 11877,18044 11796,18029 11738,18014 11705,17860 11694,17643 11687,17515 11690,17365 11701,17208 Z"/>
           <path fill="none" stroke="rgb(117,198,217)" stroke-width="8" stroke-linejoin="miter" d="M 12104,15841 C 12152,15874 12159,15958 12141,16068 12119,16189 12064,16342 11998,16493 11910,16691 11800,16885 11720,17017 L 11731,16896 C 11767,16633 11818,16373 11884,16170 11947,15969 12016,15833 12082,15830 L 12104,15841 Z"/>
           <path fill="none" stroke="rgb(117,198,217)" stroke-width="8" stroke-linejoin="miter" d="M 12573,18000 C 12562,18011 12551,18007 12547,17996 12529,17959 12511,17886 12500,17791 12485,17640 12485,17446 12507,17252 12514,17160 12529,17072 12543,16988 12554,16933 12514,16885 12459,16860 12437,16849 12412,16841 12386,16838 12360,16834 12335,16838 12313,16841 12269,16856 12236,16889 12236,16944 12210,17127 12199,17292 12199,17431 12199,17636 12225,17798 12272,17912 12320,18033 12397,18102 12492,18117 12503,18120 12514,18120 12525,18120 12551,18120 12562,18117 12584,18106 12664,18062 12738,17945 12800,17813 12862,17669 12917,17515 12943,17435 12965,17369 12873,17339 12851,17402 12825,17479 12774,17632 12712,17773 12668,17871 12617,17959 12573,18000 Z"/>
           <path fill="none" stroke="rgb(117,198,217)" stroke-width="8" stroke-linejoin="miter" d="M 12470,16457 C 12525,16398 12580,16346 12609,16317 12646,16280 12642,16207 12617,16148 12606,16130 12598,16115 12587,16104 12573,16086 12554,16071 12536,16068 12503,16060 12470,16068 12445,16104 12401,16167 12357,16232 12324,16295 12276,16376 12240,16453 12221,16501 12210,16526 12210,16548 12214,16563 12221,16581 12229,16592 12243,16600 12254,16607 12265,16611 12280,16611 12298,16611 12320,16600 12335,16585 L 12470,16457 Z"/>
           <path fill="none" stroke="rgb(117,198,217)" stroke-width="8" stroke-linejoin="miter" d="M 13371,16783 C 13393,16786 13415,16790 13430,16797 13474,16812 13507,16845 13525,16889 13529,16896 13532,16904 13532,16911 13558,16992 13510,17046 13470,17090 13455,17109 13444,17120 13437,17134 13404,17182 13404,17230 13415,17263 13422,17284 13433,17299 13452,17310 13470,17321 13492,17321 13518,17314 13547,17299 13580,17266 13609,17189 13627,17145 13638,17098 13642,17046 13646,16992 13642,16937 13624,16885 L 13613,16849 C 13584,16786 13536,16735 13466,16706 13441,16699 13408,16691 13375,16688 13203,16673 13060,16786 12968,16955 12917,17050 12880,17164 12862,17281 12844,17398 12844,17519 12862,17632 12902,17860 13023,18055 13243,18113 13393,18153 13536,18098 13660,17974 13785,17853 13891,17662 13968,17431 13986,17376 13895,17343 13876,17402 13803,17618 13708,17795 13595,17908 13503,17996 13404,18044 13298,18025 13221,18011 13173,17897 13151,17743 13133,17625 13133,17490 13144,17354 13159,17222 13184,17090 13221,16984 13265,16867 13316,16783 13371,16783 Z"/>
           <path fill="none" stroke="rgb(117,198,217)" stroke-width="8" stroke-linejoin="miter" d="M 14250,18000 C 14239,18011 14228,18007 14224,17996 14206,17959 14188,17886 14177,17791 14162,17640 14162,17446 14184,17252 14191,17160 14206,17072 14221,16988 14232,16933 14191,16885 14136,16860 14115,16849 14089,16841 14063,16838 14038,16834 14012,16838 13990,16841 13946,16856 13913,16889 13913,16944 13887,17127 13876,17292 13876,17431 13876,17636 13902,17798 13950,17912 13997,18033 14074,18102 14169,18117 14180,18120 14191,18120 14202,18120 14228,18120 14239,18117 14261,18106 14342,18062 14415,17945 14477,17813 14539,17669 14594,17515 14620,17435 14642,17369 14550,17339 14528,17402 14503,17479 14451,17632 14389,17773 14345,17871 14294,17959 14250,18000 Z"/>
           <path fill="none" stroke="rgb(117,198,217)" stroke-width="8" stroke-linejoin="miter" d="M 14085,16402 C 14067,16391 14052,16384 14034,16384 14012,16380 13990,16384 13975,16391 13953,16398 13939,16409 13928,16431 13895,16493 13972,16596 14030,16677 14045,16695 14056,16713 14067,16724 L 14100,16772 14136,16728 14199,16662 C 14272,16585 14345,16508 14309,16442 14294,16417 14276,16402 14250,16395 14232,16387 14213,16387 14195,16391 14180,16395 14162,16402 14147,16409 L 14122,16428 C 14111,16417 14100,16409 14085,16402 Z"/>
           <path fill="none" stroke="rgb(117,198,217)" stroke-width="8" stroke-linejoin="miter" d="M 15613,17996 C 15551,18033 15533,17963 15525,17890 15518,17798 15518,17676 15525,17541 15540,17281 15577,16981 15639,16794 15657,16728 15624,16669 15573,16636 15558,16625 15536,16614 15518,16607 15496,16600 15478,16600 15456,16600 15408,16603 15368,16629 15357,16680 L 15346,16721 15317,16838 C 15313,16834 15313,16830 15313,16827 15291,16768 15262,16721 15221,16691 15192,16669 15163,16662 15130,16658 14873,16629 14693,16823 14598,17079 14554,17200 14528,17336 14521,17468 14514,17596 14528,17725 14565,17831 14620,18007 14733,18124 14909,18109 15057,18098 15174,17849 15247,17610 15269,17864 15350,18047 15507,18098 15511,18098 15511,18098 15514,18102 L 15522,18102 C 15624,18128 15723,18055 15807,17934 15906,17802 15994,17603 16053,17427 16078,17347 15987,17317 15961,17402 15903,17570 15822,17754 15730,17879 15690,17934 15650,17974 15613,17996 Z"/>
           <path fill="none" stroke="rgb(117,198,217)" stroke-width="8" stroke-linejoin="miter" d="M 15101,16775 C 15141,16753 15167,16764 15189,16794 15199,16808 15210,16834 15221,16860 15247,16933 15258,17035 15262,17142 15258,17164 15254,17182 15254,17204 15221,17369 15082,18000 14902,18014 14869,18018 14843,17974 14825,17901 14803,17806 14799,17662 14814,17512 14825,17361 14858,17204 14906,17068 14958,16926 15024,16812 15101,16775 Z"/>
           <path fill="none" stroke="rgb(117,198,217)" stroke-width="8" stroke-linejoin="miter" d="M 15961,17402 C 15939,17479 16034,17493 16053,17431 L 16089,17314 16093,17299 C 16144,17361 16203,17420 16261,17479 16349,17559 16430,17640 16474,17725 L 16423,17732 C 16327,17743 16236,17758 16148,17784 15998,17827 15917,17923 15892,18025 15884,18069 15884,18113 15895,18153 15906,18197 15925,18238 15954,18271 16009,18329 16089,18369 16192,18373 16265,18373 16327,18358 16390,18329 16522,18278 16620,18194 16690,18102 16774,17989 16807,17857 16800,17743 16935,17691 17045,17603 17104,17431 17126,17369 17038,17339 17012,17402 16968,17526 16884,17599 16782,17647 16730,17486 16591,17354 16456,17230 16353,17134 16254,17043 16214,16951 16199,16915 16188,16874 16185,16838 16174,16746 16203,16629 16313,16633 16353,16633 16390,16644 16423,16658 16452,16673 16481,16695 16503,16724 16518,16753 16522,16783 16522,16808 16518,16841 16500,16871 16481,16893 16445,16926 16441,16966 16452,16999 16463,17024 16481,17043 16500,17050 16525,17061 16554,17061 16580,17043 16609,17024 16639,16981 16642,16904 16653,16753 16595,16636 16463,16574 16419,16552 16368,16537 16316,16537 16265,16534 16214,16545 16166,16563 16042,16607 15939,16721 15936,16893 15932,17010 15965,17109 16020,17193 16012,17230 16001,17259 15994,17288 15987,17325 15972,17372 15961,17402 Z"/>
           <path fill="none" stroke="rgb(117,198,217)" stroke-width="8" stroke-linejoin="miter" d="M 16503,17820 C 16529,17948 16511,18051 16467,18128 16437,18179 16397,18216 16349,18241 16302,18267 16251,18278 16196,18278 16119,18278 16064,18249 16027,18208 16009,18186 15994,18161 15987,18131 15980,18106 15980,18077 15987,18047 16005,17974 16064,17908 16174,17875 16254,17853 16346,17838 16437,17827 L 16503,17817 16503,17820 Z"/>
          </g>
         </g>
        </g>
        <g class="Group">
         <g class="com.sun.star.drawing.ClosedBezierShape">
          <g id="id6">
           <rect class="BoundingBox" stroke="none" fill="none" x="5233" y="9835" width="2201" height="3320"/>
           <path fill="rgb(117,198,217)" stroke="none" d="M 7346,10080 C 7322,10112 7291,10162 7229,10161 7175,10160 7130,10121 7132,10054 7134,9949 7299,9901 7346,10080 Z M 7346,10080 L 7346,10080 Z M 6676,11531 C 6685,11649 6629,11917 6604,12021 6565,12189 6514,12347 6460,12485 6405,12626 6325,12783 6218,12893 6122,12991 5887,13147 5726,13096 5792,13041 5896,13043 6091,12780 6269,12540 6624,11698 6623,11514 6648,11493 6671,11465 6676,11531 Z M 6676,11531 L 6676,11531 Z M 6583,11455 C 6591,11600 6331,12219 6274,12349 6186,12551 5890,13087 5638,13052 5656,13014 5764,12909 5794,12871 5835,12818 5891,12735 5926,12677 6146,12312 6387,11830 6555,11434 6601,11429 6573,11412 6583,11455 Z M 6583,11455 L 6583,11455 Z M 6499,11416 C 6501,11483 6144,12176 6096,12271 6013,12436 5724,12977 5530,13044 5484,12793 5985,12036 6171,11757 6256,11631 6355,11473 6449,11362 6495,11362 6499,11362 6499,11416 Z M 6499,11416 L 6499,11416 Z M 6393,11352 C 6240,11524 5752,12306 5644,12530 5589,12645 5491,12833 5475,12973 5318,12698 5648,12203 5744,12063 5837,11927 5924,11815 6028,11688 6120,11574 6246,11422 6356,11331 L 6397,11316 C 6389,11332 6398,11331 6393,11352 Z M 6393,11352 L 6393,11352 Z M 6305,11305 C 6199,11434 6093,11525 5994,11648 5734,11974 5338,12455 5391,12914 5184,12556 5305,12261 5537,11968 5695,11769 5845,11606 6053,11435 6112,11386 6206,11322 6252,11277 6288,11276 6303,11264 6305,11305 Z M 6305,11305 L 6305,11305 Z M 6177,11277 C 5989,11366 5552,11855 5418,12051 4920,12779 5531,13391 6083,13063 6395,12878 6534,12482 6621,12148 6657,12013 6726,11742 6724,11600 6744,11574 6734,11580 6776,11569 L 6770,11559 C 6724,11097 7186,10491 7405,10110 7470,9997 7412,9853 7293,9837 7138,9818 7084,9971 7041,10045 L 6729,10596 C 6615,10788 6184,11248 6177,11277 Z"/>
          </g>
         </g>
         <g class="com.sun.star.drawing.ClosedBezierShape">
          <g id="id7">
           <rect class="BoundingBox" stroke="none" fill="none" x="4567" y="9504" width="6330" height="6141"/>
           <path fill="rgb(231,91,120)" stroke="none" d="M 9991,14029 C 9744,14028 9496,14008 9248,13974 8981,13937 8714,13884 8449,13824 8553,13631 8647,13435 8736,13238 8945,12763 9117,12279 9283,11799 9368,11559 9449,11320 9535,11084 9578,10967 9622,10850 9668,10735 L 9672,10727 C 9699,10720 9727,10712 9754,10703 9885,10661 10012,10604 10128,10531 10245,10459 10352,10372 10447,10275 10471,10251 10493,10226 10516,10201 L 10549,10164 C 10560,10151 10571,10137 10582,10123 10626,10068 10666,10006 10694,9931 10708,9894 10719,9854 10722,9809 10723,9786 10722,9762 10718,9738 10714,9714 10706,9689 10694,9665 10683,9641 10667,9619 10649,9600 10631,9581 10611,9566 10590,9554 10548,9529 10505,9517 10464,9510 10423,9504 10385,9504 10346,9504 10308,9506 10269,9512 10231,9521 10193,9529 10157,9542 10122,9557 10103,9564 10087,9573 10070,9581 10053,9590 10037,9599 10021,9609 9957,9647 9900,9693 9847,9740 9794,9788 9746,9839 9701,9892 9610,9997 9533,10109 9465,10223 9417,10306 9374,10391 9334,10477 L 9333,10477 C 9214,10477 9096,10467 8978,10450 L 8934,10444 8890,10436 C 8860,10431 8831,10426 8802,10419 8773,10413 8743,10408 8713,10399 L 8625,10375 C 8388,10312 8148,10248 7898,10191 7649,10137 7390,10086 7110,10089 7075,10090 7040,10092 7004,10095 6969,10098 6933,10102 6897,10109 6825,10122 6753,10144 6684,10176 6615,10209 6551,10253 6497,10306 6470,10332 6445,10360 6423,10389 6401,10419 6380,10449 6362,10480 6324,10543 6296,10614 6281,10687 6264,10761 6261,10837 6270,10913 6280,10988 6304,11063 6339,11131 6376,11199 6423,11262 6480,11313 6595,11418 6740,11481 6886,11512 7034,11543 7182,11543 7329,11535 L 7341,11534 C 7368,11532 7396,11525 7421,11512 7525,11461 7567,11335 7516,11231 7464,11127 7339,11085 7234,11136 7134,11186 7027,11213 6921,11215 6817,11216 6714,11190 6632,11131 6551,11073 6493,10984 6477,10883 6468,10833 6470,10781 6481,10730 6492,10680 6512,10631 6539,10585 6568,10538 6603,10497 6641,10463 6681,10430 6725,10405 6773,10388 6821,10371 6873,10363 6928,10361 6982,10359 7038,10362 7095,10371 7208,10387 7324,10419 7441,10455 7558,10490 7676,10531 7796,10569 8037,10646 8286,10718 8546,10757 8579,10761 8611,10766 8644,10770 8677,10773 8710,10777 8744,10781 8777,10786 8810,10789 8844,10792 L 8894,10796 8945,10799 C 9028,10804 9111,10804 9194,10800 9176,10845 9158,10890 9140,10935 9046,11174 8958,11414 8871,11652 8696,12128 8524,12601 8323,13056 8224,13281 8118,13501 8001,13714 7926,13694 7852,13675 7776,13654 7532,13589 7287,13521 7041,13457 6793,13393 6543,13332 6286,13287 6157,13265 6026,13248 5892,13240 5759,13232 5622,13232 5482,13252 5344,13272 5201,13312 5070,13388 4939,13462 4826,13573 4747,13698 4738,13714 4728,13729 4719,13745 4709,13761 4701,13777 4693,13793 4684,13810 4677,13826 4669,13842 4661,13859 4654,13876 4647,13893 4618,13962 4598,14034 4584,14107 4559,14253 4563,14401 4589,14543 4616,14686 4667,14823 4737,14950 4807,15077 4898,15193 5006,15292 5115,15391 5240,15472 5375,15530 5511,15588 5655,15624 5800,15637 5836,15641 5872,15643 5909,15644 5944,15644 5978,15644 6012,15643 6081,15642 6151,15637 6220,15630 6357,15615 6494,15587 6628,15548 6896,15468 7146,15335 7366,15169 7586,15004 7776,14808 7944,14598 8083,14427 8204,14245 8315,14060 8611,14126 8911,14183 9216,14221 9473,14252 9732,14271 9993,14268 10913,14257 11451,14035 9991,14029 Z M 9991,14029 L 9991,14029 Z M 9956,10071 C 9984,10019 10014,9970 10047,9924 10080,9879 10116,9837 10157,9803 10197,9769 10241,9743 10288,9727 10311,9719 10335,9715 10360,9712 10385,9709 10411,9710 10432,9713 10454,9716 10473,9722 10485,9730 10491,9734 10496,9738 10500,9742 10504,9746 10507,9750 10510,9755 10519,9773 10519,9814 10500,9859 10483,9903 10453,9949 10418,9992 10409,10003 10400,10013 10390,10024 L 10360,10058 C 10339,10079 10318,10101 10296,10121 10210,10202 10113,10270 10009,10323 9958,10350 9904,10372 9849,10392 9834,10397 9819,10402 9803,10407 L 9808,10396 C 9855,10284 9902,10174 9956,10071 Z M 9956,10071 L 9956,10071 Z M 7603,14331 C 7457,14520 7294,14693 7111,14837 6928,14980 6725,15092 6508,15164 6399,15200 6287,15224 6173,15240 6114,15248 6057,15253 5998,15256 5970,15258 5940,15259 5912,15259 5885,15259 5858,15258 5830,15256 5722,15250 5617,15227 5517,15188 5418,15149 5326,15094 5244,15024 5081,14885 4960,14689 4912,14477 4887,14371 4880,14261 4893,14156 4900,14103 4913,14052 4930,14003 4934,13991 4939,13979 4944,13966 4950,13953 4956,13941 4962,13929 4968,13917 4974,13905 4981,13894 4987,13882 4994,13871 5001,13860 5029,13815 5061,13774 5098,13738 5134,13702 5175,13671 5219,13644 5308,13591 5414,13559 5525,13542 5637,13525 5756,13523 5875,13529 5995,13535 6117,13549 6239,13569 6483,13608 6727,13665 6972,13725 7217,13786 7462,13850 7709,13914 7760,13927 7811,13939 7863,13952 7782,14083 7696,14210 7603,14331 Z"/>
          </g>
         </g>
         <g class="Group">
          <g class="com.sun.star.drawing.ClosedBezierShape">
           <g id="id8">
            <rect class="BoundingBox" stroke="none" fill="none" x="9977" y="10151" width="4376" height="5089"/>
            <path fill="rgb(117,198,217)" stroke="none" d="M 14322,14513 C 14226,14504 14109,14533 14001,14529 13892,14525 13777,14493 13668,14486 13612,14482 13548,14479 13505,14439 13522,14421 13540,14403 13557,14384 13716,14212 13853,14017 13960,13802 14013,13696 14059,13583 14093,13468 14127,13356 14154,13241 14174,13124 14215,12890 14222,12649 14195,12411 14167,12173 14103,11938 14007,11719 13911,11499 13783,11292 13629,11110 13475,10928 13296,10767 13099,10635 13049,10601 12999,10571 12947,10541 12901,10515 12854,10490 12807,10467 12830,10410 12855,10352 12880,10295 L 12880,10295 C 12899,10251 12886,10199 12846,10170 12800,10138 12735,10148 12702,10193 12661,10251 12621,10310 12583,10370 12542,10355 12501,10340 12460,10326 12234,10255 11996,10217 11759,10219 11699,10220 11642,10223 11584,10227 11526,10232 11468,10238 11410,10246 11294,10263 11179,10288 11066,10324 10953,10361 10843,10407 10740,10465 10636,10524 10539,10594 10451,10676 10364,10757 10287,10849 10222,10948 10157,11047 10105,11154 10064,11265 10023,11376 9994,11492 9982,11613 9971,11733 9977,11859 10011,11981 10028,12042 10053,12102 10086,12159 10119,12215 10160,12268 10209,12314 10306,12406 10434,12464 10560,12489 10623,12501 10687,12508 10752,12507 10817,12506 10882,12498 10945,12484 11074,12455 11192,12398 11297,12327 11402,12256 11494,12170 11576,12077 11618,12030 11656,11981 11691,11931 11728,11880 11761,11827 11793,11773 L 11795,11769 C 11802,11757 11808,11744 11813,11730 11848,11622 11790,11506 11682,11470 11574,11434 11457,11493 11422,11601 11361,11783 11252,11955 11110,12079 11038,12140 10958,12189 10873,12217 10787,12247 10694,12255 10602,12243 10512,12231 10429,12199 10362,12143 10329,12114 10300,12081 10275,12044 10252,12006 10233,11964 10218,11919 10189,11830 10182,11731 10189,11632 10197,11533 10222,11433 10256,11335 10292,11239 10339,11148 10395,11063 10452,10978 10519,10902 10596,10835 10748,10702 10935,10610 11135,10561 11234,10536 11337,10521 11440,10513 11492,10509 11544,10508 11596,10507 11648,10507 11701,10509 11751,10512 11954,10526 12155,10575 12345,10651 12365,10659 12384,10667 12403,10675 12383,10710 12364,10745 12345,10781 12239,10983 12142,11190 12051,11398 11870,11815 11712,12237 11556,12656 11399,13076 11245,13494 11076,13902 11049,13964 11023,14026 10996,14087 10907,14074 10817,14062 10726,14053 10669,14047 10613,14043 10555,14041 10497,14039 10438,14038 10374,14046 10342,14050 10309,14055 10271,14070 10252,14077 10232,14087 10211,14102 10190,14117 10169,14141 10155,14170 10142,14199 10138,14231 10140,14256 10141,14283 10147,14304 10153,14323 10166,14361 10184,14390 10201,14418 10237,14472 10275,14517 10314,14559 L 10373,14623 10435,14683 C 10495,14741 10558,14795 10626,14845 10580,14925 10534,15003 10484,15081 L 10484,15082 C 10458,15123 10464,15178 10501,15212 10543,15250 10607,15248 10646,15207 10712,15134 10775,15059 10834,14982 10892,15015 10950,15045 11011,15071 11226,15166 11460,15217 11695,15224 11930,15232 12165,15196 12388,15128 12499,15093 12609,15051 12714,15002 12820,14953 12922,14896 13020,14833 13119,14771 13229,14667 13320,14592 13325,14588 13329,14584 13334,14580 13448,14591 13563,14600 13677,14608 13788,14615 13829,14617 13940,14621 14052,14625 14227,14641 14342,14605 14370,14596 14327,14611 14309,14578 14295,14552 14373,14518 14322,14513 Z M 14322,14513 L 14322,14513 Z M 11938,12800 C 12098,12379 12247,11956 12398,11536 12486,11292 12574,11050 12668,10810 12740,10853 12810,10900 12877,10950 13040,11071 13188,11212 13317,11369 13381,11449 13439,11531 13492,11617 13546,11702 13594,11791 13634,11883 13717,12067 13770,12262 13800,12461 13828,12661 13825,12864 13800,13066 13786,13168 13767,13268 13740,13368 13734,13393 13727,13416 13720,13441 13712,13464 13705,13488 13697,13512 13680,13559 13661,13606 13641,13652 13559,13837 13447,14012 13315,14171 13245,14251 13172,14328 13094,14400 12851,14373 12608,14341 12366,14305 12148,14273 11931,14238 11714,14202 11595,14182 11475,14162 11355,14142 11371,14112 11386,14083 11401,14052 11605,13642 11776,13221 11938,12800 Z M 11938,12800 L 11938,12800 Z M 10570,14539 C 10494,14468 10415,14389 10364,14312 10352,14293 10342,14274 10337,14260 10336,14257 10335,14255 10335,14253 10337,14252 10339,14251 10341,14250 10355,14245 10376,14240 10398,14238 10444,14232 10496,14232 10548,14234 10600,14236 10653,14240 10707,14245 10776,14252 10845,14260 10915,14270 10854,14403 10791,14535 10723,14665 10670,14626 10619,14584 10570,14539 Z M 10570,14539 L 10570,14539 Z M 12857,14591 C 12772,14651 12683,14706 12591,14754 12499,14802 12404,14845 12307,14879 12111,14948 11905,14988 11699,14988 11595,14990 11492,14980 11391,14961 11290,14941 11191,14913 11095,14874 11048,14855 11003,14834 10958,14812 10994,14760 11030,14706 11063,14653 11134,14544 11199,14434 11260,14321 11618,14378 11977,14440 12338,14493 12521,14521 12704,14546 12888,14568 12878,14576 12868,14584 12857,14591 Z"/>
           </g>
          </g>
          <g class="com.sun.star.drawing.OpenBezierShape">
           <g id="id9">
            <rect class="BoundingBox" stroke="none" fill="none" x="13194" y="13731" width="2320" height="934"/>
            <path fill="none" stroke="rgb(117,198,217)" stroke-width="200" stroke-linejoin="round" d="M 13294,14499 C 13628,14450 14872,14933 15413,13831"/>
           </g>
          </g>
         </g>
         <g class="com.sun.star.drawing.OpenBezierShape">
          <g id="id10">
           <rect class="BoundingBox" stroke="none" fill="none" x="13194" y="14394" width="1218" height="269"/>
           <path fill="none" stroke="rgb(117,198,217)" stroke-width="200" stroke-linejoin="round" d="M 13294,14497 C 13466,14473 13878,14588 14311,14556"/>
          </g>
         </g>
         <g class="com.sun.star.drawing.ClosedBezierShape">
          <g id="id11">
           <rect class="BoundingBox" stroke="none" fill="none" x="14916" y="11660" width="2130" height="2756"/>
           <path fill="rgb(231,91,120)" stroke="none" d="M 15022,14310 L 15004,14330 15013,14304 15122,13973 C 15201,13966 15269,14011 15293,14090 L 15022,14310 Z M 15022,14310 L 15022,14310 Z M 15150,13881 C 15170,13791 15273,13505 15310,13385 L 15631,12397 C 15686,12221 15984,12355 16174,12275 L 16225,12339 C 16145,12404 15962,12450 16039,12508 16117,12567 16349,12269 16319,12474 L 16298,12623 C 16292,12663 16285,12677 16318,12697 16397,12742 16386,12520 16407,12459 L 16479,12485 C 16496,12597 16535,12684 16573,12789 16629,12942 16652,12968 16560,13045 16425,13155 16296,13261 16163,13370 16045,13468 15476,13950 15365,14028 L 15345,14006 C 15306,13957 15281,13926 15212,13902 15196,13896 15192,13897 15178,13892 L 15150,13881 Z M 15150,13881 L 15150,13881 Z M 16955,12246 C 16844,12284 16734,12317 16621,12353 16533,12382 16529,12454 16358,12338 16188,12223 16252,12189 16247,12100 16240,11983 16230,11866 16226,11747 L 16376,11855 C 16358,11933 16286,12138 16330,12164 16409,12185 16415,12029 16431,11972 16501,11721 16451,11697 16686,11857 16878,11988 16889,11978 16764,12068 16733,12091 16699,12116 16667,12140 16549,12226 16498,12232 16528,12305 16593,12316 16739,12182 16801,12143 16831,12152 16939,12228 16955,12246 Z M 16955,12246 L 16955,12246 Z M 14917,14316 L 14926,14368 C 14940,14378 14947,14387 14958,14395 14972,14403 14982,14405 14999,14414 L 15046,14405 16244,13409 C 16769,12970 16773,13089 16587,12588 16552,12497 16555,12460 16650,12429 16725,12405 16802,12382 16878,12357 16979,12324 17009,12337 17045,12254 L 17036,12206 C 17001,12177 16997,12166 16958,12140 16931,12122 16905,12106 16882,12088 16901,12058 16972,11976 16886,11898 L 16568,11683 C 16462,11638 16412,11742 16398,11760 L 16232,11660 16184,11669 C 16122,11734 16145,11765 16152,11872 16157,11952 16165,12030 16169,12109 16174,12215 16120,12216 16023,12218 15586,12229 15609,12216 15522,12477 15477,12612 14940,14276 14917,14316 Z"/>
          </g>
         </g>
         <g class="com.sun.star.drawing.ClosedBezierShape">
          <g id="id12">
           <rect class="BoundingBox" stroke="none" fill="none" x="15013" y="12275" width="1611" height="2037"/>
           <path fill="rgb(255,255,255)" stroke="none" d="M 15014,14305 L 15022,14311 15293,14091 C 15269,14012 15202,13967 15123,13974 L 15014,14305 Z M 15014,14305 L 15014,14305 Z M 15677,12753 C 15649,12692 15707,12660 15746,12711 15776,12749 15787,12775 15823,12815 15937,12940 16011,12910 16031,12943 16066,13000 15991,13008 15952,12996 15853,12968 15720,12851 15677,12753 Z M 15677,12753 L 15677,12753 Z M 15775,12609 C 15749,12550 15805,12516 15845,12567 15874,12604 15885,12631 15921,12670 16035,12794 16109,12765 16129,12799 16168,12863 16082,12891 15941,12796 15892,12762 15807,12679 15775,12609 Z M 15775,12609 L 15775,12609 Z M 15150,13882 L 15178,13893 C 15192,13897 15197,13897 15213,13903 15282,13927 15306,13958 15346,14007 L 15366,14029 C 15476,13951 16046,13468 16164,13370 16297,13261 16426,13155 16560,13045 16653,12969 16629,12943 16574,12790 16535,12684 16498,12597 16480,12485 L 16408,12459 C 16387,12520 16398,12742 16319,12697 16286,12677 16293,12663 16299,12623 L 16321,12474 C 16351,12270 16117,12567 16039,12508 15962,12450 16146,12404 16226,12339 L 16175,12275 C 15985,12355 15687,12222 15631,12397 L 15310,13385 C 15273,13505 15171,13791 15150,13882 Z"/>
          </g>
         </g>
         <g class="com.sun.star.drawing.ClosedBezierShape">
          <g id="id13">
           <rect class="BoundingBox" stroke="none" fill="none" x="15668" y="12686" width="374" height="317"/>
           <path fill="rgb(231,91,120)" stroke="none" d="M 15822,12815 C 15786,12775 15775,12749 15744,12711 15705,12661 15648,12692 15675,12753 15718,12851 15852,12969 15952,12997 15991,13008 16066,13001 16031,12944 16011,12910 15936,12940 15822,12815 Z"/>
          </g>
         </g>
         <g class="com.sun.star.drawing.ClosedBezierShape">
          <g id="id14">
           <rect class="BoundingBox" stroke="none" fill="none" x="15767" y="12542" width="372" height="318"/>
           <path fill="rgb(231,91,120)" stroke="none" d="M 15919,12670 C 15883,12631 15872,12603 15843,12566 15803,12516 15748,12550 15773,12608 15805,12680 15890,12762 15940,12797 16081,12892 16167,12863 16128,12799 16108,12765 16035,12795 15919,12670 Z"/>
          </g>
         </g>
         <g class="com.sun.star.drawing.ClosedBezierShape">
          <g id="id15">
           <rect class="BoundingBox" stroke="none" fill="none" x="14927" y="14367" width="74" height="60"/>
           <path fill="rgb(117,198,217)" stroke="none" d="M 14937,14426 L 15000,14414 C 14984,14405 14973,14403 14959,14394 14947,14386 14940,14376 14927,14367 L 14937,14426 Z"/>
          </g>
         </g>
         <g class="com.sun.star.drawing.PolyPolygonShape">
          <g id="id16">
           <rect class="BoundingBox" stroke="none" fill="none" x="15003" y="14303" width="21" height="29"/>
           <path fill="rgb(121,121,121)" stroke="none" d="M 15023,14310 L 15014,14304 15004,14331 15023,14310 Z"/>
          </g>
         </g>
         <g class="com.sun.star.drawing.ClosedBezierShape">
          <g id="id17">
           <rect class="BoundingBox" stroke="none" fill="none" x="6757" y="9222" width="1056" height="1596"/>
           <path fill="rgb(117,198,217)" stroke="none" d="M 7785,9498 C 7850,9385 7793,9241 7673,9225 7517,9206 7463,9359 7421,9433 7200,9774 6989,10092 6885,10322 6629,10887 6769,11025 7206,10436 7361,10226 7540,9910 7785,9498 Z"/>
          </g>
         </g>
        </g>
       </g>
      </g>
     </g>
    </g>
   </g>
  </g>
 </g>
</svg>