<?xml version="1.0" encoding="UTF-8"?>
<!DOCTYPE svg PUBLIC "-//W3C//DTD SVG 1.1//EN" "http://www.w3.org/Graphics/SVG/1.1/DTD/svg11.dtd">
<svg version="1.2" width="210mm" height="297mm" viewBox="0 0 21000 29700" preserveAspectRatio="xMidYMid" fill-rule="evenodd" stroke-width="28.222" stroke-linejoin="round" xmlns="http://www.w3.org/2000/svg" xmlns:ooo="http://xml.openoffice.org/svg/export" xmlns:xlink="http://www.w3.org/1999/xlink" xmlns:presentation="http://sun.com/xmlns/staroffice/presentation" xmlns:smil="http://www.w3.org/2001/SMIL20/" xmlns:anim="urn:oasis:names:tc:opendocument:xmlns:animation:1.0" xml:space="preserve">
 <defs class="ClipPathGroup">
  <clipPath id="presentation_clip_path" clipPathUnits="userSpaceOnUse">
   <rect x="0" y="0" width="21000" height="29700"/>
  </clipPath>
  <clipPath id="presentation_clip_path_shrink" clipPathUnits="userSpaceOnUse">
   <rect x="21" y="29" width="20958" height="29641"/>
  </clipPath>
 </defs>
 <defs class="TextShapeIndex">
  <g ooo:slide="id1" ooo:id-list="id3 id4 id5 id6 id7 id8 id9 id10 id11 id12 id13 id14 id15 id16 id17 id18 id19 id20 id21 id22 id23 id24 id25 id26 id27"/>
 </defs>
 <defs class="EmbeddedBulletChars">
  <g id="bullet-char-template-57356" transform="scale(0.00048828125,-0.00048828125)">
   <path d="M 580,1141 L 1163,571 580,0 -4,571 580,1141 Z"/>
  </g>
  <g id="bullet-char-template-57354" transform="scale(0.00048828125,-0.00048828125)">
   <path d="M 8,1128 L 1137,1128 1137,0 8,0 8,1128 Z"/>
  </g>
  <g id="bullet-char-template-10146" transform="scale(0.00048828125,-0.00048828125)">
   <path d="M 174,0 L 602,739 174,1481 1456,739 174,0 Z M 1358,739 L 309,1346 659,739 1358,739 Z"/>
  </g>
  <g id="bullet-char-template-10132" transform="scale(0.00048828125,-0.00048828125)">
   <path d="M 2015,739 L 1276,0 717,0 1260,543 174,543 174,936 1260,936 717,1481 1274,1481 2015,739 Z"/>
  </g>
  <g id="bullet-char-template-10007" transform="scale(0.00048828125,-0.00048828125)">
   <path d="M 0,-2 C -7,14 -16,27 -25,37 L 356,567 C 262,823 215,952 215,954 215,979 228,992 255,992 264,992 276,990 289,987 310,991 331,999 354,1012 L 381,999 492,748 772,1049 836,1024 860,1049 C 881,1039 901,1025 922,1006 886,937 835,863 770,784 769,783 710,716 594,584 L 774,223 C 774,196 753,168 711,139 L 727,119 C 717,90 699,76 672,76 641,76 570,178 457,381 L 164,-76 C 142,-110 111,-127 72,-127 30,-127 9,-110 8,-76 1,-67 -2,-52 -2,-32 -2,-23 -1,-13 0,-2 Z"/>
  </g>
  <g id="bullet-char-template-10004" transform="scale(0.00048828125,-0.00048828125)">
   <path d="M 285,-33 C 182,-33 111,30 74,156 52,228 41,333 41,471 41,549 55,616 82,672 116,743 169,778 240,778 293,778 328,747 346,684 L 369,508 C 377,444 397,411 428,410 L 1163,1116 C 1174,1127 1196,1133 1229,1133 1271,1133 1292,1118 1292,1087 L 1292,965 C 1292,929 1282,901 1262,881 L 442,47 C 390,-6 338,-33 285,-33 Z"/>
  </g>
  <g id="bullet-char-template-9679" transform="scale(0.00048828125,-0.00048828125)">
   <path d="M 813,0 C 632,0 489,54 383,161 276,268 223,411 223,592 223,773 276,916 383,1023 489,1130 632,1184 813,1184 992,1184 1136,1130 1245,1023 1353,916 1407,772 1407,592 1407,412 1353,268 1245,161 1136,54 992,0 813,0 Z"/>
  </g>
  <g id="bullet-char-template-8226" transform="scale(0.00048828125,-0.00048828125)">
   <path d="M 346,457 C 273,457 209,483 155,535 101,586 74,649 74,723 74,796 101,859 155,911 209,963 273,989 346,989 419,989 480,963 531,910 582,859 608,796 608,723 608,648 583,586 532,535 482,483 420,457 346,457 Z"/>
  </g>
  <g id="bullet-char-template-8211" transform="scale(0.00048828125,-0.00048828125)">
   <path d="M -4,459 L 1135,459 1135,606 -4,606 -4,459 Z"/>
  </g>
  <g id="bullet-char-template-61548" transform="scale(0.00048828125,-0.00048828125)">
   <path d="M 173,740 C 173,903 231,1043 346,1159 462,1274 601,1332 765,1332 928,1332 1067,1274 1183,1159 1299,1043 1357,903 1357,740 1357,577 1299,437 1183,322 1067,206 928,148 765,148 601,148 462,206 346,322 231,437 173,577 173,740 Z"/>
  </g>
 </defs>
 <g>
  <g id="id2" class="Master_Slide">
   <g id="bg-id2" class="Background"/>
   <g id="bo-id2" class="BackgroundObjects"/>
  </g>
 </g>
 <g class="SlideGroup">
  <g>
   <g id="container-id1">
    <g id="id1" class="Slide" clip-path="url(#presentation_clip_path)">
     <g class="Page">
      <g class="Group">
       <g class="com.sun.star.drawing.ClosedBezierShape">
        <g id="id3">
         <rect class="BoundingBox" stroke="none" fill="none" x="1477" y="16119" width="18077" height="8202"/>
         <path fill="rgb(231,91,120)" stroke="none" d="M 9923,23648 L 10378,23648 C 10391,23641 10778,23625 10828,23622 10842,23621 10857,23620 10872,23619 11010,23841 10960,23910 11222,24117 11839,24604 12270,24098 11820,23799 11624,23669 11366,23645 11127,23599 11130,23598 11136,23595 11146,23592 11182,23588 11219,23584 11256,23579 11602,23537 11939,23474 12270,23393 12474,23626 13028,24241 13306,24002 13495,23644 12900,23421 12574,23313 12863,23231 13147,23135 13429,23025 13569,23208 13777,23321 13989,23372 14972,23607 15030,22806 13806,22870 L 13820,22864 C 14127,22730 14427,22572 14714,22402 L 14847,22509 C 14899,22540 15038,22592 15125,22615 15885,22816 16079,22180 15547,22085 15431,22065 15312,22074 15192,22096 15280,22035 15367,21974 15453,21911 15476,21894 15496,21882 15519,21863 15543,21844 15557,21832 15584,21814 L 15879,21571 C 16202,21719 16844,21980 16991,21678 17018,21322 16526,21305 16174,21328 16320,21213 16681,20822 16809,20694 16820,20683 16827,20674 16833,20666 17024,20761 17242,20780 17443,20746 18429,20584 18188,19837 17113,20338 L 17135,20313 C 17307,20113 17511,19829 17688,19557 L 17899,19618 C 17959,19627 18106,19622 18195,19609 18974,19500 18906,18839 18379,18958 18207,18997 18053,19102 17904,19211 17935,19159 17964,19108 17989,19062 L 18351,18350 C 18615,18361 19532,18409 19553,18022 19426,17644 18773,17926 18442,18153 L 18456,18122 C 18505,18010 18545,17902 18590,17787 18628,17691 18674,17569 18716,17446 18966,17037 19424,16286 18963,16126 18756,16056 18628,16648 18591,16820 18572,16906 18560,17042 18547,17181 18489,17380 18418,17581 18339,17774 18315,17832 18281,17915 18242,18008 18204,17732 18136,17138 17854,16866 17633,16652 17397,16963 17577,17540 17698,17931 17900,18063 18089,18361 18049,18449 18011,18525 17981,18576 17952,18625 17933,18675 17902,18727 17813,18874 17742,19026 17650,19165 17631,19195 17611,19226 17592,19258 17573,19102 17613,18934 17470,18573 17377,18337 17186,17991 16933,18088 16480,18264 17197,19195 17476,19443 17445,19492 17413,19540 17380,19584 17344,19632 17315,19680 17282,19725 L 17085,19989 C 17024,20076 16940,20157 16880,20243 16857,20276 16824,20316 16785,20360 16763,20123 16792,19955 16695,19644 16630,19432 16472,18963 16207,19035 15889,19121 15969,19525 16076,19741 16236,20065 16414,20256 16664,20492 16601,20559 16541,20623 16502,20671 16398,20799 16215,20949 16096,21069 L 15913,21232 C 15891,21249 15874,21267 15853,21286 L 15836,21301 C 15832,21285 15814,21271 15763,21265 15793,21090 16054,20375 15873,19954 15752,19672 15414,19866 15356,20468 15314,20897 15466,21096 15520,21480 15327,21672 14932,21965 14691,22106 14724,21933 14847,21808 14857,21378 14863,21125 14820,20732 14550,20724 14048,20709 14383,21917 14540,22212 14503,22236 14462,22263 14416,22294 14125,22454 13837,22595 13546,22719 13615,22516 13697,22370 13727,22065 13749,21844 13786,21351 13513,21315 13186,21271 13104,21674 13119,21914 13140,22261 13224,22502 13354,22799 13029,22929 12697,23038 12348,23128 12452,22974 12966,22428 12968,21974 12970,21667 12582,21711 12289,22239 12086,22606 12136,22846 12045,23201 11970,23218 11894,23234 11817,23249 11594,23293 11367,23327 11138,23352 11230,23259 11346,23145 11470,22877 11576,22646 11693,22268 11448,22153 11043,21962 10861,22933 10845,23380 9552,23478 8206,23290 7027,22832 6911,22788 6803,22746 6694,22695 L 6379,22551 C 6104,22429 5614,22158 5350,21968 L 5078,21781 C 4803,21588 4420,21286 4186,21053 3978,20846 3635,20524 3459,20286 L 3302,20098 C 3233,20017 3172,19928 3101,19838 L 2911,19569 C 2877,19516 2848,19481 2814,19427 L 2551,19000 C 2236,18462 1921,17766 1748,17158 1739,17127 1733,17086 1707,17080 L 1477,17081 C 1526,17308 1631,17575 1713,17794 L 1920,18296 C 2039,18558 2173,18820 2314,19069 2431,19274 2550,19457 2674,19647 2805,19848 3062,20201 3226,20386 3244,20407 3262,20427 3280,20447 3322,20495 3345,20531 3389,20577 L 3556,20764 C 3615,20840 3941,21156 4024,21234 4049,21258 4062,21259 4088,21284 4129,21324 4163,21355 4207,21395 4267,21451 4400,21570 4460,21611 4484,21628 4504,21645 4529,21666 4552,21687 4560,21692 4593,21716 4771,21850 4947,21993 5135,22112 L 5562,22385 C 5961,22633 6377,22828 6816,23006 7265,23189 7772,23352 8253,23446 8381,23471 8515,23500 8646,23521 8782,23544 8918,23562 9053,23580 9197,23599 9338,23613 9483,23622 9531,23625 9912,23642 9923,23648 Z M 9923,23648 L 9923,23648 Z M 2573,17377 C 2448,17052 2547,17075 2306,17081 2330,17188 2378,17307 2415,17412 2520,17715 2654,18026 2787,18313 L 2896,18523 C 2910,18547 2916,18565 2931,18594 L 3242,19132 C 3299,19221 3354,19300 3411,19387 3521,19553 3669,19731 3773,19883 3902,20069 4443,20655 4583,20771 L 4806,20973 C 4922,21078 5151,21274 5278,21359 5440,21467 5589,21588 5777,21709 6601,22239 7500,22624 8477,22831 8719,22883 8948,22919 9206,22952 9446,22983 9754,23008 9996,23008 10232,23008 10441,23003 10640,22991 L 10642,22832 C 10268,22856 9877,22856 9532,22822 8944,22763 8352,22672 7798,22485 7309,22320 7062,22224 6622,22006 6073,21734 5706,21473 5234,21120 L 4948,20884 C 4933,20872 4914,20853 4897,20838 4802,20751 4460,20435 4419,20378 4400,20352 4401,20350 4375,20325 4183,20135 4013,19925 3846,19713 L 3754,19593 C 3738,19571 3733,19558 3715,19535 L 3546,19297 C 3434,19122 3326,18966 3224,18787 2922,18258 2788,17935 2573,17377 Z"/>
        </g>
       </g>
       <g class="com.sun.star.drawing.ClosedBezierShape">
        <g id="id4">
         <rect class="BoundingBox" stroke="none" fill="none" x="1638" y="5382" width="17026" height="6090"/>
         <path fill="rgb(231,91,120)" stroke="none" d="M 10163,5383 L 10136,5383 C 10097,5402 9772,5392 9695,5396 9559,5402 9407,5415 9270,5428 8740,5481 8245,5573 7735,5715 7079,5897 6388,6170 5799,6511 5419,6731 5040,6957 4699,7233 4577,7332 4433,7438 4322,7537 L 4083,7749 C 3966,7862 3838,7966 3730,8086 L 3512,8319 C 3157,8688 2805,9187 2524,9614 2462,9709 2410,9801 2353,9895 2324,9943 2297,9992 2271,10042 2244,10091 2213,10142 2189,10190 2034,10499 1881,10806 1756,11128 1730,11195 1640,11408 1638,11465 L 1880,11464 C 1896,11438 2086,10945 2136,10844 2184,10746 2227,10643 2277,10544 2483,10135 2719,9748 2972,9372 3124,9148 3325,8893 3502,8691 3537,8650 3575,8615 3608,8575 3644,8531 3682,8485 3711,8457 3787,8380 3851,8306 3927,8230 4112,8047 4294,7864 4503,7700 L 4991,7313 C 5210,7161 5423,7001 5654,6870 5751,6816 5836,6766 5935,6709 6317,6488 6738,6306 7150,6155 8797,5549 10741,5448 12468,5936 12706,6003 12910,6071 13138,6150 13561,6297 13960,6490 14348,6700 14532,6800 14716,6909 14901,7031 14946,7060 14986,7089 15034,7119 15260,7263 15516,7459 15721,7635 15858,7753 16012,7878 16134,8000 16253,8118 16349,8194 16466,8332 16532,8408 16613,8478 16683,8559 16697,8576 16714,8599 16731,8616 16898,8791 17030,8972 17177,9169 17374,9431 17545,9683 17705,9959 17925,10339 18124,10735 18291,11142 18313,11195 18335,11250 18354,11300 18436,11516 18375,11467 18662,11464 18663,11396 18451,10905 18410,10811 18319,10598 18219,10400 18113,10197 17990,9963 17759,9562 17601,9347 L 17112,8695 C 17022,8586 16949,8490 16850,8390 16821,8362 16822,8355 16799,8327 16731,8244 16648,8167 16573,8092 16496,8015 16424,7947 16345,7869 L 15990,7544 C 15973,7530 15975,7535 15958,7522 L 15671,7288 C 15648,7269 15631,7253 15607,7236 15471,7142 15349,7043 15211,6951 14553,6514 14025,6239 13259,5940 12581,5676 11765,5496 11038,5429 10898,5416 10753,5406 10613,5396 10530,5390 10205,5401 10163,5383 Z"/>
        </g>
       </g>
       <g class="com.sun.star.drawing.ClosedBezierShape">
        <g id="id5">
         <rect class="BoundingBox" stroke="none" fill="none" x="2478" y="6028" width="15346" height="5439"/>
         <path fill="rgb(231,91,120)" stroke="none" d="M 2479,11465 L 2639,11465 2877,10914 C 3044,10530 3348,10002 3601,9655 3727,9482 3841,9315 3982,9152 L 4208,8883 C 4240,8848 4271,8812 4306,8778 4379,8706 4539,8521 4599,8478 L 4903,8189 C 5082,8019 5359,7817 5565,7666 5645,7607 5711,7562 5801,7504 6139,7283 6447,7107 6813,6931 7749,6482 8978,6185 10031,6185 11062,6185 11966,6332 12929,6695 13022,6730 13115,6769 13206,6806 L 13748,7060 C 13837,7109 13921,7149 14008,7199 14103,7255 14166,7290 14253,7344 14454,7470 14658,7599 14845,7743 L 15178,8003 C 15216,8031 15246,8066 15282,8093 15307,8112 15312,8114 15337,8136 15407,8200 15471,8272 15546,8325 15606,8366 15746,8516 15803,8572 L 15947,8720 C 15964,8739 15972,8757 15989,8775 16049,8844 16123,8909 16180,8982 16202,9009 16204,9015 16223,9037 L 16313,9141 C 16432,9280 16599,9500 16697,9650 16857,9894 17009,10125 17156,10386 17251,10554 17335,10736 17421,10908 17466,10997 17504,11091 17544,11183 17576,11256 17619,11402 17661,11464 L 17822,11465 C 17829,11381 17540,10770 17468,10631 17423,10542 17375,10455 17328,10365 17281,10274 17234,10196 17184,10110 17136,10026 17090,9950 17034,9862 16986,9787 16934,9702 16876,9622 L 16624,9272 C 16610,9254 16596,9239 16580,9219 16477,9088 16378,8957 16266,8835 L 16122,8678 C 16102,8652 16099,8645 16073,8620 L 15775,8317 C 15674,8216 15566,8127 15461,8029 15398,7971 15310,7893 15239,7844 15199,7817 15172,7788 15127,7753 14826,7523 14522,7309 14172,7107 13834,6913 13461,6725 13086,6582 12696,6432 12292,6301 11858,6209 11476,6128 10832,6029 10429,6029 9948,6029 9629,6027 9146,6088 7891,6251 6685,6709 5645,7411 5446,7545 5151,7756 4960,7928 L 4644,8205 C 4600,8240 4581,8270 4539,8303 4477,8355 4392,8445 4335,8505 L 4003,8873 C 3981,8898 3972,8910 3955,8930 3935,8952 3927,8960 3909,8982 3889,9005 3885,9015 3867,9037 3544,9431 3260,9845 3012,10288 2900,10488 2478,11335 2479,11465 Z"/>
        </g>
       </g>
       <g class="com.sun.star.drawing.ClosedBezierShape">
        <g id="id6">
         <rect class="BoundingBox" stroke="none" fill="none" x="18137" y="13372" width="691" height="666"/>
         <path fill="rgb(231,91,120)" stroke="none" d="M 18308,13384 C 18218,13488 18069,13596 18172,13849 18238,14009 18458,14083 18632,14004 18894,13886 18983,13279 18308,13384 Z"/>
        </g>
       </g>
       <g class="com.sun.star.drawing.ClosedBezierShape">
        <g id="id7">
         <rect class="BoundingBox" stroke="none" fill="none" x="1449" y="13613" width="688" height="673"/>
         <path fill="rgb(231,91,120)" stroke="none" d="M 1927,13619 C 1310,13548 1366,14174 1669,14267 1865,14327 2054,14230 2108,14071 2192,13821 2069,13738 1927,13619 Z"/>
        </g>
       </g>
       <g class="com.sun.star.drawing.ClosedBezierShape">
        <g id="id8">
         <rect class="BoundingBox" stroke="none" fill="none" x="9991" y="18737" width="217" height="133"/>
         <path fill="rgb(199,199,198)" stroke="none" d="M 10026,18799 C 10201,18886 9801,18884 10116,18833 L 10206,18799 C 10099,18707 10137,18725 10026,18799 Z"/>
        </g>
       </g>
       <g class="Group">
        <g class="Group">
         <g class="com.sun.star.drawing.ClosedBezierShape">
          <g id="id9">
           <rect class="BoundingBox" stroke="none" fill="none" x="3436" y="14718" width="4687" height="2968"/>
           <path fill="rgb(231,91,120)" stroke="none" d="M 3542,16115 C 3538,16089 3535,16056 3535,16027 3538,15921 3575,15800 3634,15672 3754,15397 3974,15100 4157,14895 4124,15130 4132,15470 4143,15836 4154,16188 4161,16563 4139,16874 4102,16892 4073,16910 4040,16925 3985,16958 3934,16987 3853,17024 3637,17127 3535,17273 3516,17401 3509,17460 3516,17515 3542,17559 3568,17606 3608,17643 3659,17665 3718,17687 3791,17687 3875,17658 3908,17650 3941,17636 3970,17614 3996,17599 4022,17581 4047,17562 4263,17398 4370,17145 4417,16848 4494,16812 4571,16768 4641,16713 4736,16639 4813,16541 4860,16405 4882,16347 4794,16299 4769,16376 4729,16493 4663,16574 4582,16639 4534,16676 4483,16705 4432,16731 4469,16427 4450,16082 4432,15756 4414,15430 4399,15119 4439,14881 4443,14848 4439,14818 4425,14796 4414,14774 4395,14756 4377,14745 4355,14734 4337,14727 4315,14727 4260,14717 4201,14727 4165,14745 L 4154,14756 C 3956,14965 3689,15309 3546,15635 3483,15771 3447,15902 3440,16023 3440,16060 3443,16096 3447,16129 3447,16133 3450,16137 3450,16140 3465,16218 3502,16288 3560,16347 3593,16379 3637,16405 3689,16427 3732,16449 3765,16449 3791,16442 3809,16434 3820,16423 3828,16405 3839,16390 3839,16376 3835,16358 3831,16332 3809,16299 3776,16277 3751,16259 3725,16251 3692,16240 3637,16222 3568,16195 3542,16115 Z M 3542,16115 L 3542,16115 Z M 3923,17529 C 3828,17588 3747,17595 3692,17573 3663,17562 3641,17544 3626,17515 3612,17489 3604,17452 3612,17416 3623,17313 3710,17196 3894,17112 3978,17072 4033,17042 4088,17009 L 4128,16987 C 4099,17247 4036,17445 3923,17529 Z M 3923,17529 L 3923,17529 Z M 5296,15774 C 5289,15738 5267,15705 5238,15679 5219,15664 5197,15653 5175,15646 5128,15631 5076,15639 5036,15679 4857,15851 4762,16148 4762,16427 4762,16530 4776,16632 4805,16724 4835,16815 4879,16899 4937,16962 4992,17020 5058,17061 5139,17079 5238,17105 5340,17097 5424,17039 5509,16980 5571,16878 5611,16760 5684,16753 5776,16720 5861,16650 5927,16596 5989,16519 6030,16409 6052,16343 5960,16314 5938,16376 5905,16467 5854,16533 5799,16577 5747,16621 5688,16647 5637,16658 5666,16537 5673,16401 5662,16273 5651,16144 5622,16023 5571,15932 5509,15818 5417,15752 5296,15774 Z M 5296,15774 L 5296,15774 Z M 5234,15913 C 5267,15873 5314,15855 5366,15869 5417,15880 5457,15921 5487,15979 5531,16056 5556,16162 5567,16281 5574,16401 5567,16526 5545,16639 L 5538,16665 C 5402,16650 5307,16574 5249,16475 5208,16409 5183,16332 5172,16255 5161,16181 5164,16104 5179,16038 5190,15987 5208,15943 5234,15913 Z M 5234,15913 L 5234,15913 Z M 5080,16288 C 5095,16368 5124,16453 5164,16522 5238,16643 5351,16735 5509,16757 5476,16848 5424,16925 5362,16965 5311,16998 5252,17002 5197,16962 5142,16925 5102,16845 5080,16746 5058,16639 5054,16515 5065,16390 L 5080,16288 Z M 5080,16288 L 5080,16288 Z M 5307,15309 C 5362,15251 5417,15199 5446,15170 5483,15133 5479,15060 5454,15002 5443,14983 5435,14969 5424,14958 5410,14939 5391,14925 5373,14921 5340,14914 5307,14921 5282,14958 5238,15020 5194,15086 5161,15148 5113,15229 5076,15305 5058,15353 5047,15379 5047,15401 5051,15415 5058,15434 5065,15445 5080,15452 5091,15459 5102,15463 5117,15463 5135,15463 5157,15452 5172,15437 L 5307,15309 Z M 5307,15309 L 5307,15309 Z M 6312,16973 C 6301,16984 6290,16980 6286,16969 6268,16932 6249,16859 6238,16764 6224,16614 6224,16420 6246,16226 6253,16133 6268,16045 6282,15961 6293,15906 6253,15858 6198,15833 6176,15822 6150,15815 6125,15811 6099,15807 6074,15811 6052,15815 6008,15829 5975,15862 5975,15917 5949,16100 5938,16266 5938,16405 5938,16610 5964,16771 6011,16885 6059,17006 6136,17075 6231,17090 6242,17094 6253,17094 6264,17094 6290,17094 6301,17090 6323,17079 6403,17035 6476,16918 6539,16786 6601,16643 6656,16489 6681,16409 6703,16343 6612,16314 6590,16376 6564,16453 6513,16607 6451,16746 6407,16845 6356,16932 6312,16973 Z M 6312,16973 L 6312,16973 Z M 6147,15375 C 6128,15364 6114,15357 6096,15357 6074,15353 6052,15357 6037,15364 6015,15371 6000,15382 5989,15404 5956,15467 6033,15569 6092,15650 6106,15668 6117,15686 6128,15697 L 6161,15745 6198,15701 6260,15635 C 6334,15558 6407,15481 6370,15415 6356,15390 6337,15375 6312,15368 6293,15360 6275,15360 6257,15364 6242,15368 6224,15375 6209,15382 L 6183,15401 C 6172,15390 6161,15382 6147,15375 Z M 6147,15375 L 6147,15375 Z M 7674,16969 C 7612,17006 7593,16936 7586,16863 7579,16771 7579,16650 7586,16515 7601,16255 7637,15954 7699,15767 7718,15701 7685,15642 7634,15609 7619,15598 7597,15587 7579,15580 7557,15573 7538,15573 7516,15573 7469,15576 7429,15602 7418,15653 L 7407,15694 7377,15811 C 7374,15807 7374,15804 7374,15800 7352,15741 7322,15694 7282,15664 7253,15642 7223,15635 7190,15631 6934,15602 6755,15796 6659,16053 6616,16173 6590,16310 6583,16442 6575,16570 6590,16698 6627,16804 6681,16980 6795,17097 6971,17083 7117,17072 7234,16823 7308,16585 7330,16837 7410,17020 7568,17072 7571,17072 7571,17072 7575,17075 L 7582,17075 C 7685,17101 7784,17028 7868,16907 7967,16775 8055,16577 8113,16401 8139,16321 8047,16292 8022,16376 7963,16544 7883,16727 7791,16852 7751,16907 7710,16947 7674,16969 Z M 7674,16969 L 7674,16969 Z M 7161,15749 C 7201,15727 7227,15738 7249,15767 7260,15782 7271,15807 7282,15833 7308,15906 7319,16009 7322,16115 7319,16137 7315,16155 7315,16177 7282,16343 7143,16973 6963,16987 6930,16991 6905,16947 6887,16874 6865,16779 6861,16636 6876,16486 6887,16336 6919,16177 6967,16042 7018,15899 7084,15785 7161,15749 Z"/>
           <path fill="none" stroke="rgb(231,91,120)" stroke-width="8" stroke-linejoin="miter" d="M 3542,16115 C 3538,16089 3535,16056 3535,16027 3538,15921 3575,15800 3634,15672 3754,15397 3974,15100 4157,14895 4124,15130 4132,15470 4143,15836 4154,16188 4161,16563 4139,16874 4102,16892 4073,16910 4040,16925 3985,16958 3934,16987 3853,17024 3637,17127 3535,17273 3516,17401 3509,17460 3516,17515 3542,17559 3568,17606 3608,17643 3659,17665 3718,17687 3791,17687 3875,17658 3908,17650 3941,17636 3970,17614 3996,17599 4022,17581 4047,17562 4263,17398 4370,17145 4417,16848 4494,16812 4571,16768 4641,16713 4736,16639 4813,16541 4860,16405 4882,16347 4794,16299 4769,16376 4729,16493 4663,16574 4582,16639 4534,16676 4483,16705 4432,16731 4469,16427 4450,16082 4432,15756 4414,15430 4399,15119 4439,14881 4443,14848 4439,14818 4425,14796 4414,14774 4395,14756 4377,14745 4355,14734 4337,14727 4315,14727 4260,14717 4201,14727 4165,14745 L 4154,14756 C 3956,14965 3689,15309 3546,15635 3483,15771 3447,15902 3440,16023 3440,16060 3443,16096 3447,16129 3447,16133 3450,16137 3450,16140 3465,16218 3502,16288 3560,16347 3593,16379 3637,16405 3689,16427 3732,16449 3765,16449 3791,16442 3809,16434 3820,16423 3828,16405 3839,16390 3839,16376 3835,16358 3831,16332 3809,16299 3776,16277 3751,16259 3725,16251 3692,16240 3637,16222 3568,16195 3542,16115 Z"/>
           <path fill="none" stroke="rgb(231,91,120)" stroke-width="8" stroke-linejoin="miter" d="M 3923,17529 C 3828,17588 3747,17595 3692,17573 3663,17562 3641,17544 3626,17515 3612,17489 3604,17452 3612,17416 3623,17313 3710,17196 3894,17112 3978,17072 4033,17042 4088,17009 L 4128,16987 C 4099,17247 4036,17445 3923,17529 Z"/>
           <path fill="none" stroke="rgb(231,91,120)" stroke-width="8" stroke-linejoin="miter" d="M 5296,15774 C 5289,15738 5267,15705 5238,15679 5219,15664 5197,15653 5175,15646 5128,15631 5076,15639 5036,15679 4857,15851 4762,16148 4762,16427 4762,16530 4776,16632 4805,16724 4835,16815 4879,16899 4937,16962 4992,17020 5058,17061 5139,17079 5238,17105 5340,17097 5424,17039 5509,16980 5571,16878 5611,16760 5684,16753 5776,16720 5861,16650 5927,16596 5989,16519 6030,16409 6052,16343 5960,16314 5938,16376 5905,16467 5854,16533 5799,16577 5747,16621 5688,16647 5637,16658 5666,16537 5673,16401 5662,16273 5651,16144 5622,16023 5571,15932 5509,15818 5417,15752 5296,15774 Z"/>
           <path fill="none" stroke="rgb(231,91,120)" stroke-width="8" stroke-linejoin="miter" d="M 5234,15913 C 5267,15873 5314,15855 5366,15869 5417,15880 5457,15921 5487,15979 5531,16056 5556,16162 5567,16281 5574,16401 5567,16526 5545,16639 L 5538,16665 C 5402,16650 5307,16574 5249,16475 5208,16409 5183,16332 5172,16255 5161,16181 5164,16104 5179,16038 5190,15987 5208,15943 5234,15913 Z"/>
           <path fill="none" stroke="rgb(231,91,120)" stroke-width="8" stroke-linejoin="miter" d="M 5080,16288 C 5095,16368 5124,16453 5164,16522 5238,16643 5351,16735 5509,16757 5476,16848 5424,16925 5362,16965 5311,16998 5252,17002 5197,16962 5142,16925 5102,16845 5080,16746 5058,16639 5054,16515 5065,16390 L 5080,16288 Z"/>
           <path fill="none" stroke="rgb(231,91,120)" stroke-width="8" stroke-linejoin="miter" d="M 5307,15309 C 5362,15251 5417,15199 5446,15170 5483,15133 5479,15060 5454,15002 5443,14983 5435,14969 5424,14958 5410,14939 5391,14925 5373,14921 5340,14914 5307,14921 5282,14958 5238,15020 5194,15086 5161,15148 5113,15229 5076,15305 5058,15353 5047,15379 5047,15401 5051,15415 5058,15434 5065,15445 5080,15452 5091,15459 5102,15463 5117,15463 5135,15463 5157,15452 5172,15437 L 5307,15309 Z"/>
           <path fill="none" stroke="rgb(231,91,120)" stroke-width="8" stroke-linejoin="miter" d="M 6312,16973 C 6301,16984 6290,16980 6286,16969 6268,16932 6249,16859 6238,16764 6224,16614 6224,16420 6246,16226 6253,16133 6268,16045 6282,15961 6293,15906 6253,15858 6198,15833 6176,15822 6150,15815 6125,15811 6099,15807 6074,15811 6052,15815 6008,15829 5975,15862 5975,15917 5949,16100 5938,16266 5938,16405 5938,16610 5964,16771 6011,16885 6059,17006 6136,17075 6231,17090 6242,17094 6253,17094 6264,17094 6290,17094 6301,17090 6323,17079 6403,17035 6476,16918 6539,16786 6601,16643 6656,16489 6681,16409 6703,16343 6612,16314 6590,16376 6564,16453 6513,16607 6451,16746 6407,16845 6356,16932 6312,16973 Z"/>
           <path fill="none" stroke="rgb(231,91,120)" stroke-width="8" stroke-linejoin="miter" d="M 6147,15375 C 6128,15364 6114,15357 6096,15357 6074,15353 6052,15357 6037,15364 6015,15371 6000,15382 5989,15404 5956,15467 6033,15569 6092,15650 6106,15668 6117,15686 6128,15697 L 6161,15745 6198,15701 6260,15635 C 6334,15558 6407,15481 6370,15415 6356,15390 6337,15375 6312,15368 6293,15360 6275,15360 6257,15364 6242,15368 6224,15375 6209,15382 L 6183,15401 C 6172,15390 6161,15382 6147,15375 Z"/>
           <path fill="none" stroke="rgb(231,91,120)" stroke-width="8" stroke-linejoin="miter" d="M 7674,16969 C 7612,17006 7593,16936 7586,16863 7579,16771 7579,16650 7586,16515 7601,16255 7637,15954 7699,15767 7718,15701 7685,15642 7634,15609 7619,15598 7597,15587 7579,15580 7557,15573 7538,15573 7516,15573 7469,15576 7429,15602 7418,15653 L 7407,15694 7377,15811 C 7374,15807 7374,15804 7374,15800 7352,15741 7322,15694 7282,15664 7253,15642 7223,15635 7190,15631 6934,15602 6755,15796 6659,16053 6616,16173 6590,16310 6583,16442 6575,16570 6590,16698 6627,16804 6681,16980 6795,17097 6971,17083 7117,17072 7234,16823 7308,16585 7330,16837 7410,17020 7568,17072 7571,17072 7571,17072 7575,17075 L 7582,17075 C 7685,17101 7784,17028 7868,16907 7967,16775 8055,16577 8113,16401 8139,16321 8047,16292 8022,16376 7963,16544 7883,16727 7791,16852 7751,16907 7710,16947 7674,16969 Z"/>
           <path fill="none" stroke="rgb(231,91,120)" stroke-width="8" stroke-linejoin="miter" d="M 7161,15749 C 7201,15727 7227,15738 7249,15767 7260,15782 7271,15807 7282,15833 7308,15906 7319,16009 7322,16115 7319,16137 7315,16155 7315,16177 7282,16343 7143,16973 6963,16987 6930,16991 6905,16947 6887,16874 6865,16779 6861,16636 6876,16486 6887,16336 6919,16177 6967,16042 7018,15899 7084,15785 7161,15749 Z"/>
          </g>
         </g>
         <g class="com.sun.star.drawing.ClosedBezierShape">
          <g id="id10">
           <rect class="BoundingBox" stroke="none" fill="none" x="8456" y="14687" width="8657" height="2691"/>
           <path fill="rgb(117,198,217)" stroke="none" d="M 9261,17098 C 9254,17066 9250,17014 9247,16978 9228,16798 9228,16493 9236,16182 9250,15761 9283,15317 9327,15112 9342,15046 9309,14998 9265,14969 9243,14958 9221,14951 9195,14947 9170,14943 9144,14947 9122,14958 9082,14972 9056,15005 9056,15057 9009,15269 8972,15578 8954,15882 8924,16306 8921,16732 8939,16901 L 8943,16923 C 8950,17000 8957,17055 8990,17102 9049,17186 9254,17201 9349,17197 9697,17194 9957,16981 10115,16684 10213,16497 10276,16281 10298,16057 10316,15834 10298,15607 10235,15402 10115,15002 9836,14691 9378,14691 9074,14691 8844,14786 8686,14921 8595,15005 8525,15104 8492,15207 8457,15313 8449,15420 8478,15519 8511,15633 8584,15732 8705,15801 8749,15827 8785,15830 8811,15819 8825,15812 8840,15801 8847,15786 8855,15775 8858,15757 8858,15743 8855,15713 8836,15677 8796,15651 8774,15636 8749,15625 8719,15614 8661,15592 8591,15567 8565,15475 8547,15402 8554,15320 8580,15240 8609,15152 8668,15068 8752,14994 8891,14870 9100,14782 9378,14786 9638,14786 9789,14980 9876,15218 9939,15398 9972,15614 9972,15838 9975,16061 9942,16292 9887,16493 9796,16817 9638,17066 9422,17098 9371,17102 9316,17106 9261,17098 Z M 9261,17098 L 9261,17098 Z M 10720,16592 C 10896,16523 11020,16354 11086,16186 11115,16109 11130,16028 11134,15959 11134,15882 11123,15816 11090,15768 11060,15721 11016,15691 10958,15688 10782,15673 10643,15786 10550,15955 10495,16050 10462,16164 10444,16281 10426,16398 10422,16519 10444,16632 10484,16860 10605,17055 10826,17113 10972,17153 11108,17098 11221,16978 11339,16857 11434,16665 11511,16435 11536,16361 11441,16336 11423,16402 11350,16621 11258,16802 11152,16912 11071,17000 10980,17044 10881,17029 10804,17011 10756,16897 10734,16743 10727,16695 10720,16647 10720,16592 Z M 10720,16592 L 10720,16592 Z M 10954,15783 C 10980,15786 10998,15797 11013,15819 11031,15852 11038,15900 11038,15955 11035,16017 11020,16083 10994,16153 10943,16288 10852,16420 10720,16490 10720,16442 10723,16398 10727,16354 10742,16222 10767,16090 10804,15984 10844,15867 10899,15783 10954,15783 Z M 10954,15783 L 10954,15783 Z M 11701,16208 C 11782,16109 11954,15823 12086,15534 12155,15376 12210,15214 12236,15082 12258,14936 12243,14819 12155,14760 12137,14749 12119,14742 12100,14734 11928,14691 11771,14866 11654,15145 11569,15342 11500,15592 11460,15849 11423,16101 11408,16361 11434,16577 11467,16886 11580,17109 11796,17124 11921,17139 12027,17018 12111,16864 12188,16721 12251,16548 12287,16431 12309,16369 12221,16336 12199,16402 12163,16512 12104,16680 12027,16817 11958,16945 11877,17044 11796,17029 11738,17014 11705,16860 11694,16643 11687,16515 11690,16365 11701,16208 Z M 11701,16208 L 11701,16208 Z M 12104,14841 C 12152,14874 12159,14958 12141,15068 12119,15189 12064,15342 11998,15493 11910,15691 11800,15885 11720,16017 L 11731,15896 C 11767,15633 11818,15373 11884,15170 11947,14969 12016,14833 12082,14830 L 12104,14841 Z M 12104,14841 L 12104,14841 Z M 12573,17000 C 12562,17011 12551,17007 12547,16996 12529,16959 12511,16886 12500,16791 12485,16640 12485,16446 12507,16252 12514,16160 12529,16072 12543,15988 12554,15933 12514,15885 12459,15860 12437,15849 12412,15841 12386,15838 12360,15834 12335,15838 12313,15841 12269,15856 12236,15889 12236,15944 12210,16127 12199,16292 12199,16431 12199,16636 12225,16798 12272,16912 12320,17033 12397,17102 12492,17117 12503,17120 12514,17120 12525,17120 12551,17120 12562,17117 12584,17106 12664,17062 12738,16945 12800,16813 12862,16669 12917,16515 12943,16435 12965,16369 12873,16339 12851,16402 12825,16479 12774,16632 12712,16773 12668,16871 12617,16959 12573,17000 Z M 12573,17000 L 12573,17000 Z M 12470,15457 C 12525,15398 12580,15346 12609,15317 12646,15280 12642,15207 12617,15148 12606,15130 12598,15115 12587,15104 12573,15086 12554,15071 12536,15068 12503,15060 12470,15068 12445,15104 12401,15167 12357,15232 12324,15295 12276,15376 12240,15453 12221,15501 12210,15526 12210,15548 12214,15563 12221,15581 12229,15592 12243,15600 12254,15607 12265,15611 12280,15611 12298,15611 12320,15600 12335,15585 L 12470,15457 Z M 12470,15457 L 12470,15457 Z M 13371,15783 C 13393,15786 13415,15790 13430,15797 13474,15812 13507,15845 13525,15889 13529,15896 13532,15904 13532,15911 13558,15992 13510,16046 13470,16090 13455,16109 13444,16120 13437,16134 13404,16182 13404,16230 13415,16263 13422,16284 13433,16299 13452,16310 13470,16321 13492,16321 13518,16314 13547,16299 13580,16266 13609,16189 13627,16145 13638,16098 13642,16046 13646,15992 13642,15937 13624,15885 L 13613,15849 C 13584,15786 13536,15735 13466,15706 13441,15699 13408,15691 13375,15688 13203,15673 13060,15786 12968,15955 12917,16050 12880,16164 12862,16281 12844,16398 12844,16519 12862,16632 12902,16860 13023,17055 13243,17113 13393,17153 13536,17098 13660,16974 13785,16853 13891,16662 13968,16431 13986,16376 13895,16343 13876,16402 13803,16618 13708,16795 13595,16908 13503,16996 13404,17044 13298,17025 13221,17011 13173,16897 13151,16743 13133,16625 13133,16490 13144,16354 13159,16222 13184,16090 13221,15984 13265,15867 13316,15783 13371,15783 Z M 13371,15783 L 13371,15783 Z M 14250,17000 C 14239,17011 14228,17007 14224,16996 14206,16959 14188,16886 14177,16791 14162,16640 14162,16446 14184,16252 14191,16160 14206,16072 14221,15988 14232,15933 14191,15885 14136,15860 14115,15849 14089,15841 14063,15838 14038,15834 14012,15838 13990,15841 13946,15856 13913,15889 13913,15944 13887,16127 13876,16292 13876,16431 13876,16636 13902,16798 13950,16912 13997,17033 14074,17102 14169,17117 14180,17120 14191,17120 14202,17120 14228,17120 14239,17117 14261,17106 14342,17062 14415,16945 14477,16813 14539,16669 14594,16515 14620,16435 14642,16369 14550,16339 14528,16402 14503,16479 14451,16632 14389,16773 14345,16871 14294,16959 14250,17000 Z M 14250,17000 L 14250,17000 Z M 14085,15402 C 14067,15391 14052,15384 14034,15384 14012,15380 13990,15384 13975,15391 13953,15398 13939,15409 13928,15431 13895,15493 13972,15596 14030,15677 14045,15695 14056,15713 14067,15724 L 14100,15772 14136,15728 14199,15662 C 14272,15585 14345,15508 14309,15442 14294,15417 14276,15402 14250,15395 14232,15387 14213,15387 14195,15391 14180,15395 14162,15402 14147,15409 L 14122,15428 C 14111,15417 14100,15409 14085,15402 Z M 14085,15402 L 14085,15402 Z M 15613,16996 C 15551,17033 15533,16963 15525,16890 15518,16798 15518,16676 15525,16541 15540,16281 15577,15981 15639,15794 15657,15728 15624,15669 15573,15636 15558,15625 15536,15614 15518,15607 15496,15600 15478,15600 15456,15600 15408,15603 15368,15629 15357,15680 L 15346,15721 15317,15838 C 15313,15834 15313,15830 15313,15827 15291,15768 15262,15721 15221,15691 15192,15669 15163,15662 15130,15658 14873,15629 14693,15823 14598,16079 14554,16200 14528,16336 14521,16468 14514,16596 14528,16725 14565,16831 14620,17007 14733,17124 14909,17109 15057,17098 15174,16849 15247,16610 15269,16864 15350,17047 15507,17098 15511,17098 15511,17098 15514,17102 L 15522,17102 C 15624,17128 15723,17055 15807,16934 15906,16802 15994,16603 16053,16427 16078,16347 15987,16317 15961,16402 15903,16570 15822,16754 15730,16879 15690,16934 15650,16974 15613,16996 Z M 15613,16996 L 15613,16996 Z M 15101,15775 C 15141,15753 15167,15764 15189,15794 15199,15808 15210,15834 15221,15860 15247,15933 15258,16035 15262,16142 15258,16164 15254,16182 15254,16204 15221,16369 15082,17000 14902,17014 14869,17018 14843,16974 14825,16901 14803,16806 14799,16662 14814,16512 14825,16361 14858,16204 14906,16068 14958,15926 15024,15812 15101,15775 Z M 15101,15775 L 15101,15775 Z M 15961,16402 C 15939,16479 16034,16493 16053,16431 L 16089,16314 16093,16299 C 16144,16361 16203,16420 16261,16479 16349,16559 16430,16640 16474,16725 L 16423,16732 C 16327,16743 16236,16758 16148,16784 15998,16827 15917,16923 15892,17025 15884,17069 15884,17113 15895,17153 15906,17197 15925,17238 15954,17271 16009,17329 16089,17369 16192,17373 16265,17373 16327,17358 16390,17329 16522,17278 16620,17194 16690,17102 16774,16989 16807,16857 16800,16743 16935,16691 17045,16603 17104,16431 17126,16369 17038,16339 17012,16402 16968,16526 16884,16599 16782,16647 16730,16486 16591,16354 16456,16230 16353,16134 16254,16043 16214,15951 16199,15915 16188,15874 16185,15838 16174,15746 16203,15629 16313,15633 16353,15633 16390,15644 16423,15658 16452,15673 16481,15695 16503,15724 16518,15753 16522,15783 16522,15808 16518,15841 16500,15871 16481,15893 16445,15926 16441,15966 16452,15999 16463,16024 16481,16043 16500,16050 16525,16061 16554,16061 16580,16043 16609,16024 16639,15981 16642,15904 16653,15753 16595,15636 16463,15574 16419,15552 16368,15537 16316,15537 16265,15534 16214,15545 16166,15563 16042,15607 15939,15721 15936,15893 15932,16010 15965,16109 16020,16193 16012,16230 16001,16259 15994,16288 15987,16325 15972,16372 15961,16402 Z M 15961,16402 L 15961,16402 Z M 16503,16820 C 16529,16948 16511,17051 16467,17128 16437,17179 16397,17216 16349,17241 16302,17267 16251,17278 16196,17278 16119,17278 16064,17249 16027,17208 16009,17186 15994,17161 15987,17131 15980,17106 15980,17077 15987,17047 16005,16974 16064,16908 16174,16875 16254,16853 16346,16838 16437,16827 L 16503,16817 16503,16820 Z"/>
           <path fill="none" stroke="rgb(117,198,217)" stroke-width="8" stroke-linejoin="miter" d="M 9261,17098 C 9254,17066 9250,17014 9247,16978 9228,16798 9228,16493 9236,16182 9250,15761 9283,15317 9327,15112 9342,15046 9309,14998 9265,14969 9243,14958 9221,14951 9195,14947 9170,14943 9144,14947 9122,14958 9082,14972 9056,15005 9056,15057 9009,15269 8972,15578 8954,15882 8924,16306 8921,16732 8939,16901 L 8943,16923 C 8950,17000 8957,17055 8990,17102 9049,17186 9254,17201 9349,17197 9697,17194 9957,16981 10115,16684 10213,16497 10276,16281 10298,16057 10316,15834 10298,15607 10235,15402 10115,15002 9836,14691 9378,14691 9074,14691 8844,14786 8686,14921 8595,15005 8525,15104 8492,15207 8457,15313 8449,15420 8478,15519 8511,15633 8584,15732 8705,15801 8749,15827 8785,15830 8811,15819 8825,15812 8840,15801 8847,15786 8855,15775 8858,15757 8858,15743 8855,15713 8836,15677 8796,15651 8774,15636 8749,15625 8719,15614 8661,15592 8591,15567 8565,15475 8547,15402 8554,15320 8580,15240 8609,15152 8668,15068 8752,14994 8891,14870 9100,14782 9378,14786 9638,14786 9789,14980 9876,15218 9939,15398 9972,15614 9972,15838 9975,16061 9942,16292 9887,16493 9796,16817 9638,17066 9422,17098 9371,17102 9316,17106 9261,17098 Z"/>
           <path fill="none" stroke="rgb(117,198,217)" stroke-width="8" stroke-linejoin="miter" d="M 10720,16592 C 10896,16523 11020,16354 11086,16186 11115,16109 11130,16028 11134,15959 11134,15882 11123,15816 11090,15768 11060,15721 11016,15691 10958,15688 10782,15673 10643,15786 10550,15955 10495,16050 10462,16164 10444,16281 10426,16398 10422,16519 10444,16632 10484,16860 10605,17055 10826,17113 10972,17153 11108,17098 11221,16978 11339,16857 11434,16665 11511,16435 11536,16361 11441,16336 11423,16402 11350,16621 11258,16802 11152,16912 11071,17000 10980,17044 10881,17029 10804,17011 10756,16897 10734,16743 10727,16695 10720,16647 10720,16592 Z"/>
           <path fill="none" stroke="rgb(117,198,217)" stroke-width="8" stroke-linejoin="miter" d="M 10954,15783 C 10980,15786 10998,15797 11013,15819 11031,15852 11038,15900 11038,15955 11035,16017 11020,16083 10994,16153 10943,16288 10852,16420 10720,16490 10720,16442 10723,16398 10727,16354 10742,16222 10767,16090 10804,15984 10844,15867 10899,15783 10954,15783 Z"/>
           <path fill="none" stroke="rgb(117,198,217)" stroke-width="8" stroke-linejoin="miter" d="M 11701,16208 C 11782,16109 11954,15823 12086,15534 12155,15376 12210,15214 12236,15082 12258,14936 12243,14819 12155,14760 12137,14749 12119,14742 12100,14734 11928,14691 11771,14866 11654,15145 11569,15342 11500,15592 11460,15849 11423,16101 11408,16361 11434,16577 11467,16886 11580,17109 11796,17124 11921,17139 12027,17018 12111,16864 12188,16721 12251,16548 12287,16431 12309,16369 12221,16336 12199,16402 12163,16512 12104,16680 12027,16817 11958,16945 11877,17044 11796,17029 11738,17014 11705,16860 11694,16643 11687,16515 11690,16365 11701,16208 Z"/>
           <path fill="none" stroke="rgb(117,198,217)" stroke-width="8" stroke-linejoin="miter" d="M 12104,14841 C 12152,14874 12159,14958 12141,15068 12119,15189 12064,15342 11998,15493 11910,15691 11800,15885 11720,16017 L 11731,15896 C 11767,15633 11818,15373 11884,15170 11947,14969 12016,14833 12082,14830 L 12104,14841 Z"/>
           <path fill="none" stroke="rgb(117,198,217)" stroke-width="8" stroke-linejoin="miter" d="M 12573,17000 C 12562,17011 12551,17007 12547,16996 12529,16959 12511,16886 12500,16791 12485,16640 12485,16446 12507,16252 12514,16160 12529,16072 12543,15988 12554,15933 12514,15885 12459,15860 12437,15849 12412,15841 12386,15838 12360,15834 12335,15838 12313,15841 12269,15856 12236,15889 12236,15944 12210,16127 12199,16292 12199,16431 12199,16636 12225,16798 12272,16912 12320,17033 12397,17102 12492,17117 12503,17120 12514,17120 12525,17120 12551,17120 12562,17117 12584,17106 12664,17062 12738,16945 12800,16813 12862,16669 12917,16515 12943,16435 12965,16369 12873,16339 12851,16402 12825,16479 12774,16632 12712,16773 12668,16871 12617,16959 12573,17000 Z"/>
           <path fill="none" stroke="rgb(117,198,217)" stroke-width="8" stroke-linejoin="miter" d="M 12470,15457 C 12525,15398 12580,15346 12609,15317 12646,15280 12642,15207 12617,15148 12606,15130 12598,15115 12587,15104 12573,15086 12554,15071 12536,15068 12503,15060 12470,15068 12445,15104 12401,15167 12357,15232 12324,15295 12276,15376 12240,15453 12221,15501 12210,15526 12210,15548 12214,15563 12221,15581 12229,15592 12243,15600 12254,15607 12265,15611 12280,15611 12298,15611 12320,15600 12335,15585 L 12470,15457 Z"/>
           <path fill="none" stroke="rgb(117,198,217)" stroke-width="8" stroke-linejoin="miter" d="M 13371,15783 C 13393,15786 13415,15790 13430,15797 13474,15812 13507,15845 13525,15889 13529,15896 13532,15904 13532,15911 13558,15992 13510,16046 13470,16090 13455,16109 13444,16120 13437,16134 13404,16182 13404,16230 13415,16263 13422,16284 13433,16299 13452,16310 13470,16321 13492,16321 13518,16314 13547,16299 13580,16266 13609,16189 13627,16145 13638,16098 13642,16046 13646,15992 13642,15937 13624,15885 L 13613,15849 C 13584,15786 13536,15735 13466,15706 13441,15699 13408,15691 13375,15688 13203,15673 13060,15786 12968,15955 12917,16050 12880,16164 12862,16281 12844,16398 12844,16519 12862,16632 12902,16860 13023,17055 13243,17113 13393,17153 13536,17098 13660,16974 13785,16853 13891,16662 13968,16431 13986,16376 13895,16343 13876,16402 13803,16618 13708,16795 13595,16908 13503,16996 13404,17044 13298,17025 13221,17011 13173,16897 13151,16743 13133,16625 13133,16490 13144,16354 13159,16222 13184,16090 13221,15984 13265,15867 13316,15783 13371,15783 Z"/>
           <path fill="none" stroke="rgb(117,198,217)" stroke-width="8" stroke-linejoin="miter" d="M 14250,17000 C 14239,17011 14228,17007 14224,16996 14206,16959 14188,16886 14177,16791 14162,16640 14162,16446 14184,16252 14191,16160 14206,16072 14221,15988 14232,15933 14191,15885 14136,15860 14115,15849 14089,15841 14063,15838 14038,15834 14012,15838 13990,15841 13946,15856 13913,15889 13913,15944 13887,16127 13876,16292 13876,16431 13876,16636 13902,16798 13950,16912 13997,17033 14074,17102 14169,17117 14180,17120 14191,17120 14202,17120 14228,17120 14239,17117 14261,17106 14342,17062 14415,16945 14477,16813 14539,16669 14594,16515 14620,16435 14642,16369 14550,16339 14528,16402 14503,16479 14451,16632 14389,16773 14345,16871 14294,16959 14250,17000 Z"/>
           <path fill="none" stroke="rgb(117,198,217)" stroke-width="8" stroke-linejoin="miter" d="M 14085,15402 C 14067,15391 14052,15384 14034,15384 14012,15380 13990,15384 13975,15391 13953,15398 13939,15409 13928,15431 13895,15493 13972,15596 14030,15677 14045,15695 14056,15713 14067,15724 L 14100,15772 14136,15728 14199,15662 C 14272,15585 14345,15508 14309,15442 14294,15417 14276,15402 14250,15395 14232,15387 14213,15387 14195,15391 14180,15395 14162,15402 14147,15409 L 14122,15428 C 14111,15417 14100,15409 14085,15402 Z"/>
           <path fill="none" stroke="rgb(117,198,217)" stroke-width="8" stroke-linejoin="miter" d="M 15613,16996 C 15551,17033 15533,16963 15525,16890 15518,16798 15518,16676 15525,16541 15540,16281 15577,15981 15639,15794 15657,15728 15624,15669 15573,15636 15558,15625 15536,15614 15518,15607 15496,15600 15478,15600 15456,15600 15408,15603 15368,15629 15357,15680 L 15346,15721 15317,15838 C 15313,15834 15313,15830 15313,15827 15291,15768 15262,15721 15221,15691 15192,15669 15163,15662 15130,15658 14873,15629 14693,15823 14598,16079 14554,16200 14528,16336 14521,16468 14514,16596 14528,16725 14565,16831 14620,17007 14733,17124 14909,17109 15057,17098 15174,16849 15247,16610 15269,16864 15350,17047 15507,17098 15511,17098 15511,17098 15514,17102 L 15522,17102 C 15624,17128 15723,17055 15807,16934 15906,16802 15994,16603 16053,16427 16078,16347 15987,16317 15961,16402 15903,16570 15822,16754 15730,16879 15690,16934 15650,16974 15613,16996 Z"/>
           <path fill="none" stroke="rgb(117,198,217)" stroke-width="8" stroke-linejoin="miter" d="M 15101,15775 C 15141,15753 15167,15764 15189,15794 15199,15808 15210,15834 15221,15860 15247,15933 15258,16035 15262,16142 15258,16164 15254,16182 15254,16204 15221,16369 15082,17000 14902,17014 14869,17018 14843,16974 14825,16901 14803,16806 14799,16662 14814,16512 14825,16361 14858,16204 14906,16068 14958,15926 15024,15812 15101,15775 Z"/>
           <path fill="none" stroke="rgb(117,198,217)" stroke-width="8" stroke-linejoin="miter" d="M 15961,16402 C 15939,16479 16034,16493 16053,16431 L 16089,16314 16093,16299 C 16144,16361 16203,16420 16261,16479 16349,16559 16430,16640 16474,16725 L 16423,16732 C 16327,16743 16236,16758 16148,16784 15998,16827 15917,16923 15892,17025 15884,17069 15884,17113 15895,17153 15906,17197 15925,17238 15954,17271 16009,17329 16089,17369 16192,17373 16265,17373 16327,17358 16390,17329 16522,17278 16620,17194 16690,17102 16774,16989 16807,16857 16800,16743 16935,16691 17045,16603 17104,16431 17126,16369 17038,16339 17012,16402 16968,16526 16884,16599 16782,16647 16730,16486 16591,16354 16456,16230 16353,16134 16254,16043 16214,15951 16199,15915 16188,15874 16185,15838 16174,15746 16203,15629 16313,15633 16353,15633 16390,15644 16423,15658 16452,15673 16481,15695 16503,15724 16518,15753 16522,15783 16522,15808 16518,15841 16500,15871 16481,15893 16445,15926 16441,15966 16452,15999 16463,16024 16481,16043 16500,16050 16525,16061 16554,16061 16580,16043 16609,16024 16639,15981 16642,15904 16653,15753 16595,15636 16463,15574 16419,15552 16368,15537 16316,15537 16265,15534 16214,15545 16166,15563 16042,15607 15939,15721 15936,15893 15932,16010 15965,16109 16020,16193 16012,16230 16001,16259 15994,16288 15987,16325 15972,16372 15961,16402 Z"/>
           <path fill="none" stroke="rgb(117,198,217)" stroke-width="8" stroke-linejoin="miter" d="M 16503,16820 C 16529,16948 16511,17051 16467,17128 16437,17179 16397,17216 16349,17241 16302,17267 16251,17278 16196,17278 16119,17278 16064,17249 16027,17208 16009,17186 15994,17161 15987,17131 15980,17106 15980,17077 15987,17047 16005,16974 16064,16908 16174,16875 16254,16853 16346,16838 16437,16827 L 16503,16817 16503,16820 Z"/>
          </g>
         </g>
        </g>
        <g class="Group">
         <g class="com.sun.star.drawing.ClosedBezierShape">
          <g id="id11">
           <rect class="BoundingBox" stroke="none" fill="none" x="5233" y="8835" width="2201" height="3320"/>
           <path fill="rgb(117,198,217)" stroke="none" d="M 7346,9080 C 7322,9112 7291,9162 7229,9161 7175,9160 7130,9121 7132,9054 7134,8949 7299,8901 7346,9080 Z M 7346,9080 L 7346,9080 Z M 6676,10531 C 6685,10649 6629,10917 6604,11021 6565,11189 6514,11347 6460,11485 6405,11626 6325,11783 6218,11893 6122,11991 5887,12147 5726,12096 5792,12041 5896,12043 6091,11780 6269,11540 6624,10698 6623,10514 6648,10493 6671,10465 6676,10531 Z M 6676,10531 L 6676,10531 Z M 6583,10455 C 6591,10600 6331,11219 6274,11349 6186,11551 5890,12087 5638,12052 5656,12014 5764,11909 5794,11871 5835,11818 5891,11735 5926,11677 6146,11312 6387,10830 6555,10434 6601,10429 6573,10412 6583,10455 Z M 6583,10455 L 6583,10455 Z M 6499,10416 C 6501,10483 6144,11176 6096,11271 6013,11436 5724,11977 5530,12044 5484,11793 5985,11036 6171,10757 6256,10631 6355,10473 6449,10362 6495,10362 6499,10362 6499,10416 Z M 6499,10416 L 6499,10416 Z M 6393,10352 C 6240,10524 5752,11306 5644,11530 5589,11645 5491,11833 5475,11973 5318,11698 5648,11203 5744,11063 5837,10927 5924,10815 6028,10688 6120,10574 6246,10422 6356,10331 L 6397,10316 C 6389,10332 6398,10331 6393,10352 Z M 6393,10352 L 6393,10352 Z M 6305,10305 C 6199,10434 6093,10525 5994,10648 5734,10974 5338,11455 5391,11914 5184,11556 5305,11261 5537,10968 5695,10769 5845,10606 6053,10435 6112,10386 6206,10322 6252,10277 6288,10276 6303,10264 6305,10305 Z M 6305,10305 L 6305,10305 Z M 6177,10277 C 5989,10366 5552,10855 5418,11051 4920,11779 5531,12391 6083,12063 6395,11878 6534,11482 6621,11148 6657,11013 6726,10742 6724,10600 6744,10574 6734,10580 6776,10569 L 6770,10559 C 6724,10097 7186,9491 7405,9110 7470,8997 7412,8853 7293,8837 7138,8818 7084,8971 7041,9045 L 6729,9596 C 6615,9788 6184,10248 6177,10277 Z"/>
          </g>
         </g>
         <g class="com.sun.star.drawing.ClosedBezierShape">
          <g id="id12">
           <rect class="BoundingBox" stroke="none" fill="none" x="4567" y="8504" width="6330" height="6141"/>
           <path fill="rgb(231,91,120)" stroke="none" d="M 9991,13029 C 9744,13028 9496,13008 9248,12974 8981,12937 8714,12884 8449,12824 8553,12631 8647,12435 8736,12238 8945,11763 9117,11279 9283,10799 9368,10559 9449,10320 9535,10084 9578,9967 9622,9850 9668,9735 L 9672,9727 C 9699,9720 9727,9712 9754,9703 9885,9661 10012,9604 10128,9531 10245,9459 10352,9372 10447,9275 10471,9251 10493,9226 10516,9201 L 10549,9164 C 10560,9151 10571,9137 10582,9123 10626,9068 10666,9006 10694,8931 10708,8894 10719,8854 10722,8809 10723,8786 10722,8762 10718,8738 10714,8714 10706,8689 10694,8665 10683,8641 10667,8619 10649,8600 10631,8581 10611,8566 10590,8554 10548,8529 10505,8517 10464,8510 10423,8504 10385,8504 10346,8504 10308,8506 10269,8512 10231,8521 10193,8529 10157,8542 10122,8557 10103,8564 10087,8573 10070,8581 10053,8590 10037,8599 10021,8609 9957,8647 9900,8693 9847,8740 9794,8788 9746,8839 9701,8892 9610,8997 9533,9109 9465,9223 9417,9306 9374,9391 9334,9477 L 9333,9477 C 9214,9477 9096,9467 8978,9450 L 8934,9444 8890,9436 C 8860,9431 8831,9426 8802,9419 8773,9413 8743,9408 8713,9399 L 8625,9375 C 8388,9312 8148,9248 7898,9191 7649,9137 7390,9086 7110,9089 7075,9090 7040,9092 7004,9095 6969,9098 6933,9102 6897,9109 6825,9122 6753,9144 6684,9176 6615,9209 6551,9253 6497,9306 6470,9332 6445,9360 6423,9389 6401,9419 6380,9449 6362,9480 6324,9543 6296,9614 6281,9687 6264,9761 6261,9837 6270,9913 6280,9988 6304,10063 6339,10131 6376,10199 6423,10262 6480,10313 6595,10418 6740,10481 6886,10512 7034,10543 7182,10543 7329,10535 L 7341,10534 C 7368,10532 7396,10525 7421,10512 7525,10461 7567,10335 7516,10231 7464,10127 7339,10085 7234,10136 7134,10186 7027,10213 6921,10215 6817,10216 6714,10190 6632,10131 6551,10073 6493,9984 6477,9883 6468,9833 6470,9781 6481,9730 6492,9680 6512,9631 6539,9585 6568,9538 6603,9497 6641,9463 6681,9430 6725,9405 6773,9388 6821,9371 6873,9363 6928,9361 6982,9359 7038,9362 7095,9371 7208,9387 7324,9419 7441,9455 7558,9490 7676,9531 7796,9569 8037,9646 8286,9718 8546,9757 8579,9761 8611,9766 8644,9770 8677,9773 8710,9777 8744,9781 8777,9786 8810,9789 8844,9792 L 8894,9796 8945,9799 C 9028,9804 9111,9804 9194,9800 9176,9845 9158,9890 9140,9935 9046,10174 8958,10414 8871,10652 8696,11128 8524,11601 8323,12056 8224,12281 8118,12501 8001,12714 7926,12694 7852,12675 7776,12654 7532,12589 7287,12521 7041,12457 6793,12393 6543,12332 6286,12287 6157,12265 6026,12248 5892,12240 5759,12232 5622,12232 5482,12252 5344,12272 5201,12312 5070,12388 4939,12462 4826,12573 4747,12698 4738,12714 4728,12729 4719,12745 4709,12761 4701,12777 4693,12793 4684,12810 4677,12826 4669,12842 4661,12859 4654,12876 4647,12893 4618,12962 4598,13034 4584,13107 4559,13253 4563,13401 4589,13543 4616,13686 4667,13823 4737,13950 4807,14077 4898,14193 5006,14292 5115,14391 5240,14472 5375,14530 5511,14588 5655,14624 5800,14637 5836,14641 5872,14643 5909,14644 5944,14644 5978,14644 6012,14643 6081,14642 6151,14637 6220,14630 6357,14615 6494,14587 6628,14548 6896,14468 7146,14335 7366,14169 7586,14004 7776,13808 7944,13598 8083,13427 8204,13245 8315,13060 8611,13126 8911,13183 9216,13221 9473,13252 9732,13271 9993,13268 10913,13257 11451,13035 9991,13029 Z M 9991,13029 L 9991,13029 Z M 9956,9071 C 9984,9019 10014,8970 10047,8924 10080,8879 10116,8837 10157,8803 10197,8769 10241,8743 10288,8727 10311,8719 10335,8715 10360,8712 10385,8709 10411,8710 10432,8713 10454,8716 10473,8722 10485,8730 10491,8734 10496,8738 10500,8742 10504,8746 10507,8750 10510,8755 10519,8773 10519,8814 10500,8859 10483,8903 10453,8949 10418,8992 10409,9003 10400,9013 10390,9024 L 10360,9058 C 10339,9079 10318,9101 10296,9121 10210,9202 10113,9270 10009,9323 9958,9350 9904,9372 9849,9392 9834,9397 9819,9402 9803,9407 L 9808,9396 C 9855,9284 9902,9174 9956,9071 Z M 9956,9071 L 9956,9071 Z M 7603,13331 C 7457,13520 7294,13693 7111,13837 6928,13980 6725,14092 6508,14164 6399,14200 6287,14224 6173,14240 6114,14248 6057,14253 5998,14256 5970,14258 5940,14259 5912,14259 5885,14259 5858,14258 5830,14256 5722,14250 5617,14227 5517,14188 5418,14149 5326,14094 5244,14024 5081,13885 4960,13689 4912,13477 4887,13371 4880,13261 4893,13156 4900,13103 4913,13052 4930,13003 4934,12991 4939,12979 4944,12966 4950,12953 4956,12941 4962,12929 4968,12917 4974,12905 4981,12894 4987,12882 4994,12871 5001,12860 5029,12815 5061,12774 5098,12738 5134,12702 5175,12671 5219,12644 5308,12591 5414,12559 5525,12542 5637,12525 5756,12523 5875,12529 5995,12535 6117,12549 6239,12569 6483,12608 6727,12665 6972,12725 7217,12786 7462,12850 7709,12914 7760,12927 7811,12939 7863,12952 7782,13083 7696,13210 7603,13331 Z"/>
          </g>
         </g>
         <g class="Group">
          <g class="com.sun.star.drawing.ClosedBezierShape">
           <g id="id13">
            <rect class="BoundingBox" stroke="none" fill="none" x="9977" y="9151" width="4376" height="5089"/>
            <path fill="rgb(117,198,217)" stroke="none" d="M 14322,13513 C 14226,13504 14109,13533 14001,13529 13892,13525 13777,13493 13668,13486 13612,13482 13548,13479 13505,13439 13522,13421 13540,13403 13557,13384 13716,13212 13853,13017 13960,12802 14013,12696 14059,12583 14093,12468 14127,12356 14154,12241 14174,12124 14215,11890 14222,11649 14195,11411 14167,11173 14103,10938 14007,10719 13911,10499 13783,10292 13629,10110 13475,9928 13296,9767 13099,9635 13049,9601 12999,9571 12947,9541 12901,9515 12854,9490 12807,9467 12830,9410 12855,9352 12880,9295 L 12880,9295 C 12899,9251 12886,9199 12846,9170 12800,9138 12735,9148 12702,9193 12661,9251 12621,9310 12583,9370 12542,9355 12501,9340 12460,9326 12234,9255 11996,9217 11759,9219 11699,9220 11642,9223 11584,9227 11526,9232 11468,9238 11410,9246 11294,9263 11179,9288 11066,9324 10953,9361 10843,9407 10740,9465 10636,9524 10539,9594 10451,9676 10364,9757 10287,9849 10222,9948 10157,10047 10105,10154 10064,10265 10023,10376 9994,10492 9982,10613 9971,10733 9977,10859 10011,10981 10028,11042 10053,11102 10086,11159 10119,11215 10160,11268 10209,11314 10306,11406 10434,11464 10560,11489 10623,11501 10687,11508 10752,11507 10817,11506 10882,11498 10945,11484 11074,11455 11192,11398 11297,11327 11402,11256 11494,11170 11576,11077 11618,11030 11656,10981 11691,10931 11728,10880 11761,10827 11793,10773 L 11795,10769 C 11802,10757 11808,10744 11813,10730 11848,10622 11790,10506 11682,10470 11574,10434 11457,10493 11422,10601 11361,10783 11252,10955 11110,11079 11038,11140 10958,11189 10873,11217 10787,11247 10694,11255 10602,11243 10512,11231 10429,11199 10362,11143 10329,11114 10300,11081 10275,11044 10252,11006 10233,10964 10218,10919 10189,10830 10182,10731 10189,10632 10197,10533 10222,10433 10256,10335 10292,10239 10339,10148 10395,10063 10452,9978 10519,9902 10596,9835 10748,9702 10935,9610 11135,9561 11234,9536 11337,9521 11440,9513 11492,9509 11544,9508 11596,9507 11648,9507 11701,9509 11751,9512 11954,9526 12155,9575 12345,9651 12365,9659 12384,9667 12403,9675 12383,9710 12364,9745 12345,9781 12239,9983 12142,10190 12051,10398 11870,10815 11712,11237 11556,11656 11399,12076 11245,12494 11076,12902 11049,12964 11023,13026 10996,13087 10907,13074 10817,13062 10726,13053 10669,13047 10613,13043 10555,13041 10497,13039 10438,13038 10374,13046 10342,13050 10309,13055 10271,13070 10252,13077 10232,13087 10211,13102 10190,13117 10169,13141 10155,13170 10142,13199 10138,13231 10140,13256 10141,13283 10147,13304 10153,13323 10166,13361 10184,13390 10201,13418 10237,13472 10275,13517 10314,13559 L 10373,13623 10435,13683 C 10495,13741 10558,13795 10626,13845 10580,13925 10534,14003 10484,14081 L 10484,14082 C 10458,14123 10464,14178 10501,14212 10543,14250 10607,14248 10646,14207 10712,14134 10775,14059 10834,13982 10892,14015 10950,14045 11011,14071 11226,14166 11460,14217 11695,14224 11930,14232 12165,14196 12388,14128 12499,14093 12609,14051 12714,14002 12820,13953 12922,13896 13020,13833 13119,13771 13229,13667 13320,13592 13325,13588 13329,13584 13334,13580 13448,13591 13563,13600 13677,13608 13788,13615 13829,13617 13940,13621 14052,13625 14227,13641 14342,13605 14370,13596 14327,13611 14309,13578 14295,13552 14373,13518 14322,13513 Z M 14322,13513 L 14322,13513 Z M 11938,11800 C 12098,11379 12247,10956 12398,10536 12486,10292 12574,10050 12668,9810 12740,9853 12810,9900 12877,9950 13040,10071 13188,10212 13317,10369 13381,10449 13439,10531 13492,10617 13546,10702 13594,10791 13634,10883 13717,11067 13770,11262 13800,11461 13828,11661 13825,11864 13800,12066 13786,12168 13767,12268 13740,12368 13734,12393 13727,12416 13720,12441 13712,12464 13705,12488 13697,12512 13680,12559 13661,12606 13641,12652 13559,12837 13447,13012 13315,13171 13245,13251 13172,13328 13094,13400 12851,13373 12608,13341 12366,13305 12148,13273 11931,13238 11714,13202 11595,13182 11475,13162 11355,13142 11371,13112 11386,13083 11401,13052 11605,12642 11776,12221 11938,11800 Z M 11938,11800 L 11938,11800 Z M 10570,13539 C 10494,13468 10415,13389 10364,13312 10352,13293 10342,13274 10337,13260 10336,13257 10335,13255 10335,13253 10337,13252 10339,13251 10341,13250 10355,13245 10376,13240 10398,13238 10444,13232 10496,13232 10548,13234 10600,13236 10653,13240 10707,13245 10776,13252 10845,13260 10915,13270 10854,13403 10791,13535 10723,13665 10670,13626 10619,13584 10570,13539 Z M 10570,13539 L 10570,13539 Z M 12857,13591 C 12772,13651 12683,13706 12591,13754 12499,13802 12404,13845 12307,13879 12111,13948 11905,13988 11699,13988 11595,13990 11492,13980 11391,13961 11290,13941 11191,13913 11095,13874 11048,13855 11003,13834 10958,13812 10994,13760 11030,13706 11063,13653 11134,13544 11199,13434 11260,13321 11618,13378 11977,13440 12338,13493 12521,13521 12704,13546 12888,13568 12878,13576 12868,13584 12857,13591 Z"/>
           </g>
          </g>
          <g class="com.sun.star.drawing.OpenBezierShape">
           <g id="id14">
            <rect class="BoundingBox" stroke="none" fill="none" x="13194" y="12731" width="2320" height="934"/>
            <path fill="none" stroke="rgb(117,198,217)" stroke-width="200" stroke-linejoin="round" d="M 13294,13499 C 13628,13450 14872,13933 15413,12831"/>
           </g>
          </g>
         </g>
         <g class="com.sun.star.drawing.OpenBezierShape">
          <g id="id15">
           <rect class="BoundingBox" stroke="none" fill="none" x="13194" y="13394" width="1218" height="269"/>
           <path fill="none" stroke="rgb(117,198,217)" stroke-width="200" stroke-linejoin="round" d="M 13294,13497 C 13466,13473 13878,13588 14311,13556"/>
          </g>
         </g>
         <g class="com.sun.star.drawing.ClosedBezierShape">
          <g id="id16">
           <rect class="BoundingBox" stroke="none" fill="none" x="14916" y="10660" width="2130" height="2756"/>
           <path fill="rgb(231,91,120)" stroke="none" d="M 15022,13310 L 15004,13330 15013,13304 15122,12973 C 15201,12966 15269,13011 15293,13090 L 15022,13310 Z M 15022,13310 L 15022,13310 Z M 15150,12881 C 15170,12791 15273,12505 15310,12385 L 15631,11397 C 15686,11221 15984,11355 16174,11275 L 16225,11339 C 16145,11404 15962,11450 16039,11508 16117,11567 16349,11269 16319,11474 L 16298,11623 C 16292,11663 16285,11677 16318,11697 16397,11742 16386,11520 16407,11459 L 16479,11485 C 16496,11597 16535,11684 16573,11789 16629,11942 16652,11968 16560,12045 16425,12155 16296,12261 16163,12370 16045,12468 15476,12950 15365,13028 L 15345,13006 C 15306,12957 15281,12926 15212,12902 15196,12896 15192,12897 15178,12892 L 15150,12881 Z M 15150,12881 L 15150,12881 Z M 16955,11246 C 16844,11284 16734,11317 16621,11353 16533,11382 16529,11454 16358,11338 16188,11223 16252,11189 16247,11100 16240,10983 16230,10866 16226,10747 L 16376,10855 C 16358,10933 16286,11138 16330,11164 16409,11185 16415,11029 16431,10972 16501,10721 16451,10697 16686,10857 16878,10988 16889,10978 16764,11068 16733,11091 16699,11116 16667,11140 16549,11226 16498,11232 16528,11305 16593,11316 16739,11182 16801,11143 16831,11152 16939,11228 16955,11246 Z M 16955,11246 L 16955,11246 Z M 14917,13316 L 14926,13368 C 14940,13378 14947,13387 14958,13395 14972,13403 14982,13405 14999,13414 L 15046,13405 16244,12409 C 16769,11970 16773,12089 16587,11588 16552,11497 16555,11460 16650,11429 16725,11405 16802,11382 16878,11357 16979,11324 17009,11337 17045,11254 L 17036,11206 C 17001,11177 16997,11166 16958,11140 16931,11122 16905,11106 16882,11088 16901,11058 16972,10976 16886,10898 L 16568,10683 C 16462,10638 16412,10742 16398,10760 L 16232,10660 16184,10669 C 16122,10734 16145,10765 16152,10872 16157,10952 16165,11030 16169,11109 16174,11215 16120,11216 16023,11218 15586,11229 15609,11216 15522,11477 15477,11612 14940,13276 14917,13316 Z"/>
          </g>
         </g>
         <g class="com.sun.star.drawing.ClosedBezierShape">
          <g id="id17">
           <rect class="BoundingBox" stroke="none" fill="none" x="15013" y="11275" width="1611" height="2037"/>
           <path fill="rgb(255,255,255)" stroke="none" d="M 15014,13305 L 15022,13311 15293,13091 C 15269,13012 15202,12967 15123,12974 L 15014,13305 Z M 15014,13305 L 15014,13305 Z M 15677,11753 C 15649,11692 15707,11660 15746,11711 15776,11749 15787,11775 15823,11815 15937,11940 16011,11910 16031,11943 16066,12000 15991,12008 15952,11996 15853,11968 15720,11851 15677,11753 Z M 15677,11753 L 15677,11753 Z M 15775,11609 C 15749,11550 15805,11516 15845,11567 15874,11604 15885,11631 15921,11670 16035,11794 16109,11765 16129,11799 16168,11863 16082,11891 15941,11796 15892,11762 15807,11679 15775,11609 Z M 15775,11609 L 15775,11609 Z M 15150,12882 L 15178,12893 C 15192,12897 15197,12897 15213,12903 15282,12927 15306,12958 15346,13007 L 15366,13029 C 15476,12951 16046,12468 16164,12370 16297,12261 16426,12155 16560,12045 16653,11969 16629,11943 16574,11790 16535,11684 16498,11597 16480,11485 L 16408,11459 C 16387,11520 16398,11742 16319,11697 16286,11677 16293,11663 16299,11623 L 16321,11474 C 16351,11270 16117,11567 16039,11508 15962,11450 16146,11404 16226,11339 L 16175,11275 C 15985,11355 15687,11222 15631,11397 L 15310,12385 C 15273,12505 15171,12791 15150,12882 Z"/>
          </g>
         </g>
         <g class="com.sun.star.drawing.ClosedBezierShape">
          <g id="id18">
           <rect class="BoundingBox" stroke="none" fill="none" x="15668" y="11686" width="374" height="317"/>
           <path fill="rgb(231,91,120)" stroke="none" d="M 15822,11815 C 15786,11775 15775,11749 15744,11711 15705,11661 15648,11692 15675,11753 15718,11851 15852,11969 15952,11997 15991,12008 16066,12001 16031,11944 16011,11910 15936,11940 15822,11815 Z"/>
          </g>
         </g>
         <g class="com.sun.star.drawing.ClosedBezierShape">
          <g id="id19">
           <rect class="BoundingBox" stroke="none" fill="none" x="15767" y="11542" width="372" height="318"/>
           <path fill="rgb(231,91,120)" stroke="none" d="M 15919,11670 C 15883,11631 15872,11603 15843,11566 15803,11516 15748,11550 15773,11608 15805,11680 15890,11762 15940,11797 16081,11892 16167,11863 16128,11799 16108,11765 16035,11795 15919,11670 Z"/>
          </g>
         </g>
         <g class="com.sun.star.drawing.ClosedBezierShape">
          <g id="id20">
           <rect class="BoundingBox" stroke="none" fill="none" x="14927" y="13367" width="74" height="60"/>
           <path fill="rgb(117,198,217)" stroke="none" d="M 14937,13426 L 15000,13414 C 14984,13405 14973,13403 14959,13394 14947,13386 14940,13376 14927,13367 L 14937,13426 Z"/>
          </g>
         </g>
         <g class="com.sun.star.drawing.PolyPolygonShape">
          <g id="id21">
           <rect class="BoundingBox" stroke="none" fill="none" x="15003" y="13303" width="21" height="29"/>
           <path fill="rgb(121,121,121)" stroke="none" d="M 15023,13310 L 15014,13304 15004,13331 15023,13310 Z"/>
          </g>
         </g>
         <g class="com.sun.star.drawing.ClosedBezierShape">
          <g id="id22">
           <rect class="BoundingBox" stroke="none" fill="none" x="6757" y="8222" width="1056" height="1596"/>
           <path fill="rgb(117,198,217)" stroke="none" d="M 7785,8498 C 7850,8385 7793,8241 7673,8225 7517,8206 7463,8359 7421,8433 7200,8774 6989,9092 6885,9322 6629,9887 6769,10025 7206,9436 7361,9226 7540,8910 7785,8498 Z"/>
          </g>
         </g>
        </g>
       </g>
       <g class="Group">
        <g class="com.sun.star.drawing.ClosedBezierShape">
         <g id="id23">
          <rect class="BoundingBox" stroke="none" fill="none" x="6831" y="18507" width="8390" height="1120"/>
          <path fill="rgb(231,91,120)" stroke="none" d="M 7104,18558 C 7143,18543 7130,18507 7099,18511 7015,18524 6947,18602 6903,18712 6869,18796 6846,18898 6838,19002 6831,19107 6836,19216 6859,19312 6891,19460 6963,19579 7078,19614 7114,19626 7119,19584 7093,19569 7033,19538 6994,19425 6976,19283 6961,19182 6960,19067 6968,18960 6976,18853 6994,18749 7021,18675 7044,18612 7071,18569 7104,18558 Z M 7104,18558 L 7104,18558 Z M 7526,18560 C 7510,18558 7497,18558 7479,18558 7394,18564 7333,18618 7295,18688 7281,18719 7270,18753 7265,18789 7260,18823 7260,18859 7268,18893 7279,18952 7308,19002 7359,19034 7295,19065 7252,19125 7227,19197 7214,19239 7206,19286 7208,19331 7210,19378 7219,19423 7239,19464 7281,19550 7364,19611 7497,19598 7602,19587 7675,19512 7709,19418 7724,19378 7730,19333 7730,19287 7729,19244 7719,19200 7701,19161 7677,19106 7635,19060 7576,19034 7622,19010 7656,18971 7677,18927 7695,18892 7704,18854 7708,18815 7711,18777 7708,18738 7695,18702 7670,18629 7615,18573 7526,18560 Z M 7526,18560 L 7526,18560 Z M 7456,19070 C 7490,19059 7521,19059 7553,19072 7605,19093 7641,19132 7664,19177 7678,19211 7686,19250 7688,19289 7688,19328 7682,19368 7669,19405 7641,19483 7581,19548 7492,19556 7422,19563 7377,19519 7352,19441 7343,19410 7338,19374 7336,19339 7334,19304 7338,19266 7346,19232 7360,19156 7398,19091 7456,19070 Z M 7456,19070 L 7456,19070 Z M 7490,18605 C 7502,18600 7508,18600 7521,18602 7591,18612 7636,18657 7656,18715 7665,18746 7669,18779 7665,18812 7664,18845 7654,18879 7639,18908 7620,18947 7589,18981 7549,19000 7518,19016 7502,19020 7469,19007 7430,18994 7406,18960 7391,18918 7380,18888 7375,18853 7377,18819 7377,18782 7383,18746 7394,18715 7414,18660 7446,18618 7490,18605 Z M 7490,18605 L 7490,18605 Z M 8016,18989 C 8053,18789 8126,18612 8206,18612 8215,18612 8225,18613 8233,18615 8266,18621 8292,18639 8310,18663 8314,18668 8318,18675 8321,18681 8334,18710 8323,18735 8311,18756 8306,18766 8301,18777 8298,18789 8293,18810 8300,18828 8310,18838 8314,18843 8321,18846 8327,18848 8334,18849 8340,18849 8347,18848 8360,18843 8373,18832 8376,18810 8379,18794 8381,18775 8381,18759 8381,18714 8368,18672 8344,18639 8319,18605 8285,18582 8241,18573 8230,18571 8219,18569 8206,18569 8060,18569 7954,18727 7904,18919 7886,18989 7875,19062 7872,19135 7870,19208 7875,19279 7889,19344 7922,19480 7995,19584 8118,19597 8125,19598 8133,19598 8139,19598 8269,19602 8357,19509 8397,19392 8412,19348 8420,19300 8422,19253 8423,19208 8417,19161 8405,19119 8374,19018 8301,18940 8185,18940 8097,18940 8042,18984 8008,19038 L 8016,18989 Z M 8016,18989 L 8016,18989 Z M 8142,19556 C 8050,19556 8018,19454 8005,19376 7996,19326 7992,19273 7993,19214 7993,19214 8009,18982 8185,18982 8279,18982 8339,19047 8365,19132 8376,19169 8381,19211 8379,19253 8378,19296 8371,19338 8357,19379 8323,19478 8250,19558 8142,19556 Z M 8142,19556 L 8142,19556 Z M 8501,19574 C 8462,19589 8475,19626 8506,19621 8590,19608 8659,19530 8702,19420 8736,19336 8759,19234 8767,19130 8775,19025 8769,18916 8746,18820 8714,18672 8642,18553 8527,18517 8491,18507 8487,18548 8512,18563 8573,18594 8611,18707 8629,18849 8644,18950 8646,19065 8637,19172 8629,19279 8611,19382 8584,19457 8561,19520 8534,19563 8501,19574 Z M 8501,19574 L 8501,19574 Z M 9559,19132 C 9556,19148 9553,19164 9551,19182 9514,19383 9441,19559 9361,19559 L 9343,19559 C 9311,19554 9283,19540 9264,19517 9235,19480 9244,19448 9254,19417 9259,19401 9264,19385 9264,19365 9265,19341 9259,19325 9248,19315 9236,19306 9220,19304 9205,19312 9194,19318 9184,19335 9181,19360 9179,19372 9179,19383 9179,19393 9179,19447 9194,19496 9222,19532 9249,19569 9290,19595 9340,19600 9346,19602 9353,19602 9361,19602 9507,19602 9613,19444 9663,19250 9681,19182 9692,19107 9694,19034 9697,18961 9690,18890 9676,18827 9647,18701 9583,18603 9478,18577 9450,18571 9424,18569 9397,18573 9283,18584 9205,18670 9170,18777 9155,18822 9145,18869 9145,18916 9144,18963 9149,19008 9162,19051 9192,19153 9265,19229 9382,19229 9470,19229 9523,19185 9559,19132 Z M 9559,19132 L 9559,19132 Z M 9400,18615 C 9423,18613 9447,18613 9468,18623 9517,18644 9546,18709 9562,18794 9570,18843 9574,18898 9574,18955 9574,18955 9557,19187 9382,19187 9286,19187 9228,19124 9202,19039 9191,19000 9186,18960 9188,18918 9188,18874 9196,18832 9209,18793 9241,18699 9306,18624 9400,18615 Z M 9400,18615 L 9400,18615 Z M 10127,18560 C 10111,18558 10098,18558 10080,18558 9996,18564 9934,18618 9897,18688 9882,18719 9871,18753 9866,18789 9861,18823 9861,18859 9869,18893 9880,18952 9910,19002 9960,19034 9897,19065 9853,19125 9828,19197 9815,19239 9807,19286 9809,19331 9811,19378 9820,19423 9840,19464 9882,19550 9965,19611 10098,19598 10203,19587 10276,19512 10310,19418 10325,19378 10331,19333 10331,19287 10330,19244 10320,19200 10302,19161 10278,19106 10236,19060 10177,19034 10223,19010 10257,18971 10278,18927 10296,18892 10305,18854 10309,18815 10312,18777 10309,18738 10296,18702 10271,18629 10216,18573 10127,18560 Z M 10127,18560 L 10127,18560 Z M 10057,19070 C 10091,19059 10122,19059 10155,19072 10206,19093 10242,19132 10265,19177 10279,19211 10288,19250 10289,19289 10289,19328 10283,19368 10270,19405 10242,19483 10182,19548 10093,19556 10023,19563 9978,19519 9953,19441 9944,19410 9939,19374 9937,19339 9936,19304 9939,19266 9947,19232 9961,19156 9999,19091 10057,19070 Z M 10057,19070 L 10057,19070 Z M 10091,18605 C 10103,18600 10109,18600 10122,18602 10192,18612 10237,18657 10257,18715 10266,18746 10270,18779 10266,18812 10265,18845 10255,18879 10241,18908 10221,18947 10190,18981 10150,19000 10119,19016 10103,19020 10070,19007 10031,18994 10007,18960 9992,18918 9981,18888 9976,18853 9978,18819 9978,18782 9984,18746 9996,18715 10015,18660 10047,18618 10091,18605 Z M 10091,18605 L 10091,18605 Z M 10796,18560 C 10779,18558 10766,18558 10748,18558 10664,18564 10602,18618 10565,18688 10551,18719 10539,18753 10534,18789 10529,18823 10529,18859 10538,18893 10549,18952 10578,19002 10628,19034 10565,19065 10521,19125 10497,19197 10484,19239 10476,19286 10478,19331 10479,19378 10489,19423 10508,19464 10551,19550 10633,19611 10766,19598 10872,19587 10945,19512 10979,19418 10993,19378 11000,19333 11000,19287 10998,19244 10989,19200 10971,19161 10946,19106 10904,19060 10846,19034 10891,19010 10925,18971 10946,18927 10964,18892 10974,18854 10977,18815 10980,18777 10977,18738 10964,18702 10940,18629 10885,18573 10796,18560 Z M 10796,18560 L 10796,18560 Z M 10726,19070 C 10760,19059 10791,19059 10823,19072 10875,19093 10911,19132 10933,19177 10948,19211 10956,19250 10958,19289 10958,19328 10951,19368 10938,19405 10911,19483 10851,19548 10761,19556 10692,19563 10646,19519 10622,19441 10612,19410 10607,19374 10606,19339 10604,19304 10607,19266 10615,19232 10630,19156 10667,19091 10726,19070 Z M 10726,19070 L 10726,19070 Z M 10760,18605 C 10771,18600 10778,18600 10791,18602 10860,18612 10906,18657 10925,18715 10935,18746 10938,18779 10935,18812 10933,18845 10924,18879 10909,18908 10890,18947 10859,18981 10818,19000 10787,19016 10771,19020 10739,19007 10700,18994 10675,18960 10661,18918 10649,18888 10645,18853 10646,18819 10646,18782 10653,18746 10664,18715 10684,18660 10716,18618 10760,18605 Z M 10760,18605 L 10760,18605 Z M 11582,19488 C 11525,19455 11459,19439 11395,19436 11340,19433 11288,19439 11241,19449 11324,19363 11455,19206 11545,19049 11592,18966 11629,18883 11640,18810 11653,18732 11640,18663 11585,18618 11556,18594 11515,18577 11463,18568 11434,18563 11399,18564 11363,18574 11324,18584 11285,18605 11253,18634 11220,18665 11196,18707 11188,18761 11181,18802 11183,18851 11197,18905 11204,18929 11217,18942 11230,18947 11238,18950 11246,18950 11253,18947 11259,18945 11265,18940 11270,18934 11278,18921 11283,18901 11275,18879 11270,18866 11262,18854 11256,18843 11241,18822 11225,18796 11231,18758 11240,18719 11259,18688 11282,18665 11308,18641 11342,18623 11374,18615 11403,18607 11431,18605 11454,18610 11530,18631 11540,18702 11514,18797 11462,18989 11270,19263 11162,19421 11126,19473 11098,19512 11087,19533 11084,19540 11082,19546 11084,19554 11085,19558 11085,19563 11089,19566 11095,19577 11108,19585 11121,19580 11186,19558 11265,19541 11345,19545 11412,19546 11476,19559 11533,19592 11546,19600 11561,19592 11572,19574 L 11582,19558 C 11585,19551 11588,19545 11590,19538 11598,19520 11603,19499 11585,19490 11585,19490 11583,19488 11582,19488 Z M 11582,19488 L 11582,19488 Z M 12061,19553 C 12051,19491 12056,19339 12065,19174 12080,18960 12106,18722 12127,18623 12134,18594 12121,18573 12101,18560 12091,18555 12080,18551 12069,18550 12057,18548 12046,18550 12036,18555 12018,18563 12007,18576 12007,18599 L 11997,18649 C 11984,18706 11963,18772 11924,18828 11882,18879 11840,18880 11806,18880 11783,18882 11764,18885 11752,18908 11749,18914 11747,18922 11749,18930 11751,18939 11754,18945 11759,18952 11769,18961 11785,18968 11806,18961 11884,18940 11937,18890 11973,18830 11968,18882 11963,18935 11960,18987 11949,19148 11934,19345 11955,19507 11958,19529 11963,19546 11973,19561 11981,19571 11999,19587 12012,19595 12020,19598 12026,19602 12033,19602 12044,19602 12054,19595 12059,19584 12065,19571 12064,19566 12061,19553 Z M 12061,19553 L 12061,19553 Z M 12356,19054 C 12263,19054 12265,19135 12354,19135 L 12849,19135 C 12956,19135 12953,19054 12856,19054 L 12356,19054 Z M 12356,19054 L 12356,19054 Z M 13135,18999 C 13101,18999 13102,19041 13135,19041 L 13149,19039 C 13180,19039 13213,19039 13247,19038 13143,19261 13050,19493 13102,19564 13109,19574 13127,19590 13141,19598 13148,19602 13154,19605 13162,19605 13188,19603 13192,19580 13192,19563 13188,19491 13300,19253 13406,19034 13437,19034 13467,19033 13498,19031 13539,19029 13536,18987 13498,18989 L 13427,18992 C 13503,18829 13573,18681 13581,18623 13584,18600 13570,18582 13550,18573 13540,18568 13531,18564 13521,18563 13500,18561 13480,18563 13467,18568 13403,18582 13328,18590 13263,18590 L 13240,18590 C 13198,18587 13171,18560 13151,18539 13146,18535 13146,18534 13145,18532 13119,18507 13072,18514 13072,18551 13072,18566 13080,18584 13101,18599 13132,18618 13179,18629 13235,18633 L 13263,18633 C 13320,18633 13381,18626 13440,18616 13419,18675 13372,18772 13320,18885 13302,18921 13286,18958 13266,18995 L 13149,18999 13135,18999 Z M 13135,18999 L 13135,18999 Z M 13957,19553 C 13948,19491 13953,19339 13962,19174 13977,18960 14003,18722 14024,18623 14030,18594 14018,18573 13998,18560 13988,18555 13977,18551 13966,18550 13954,18548 13943,18550 13933,18555 13915,18563 13904,18576 13904,18599 L 13894,18649 C 13881,18706 13860,18772 13821,18828 13779,18879 13737,18880 13703,18880 13680,18882 13661,18885 13649,18908 13646,18914 13644,18922 13646,18930 13648,18939 13651,18945 13656,18952 13665,18961 13682,18968 13703,18961 13781,18940 13834,18890 13870,18830 13865,18882 13860,18935 13857,18987 13846,19148 13831,19345 13852,19507 13855,19529 13860,19546 13870,19561 13878,19571 13896,19587 13909,19595 13917,19598 13923,19602 13930,19602 13941,19602 13951,19595 13956,19584 13962,19571 13961,19566 13957,19553 Z M 13957,19553 L 13957,19553 Z M 14467,19553 C 14457,19491 14462,19339 14472,19174 14486,18960 14512,18722 14534,18623 14540,18594 14527,18573 14508,18560 14498,18555 14486,18551 14475,18550 14464,18548 14452,18550 14443,18555 14425,18563 14413,18576 14413,18599 L 14404,18649 C 14391,18706 14370,18772 14331,18828 14289,18879 14246,18880 14212,18880 14190,18882 14170,18885 14159,18908 14156,18914 14154,18922 14156,18930 14157,18939 14160,18945 14165,18952 14175,18961 14191,18968 14212,18961 14290,18940 14344,18890 14379,18830 14375,18882 14370,18935 14366,18987 14355,19148 14340,19345 14362,19507 14365,19529 14370,19546 14379,19561 14388,19571 14405,19587 14418,19595 14426,19598 14433,19602 14439,19602 14451,19602 14461,19595 14465,19584 14472,19571 14470,19566 14467,19553 Z M 14467,19553 L 14467,19553 Z M 15080,19132 C 15077,19148 15074,19164 15072,19182 15035,19383 14962,19559 14882,19559 L 14865,19559 C 14832,19554 14805,19540 14785,19517 14756,19480 14766,19448 14775,19417 14780,19401 14785,19385 14785,19365 14787,19341 14780,19325 14769,19315 14758,19306 14741,19304 14727,19312 14715,19318 14706,19335 14702,19360 14701,19372 14701,19383 14701,19393 14701,19447 14715,19496 14743,19532 14771,19569 14811,19595 14861,19600 14868,19602 14874,19602 14882,19602 15028,19602 15134,19444 15184,19250 15202,19182 15213,19107 15215,19034 15218,18961 15212,18890 15197,18827 15168,18701 15105,18603 14999,18577 14972,18571 14946,18569 14918,18573 14805,18584 14727,18670 14691,18777 14676,18822 14667,18869 14667,18916 14665,18963 14670,19008 14683,19051 14714,19153 14787,19229 14904,19229 14991,19229 15045,19185 15080,19132 Z M 15080,19132 L 15080,19132 Z M 14921,18615 C 14944,18613 14968,18613 14990,18623 15038,18644 15067,18709 15084,18794 15092,18843 15095,18898 15095,18955 15095,18955 15079,19187 14904,19187 14808,19187 14749,19124 14723,19039 14712,19000 14707,18960 14709,18918 14709,18874 14717,18832 14730,18793 14762,18699 14827,18624 14921,18615 Z"/>
          <path fill="none" stroke="rgb(231,91,120)" stroke-width="8" stroke-linejoin="miter" d="M 7104,18558 C 7143,18543 7130,18507 7099,18511 7015,18524 6947,18602 6903,18712 6869,18796 6846,18898 6838,19002 6831,19107 6836,19216 6859,19312 6891,19460 6963,19579 7078,19614 7114,19626 7119,19584 7093,19569 7033,19538 6994,19425 6976,19283 6961,19182 6960,19067 6968,18960 6976,18853 6994,18749 7021,18675 7044,18612 7071,18569 7104,18558 Z"/>
          <path fill="none" stroke="rgb(231,91,120)" stroke-width="8" stroke-linejoin="miter" d="M 7526,18560 C 7510,18558 7497,18558 7479,18558 7394,18564 7333,18618 7295,18688 7281,18719 7270,18753 7265,18789 7260,18823 7260,18859 7268,18893 7279,18952 7308,19002 7359,19034 7295,19065 7252,19125 7227,19197 7214,19239 7206,19286 7208,19331 7210,19378 7219,19423 7239,19464 7281,19550 7364,19611 7497,19598 7602,19587 7675,19512 7709,19418 7724,19378 7730,19333 7730,19287 7729,19244 7719,19200 7701,19161 7677,19106 7635,19060 7576,19034 7622,19010 7656,18971 7677,18927 7695,18892 7704,18854 7708,18815 7711,18777 7708,18738 7695,18702 7670,18629 7615,18573 7526,18560 Z"/>
          <path fill="none" stroke="rgb(231,91,120)" stroke-width="8" stroke-linejoin="miter" d="M 7456,19070 C 7490,19059 7521,19059 7553,19072 7605,19093 7641,19132 7664,19177 7678,19211 7686,19250 7688,19289 7688,19328 7682,19368 7669,19405 7641,19483 7581,19548 7492,19556 7422,19563 7377,19519 7352,19441 7343,19410 7338,19374 7336,19339 7334,19304 7338,19266 7346,19232 7360,19156 7398,19091 7456,19070 Z"/>
          <path fill="none" stroke="rgb(231,91,120)" stroke-width="8" stroke-linejoin="miter" d="M 7490,18605 C 7502,18600 7508,18600 7521,18602 7591,18612 7636,18657 7656,18715 7665,18746 7669,18779 7665,18812 7664,18845 7654,18879 7639,18908 7620,18947 7589,18981 7549,19000 7518,19016 7502,19020 7469,19007 7430,18994 7406,18960 7391,18918 7380,18888 7375,18853 7377,18819 7377,18782 7383,18746 7394,18715 7414,18660 7446,18618 7490,18605 Z"/>
          <path fill="none" stroke="rgb(231,91,120)" stroke-width="8" stroke-linejoin="miter" d="M 8016,18989 C 8053,18789 8126,18612 8206,18612 8215,18612 8225,18613 8233,18615 8266,18621 8292,18639 8310,18663 8314,18668 8318,18675 8321,18681 8334,18710 8323,18735 8311,18756 8306,18766 8301,18777 8298,18789 8293,18810 8300,18828 8310,18838 8314,18843 8321,18846 8327,18848 8334,18849 8340,18849 8347,18848 8360,18843 8373,18832 8376,18810 8379,18794 8381,18775 8381,18759 8381,18714 8368,18672 8344,18639 8319,18605 8285,18582 8241,18573 8230,18571 8219,18569 8206,18569 8060,18569 7954,18727 7904,18919 7886,18989 7875,19062 7872,19135 7870,19208 7875,19279 7889,19344 7922,19480 7995,19584 8118,19597 8125,19598 8133,19598 8139,19598 8269,19602 8357,19509 8397,19392 8412,19348 8420,19300 8422,19253 8423,19208 8417,19161 8405,19119 8374,19018 8301,18940 8185,18940 8097,18940 8042,18984 8008,19038 L 8016,18989 Z"/>
          <path fill="none" stroke="rgb(231,91,120)" stroke-width="8" stroke-linejoin="miter" d="M 8142,19556 C 8050,19556 8018,19454 8005,19376 7996,19326 7992,19273 7993,19214 7993,19214 8009,18982 8185,18982 8279,18982 8339,19047 8365,19132 8376,19169 8381,19211 8379,19253 8378,19296 8371,19338 8357,19379 8323,19478 8250,19558 8142,19556 Z"/>
          <path fill="none" stroke="rgb(231,91,120)" stroke-width="8" stroke-linejoin="miter" d="M 8501,19574 C 8462,19589 8475,19626 8506,19621 8590,19608 8659,19530 8702,19420 8736,19336 8759,19234 8767,19130 8775,19025 8769,18916 8746,18820 8714,18672 8642,18553 8527,18517 8491,18507 8487,18548 8512,18563 8573,18594 8611,18707 8629,18849 8644,18950 8646,19065 8637,19172 8629,19279 8611,19382 8584,19457 8561,19520 8534,19563 8501,19574 Z"/>
          <path fill="none" stroke="rgb(231,91,120)" stroke-width="8" stroke-linejoin="miter" d="M 9559,19132 C 9556,19148 9553,19164 9551,19182 9514,19383 9441,19559 9361,19559 L 9343,19559 C 9311,19554 9283,19540 9264,19517 9235,19480 9244,19448 9254,19417 9259,19401 9264,19385 9264,19365 9265,19341 9259,19325 9248,19315 9236,19306 9220,19304 9205,19312 9194,19318 9184,19335 9181,19360 9179,19372 9179,19383 9179,19393 9179,19447 9194,19496 9222,19532 9249,19569 9290,19595 9340,19600 9346,19602 9353,19602 9361,19602 9507,19602 9613,19444 9663,19250 9681,19182 9692,19107 9694,19034 9697,18961 9690,18890 9676,18827 9647,18701 9583,18603 9478,18577 9450,18571 9424,18569 9397,18573 9283,18584 9205,18670 9170,18777 9155,18822 9145,18869 9145,18916 9144,18963 9149,19008 9162,19051 9192,19153 9265,19229 9382,19229 9470,19229 9523,19185 9559,19132 Z"/>
          <path fill="none" stroke="rgb(231,91,120)" stroke-width="8" stroke-linejoin="miter" d="M 9400,18615 C 9423,18613 9447,18613 9468,18623 9517,18644 9546,18709 9562,18794 9570,18843 9574,18898 9574,18955 9574,18955 9557,19187 9382,19187 9286,19187 9228,19124 9202,19039 9191,19000 9186,18960 9188,18918 9188,18874 9196,18832 9209,18793 9241,18699 9306,18624 9400,18615 Z"/>
          <path fill="none" stroke="rgb(231,91,120)" stroke-width="8" stroke-linejoin="miter" d="M 10127,18560 C 10111,18558 10098,18558 10080,18558 9996,18564 9934,18618 9897,18688 9882,18719 9871,18753 9866,18789 9861,18823 9861,18859 9869,18893 9880,18952 9910,19002 9960,19034 9897,19065 9853,19125 9828,19197 9815,19239 9807,19286 9809,19331 9811,19378 9820,19423 9840,19464 9882,19550 9965,19611 10098,19598 10203,19587 10276,19512 10310,19418 10325,19378 10331,19333 10331,19287 10330,19244 10320,19200 10302,19161 10278,19106 10236,19060 10177,19034 10223,19010 10257,18971 10278,18927 10296,18892 10305,18854 10309,18815 10312,18777 10309,18738 10296,18702 10271,18629 10216,18573 10127,18560 Z"/>
          <path fill="none" stroke="rgb(231,91,120)" stroke-width="8" stroke-linejoin="miter" d="M 10057,19070 C 10091,19059 10122,19059 10155,19072 10206,19093 10242,19132 10265,19177 10279,19211 10288,19250 10289,19289 10289,19328 10283,19368 10270,19405 10242,19483 10182,19548 10093,19556 10023,19563 9978,19519 9953,19441 9944,19410 9939,19374 9937,19339 9936,19304 9939,19266 9947,19232 9961,19156 9999,19091 10057,19070 Z"/>
          <path fill="none" stroke="rgb(231,91,120)" stroke-width="8" stroke-linejoin="miter" d="M 10091,18605 C 10103,18600 10109,18600 10122,18602 10192,18612 10237,18657 10257,18715 10266,18746 10270,18779 10266,18812 10265,18845 10255,18879 10241,18908 10221,18947 10190,18981 10150,19000 10119,19016 10103,19020 10070,19007 10031,18994 10007,18960 9992,18918 9981,18888 9976,18853 9978,18819 9978,18782 9984,18746 9996,18715 10015,18660 10047,18618 10091,18605 Z"/>
          <path fill="none" stroke="rgb(231,91,120)" stroke-width="8" stroke-linejoin="miter" d="M 10796,18560 C 10779,18558 10766,18558 10748,18558 10664,18564 10602,18618 10565,18688 10551,18719 10539,18753 10534,18789 10529,18823 10529,18859 10538,18893 10549,18952 10578,19002 10628,19034 10565,19065 10521,19125 10497,19197 10484,19239 10476,19286 10478,19331 10479,19378 10489,19423 10508,19464 10551,19550 10633,19611 10766,19598 10872,19587 10945,19512 10979,19418 10993,19378 11000,19333 11000,19287 10998,19244 10989,19200 10971,19161 10946,19106 10904,19060 10846,19034 10891,19010 10925,18971 10946,18927 10964,18892 10974,18854 10977,18815 10980,18777 10977,18738 10964,18702 10940,18629 10885,18573 10796,18560 Z"/>
          <path fill="none" stroke="rgb(231,91,120)" stroke-width="8" stroke-linejoin="miter" d="M 10726,19070 C 10760,19059 10791,19059 10823,19072 10875,19093 10911,19132 10933,19177 10948,19211 10956,19250 10958,19289 10958,19328 10951,19368 10938,19405 10911,19483 10851,19548 10761,19556 10692,19563 10646,19519 10622,19441 10612,19410 10607,19374 10606,19339 10604,19304 10607,19266 10615,19232 10630,19156 10667,19091 10726,19070 Z"/>
          <path fill="none" stroke="rgb(231,91,120)" stroke-width="8" stroke-linejoin="miter" d="M 10760,18605 C 10771,18600 10778,18600 10791,18602 10860,18612 10906,18657 10925,18715 10935,18746 10938,18779 10935,18812 10933,18845 10924,18879 10909,18908 10890,18947 10859,18981 10818,19000 10787,19016 10771,19020 10739,19007 10700,18994 10675,18960 10661,18918 10649,18888 10645,18853 10646,18819 10646,18782 10653,18746 10664,18715 10684,18660 10716,18618 10760,18605 Z"/>
          <path fill="none" stroke="rgb(231,91,120)" stroke-width="8" stroke-linejoin="miter" d="M 11582,19488 C 11525,19455 11459,19439 11395,19436 11340,19433 11288,19439 11241,19449 11324,19363 11455,19206 11545,19049 11592,18966 11629,18883 11640,18810 11653,18732 11640,18663 11585,18618 11556,18594 11515,18577 11463,18568 11434,18563 11399,18564 11363,18574 11324,18584 11285,18605 11253,18634 11220,18665 11196,18707 11188,18761 11181,18802 11183,18851 11197,18905 11204,18929 11217,18942 11230,18947 11238,18950 11246,18950 11253,18947 11259,18945 11265,18940 11270,18934 11278,18921 11283,18901 11275,18879 11270,18866 11262,18854 11256,18843 11241,18822 11225,18796 11231,18758 11240,18719 11259,18688 11282,18665 11308,18641 11342,18623 11374,18615 11403,18607 11431,18605 11454,18610 11530,18631 11540,18702 11514,18797 11462,18989 11270,19263 11162,19421 11126,19473 11098,19512 11087,19533 11084,19540 11082,19546 11084,19554 11085,19558 11085,19563 11089,19566 11095,19577 11108,19585 11121,19580 11186,19558 11265,19541 11345,19545 11412,19546 11476,19559 11533,19592 11546,19600 11561,19592 11572,19574 L 11582,19558 C 11585,19551 11588,19545 11590,19538 11598,19520 11603,19499 11585,19490 11585,19490 11583,19488 11582,19488 Z"/>
          <path fill="none" stroke="rgb(231,91,120)" stroke-width="8" stroke-linejoin="miter" d="M 12061,19553 C 12051,19491 12056,19339 12065,19174 12080,18960 12106,18722 12127,18623 12134,18594 12121,18573 12101,18560 12091,18555 12080,18551 12069,18550 12057,18548 12046,18550 12036,18555 12018,18563 12007,18576 12007,18599 L 11997,18649 C 11984,18706 11963,18772 11924,18828 11882,18879 11840,18880 11806,18880 11783,18882 11764,18885 11752,18908 11749,18914 11747,18922 11749,18930 11751,18939 11754,18945 11759,18952 11769,18961 11785,18968 11806,18961 11884,18940 11937,18890 11973,18830 11968,18882 11963,18935 11960,18987 11949,19148 11934,19345 11955,19507 11958,19529 11963,19546 11973,19561 11981,19571 11999,19587 12012,19595 12020,19598 12026,19602 12033,19602 12044,19602 12054,19595 12059,19584 12065,19571 12064,19566 12061,19553 Z"/>
          <path fill="none" stroke="rgb(231,91,120)" stroke-width="8" stroke-linejoin="miter" d="M 12356,19054 C 12263,19054 12265,19135 12354,19135 L 12849,19135 C 12956,19135 12953,19054 12856,19054 L 12356,19054 Z"/>
          <path fill="none" stroke="rgb(231,91,120)" stroke-width="8" stroke-linejoin="miter" d="M 13135,18999 C 13101,18999 13102,19041 13135,19041 L 13149,19039 C 13180,19039 13213,19039 13247,19038 13143,19261 13050,19493 13102,19564 13109,19574 13127,19590 13141,19598 13148,19602 13154,19605 13162,19605 13188,19603 13192,19580 13192,19563 13188,19491 13300,19253 13406,19034 13437,19034 13467,19033 13498,19031 13539,19029 13536,18987 13498,18989 L 13427,18992 C 13503,18829 13573,18681 13581,18623 13584,18600 13570,18582 13550,18573 13540,18568 13531,18564 13521,18563 13500,18561 13480,18563 13467,18568 13403,18582 13328,18590 13263,18590 L 13240,18590 C 13198,18587 13171,18560 13151,18539 13146,18535 13146,18534 13145,18532 13119,18507 13072,18514 13072,18551 13072,18566 13080,18584 13101,18599 13132,18618 13179,18629 13235,18633 L 13263,18633 C 13320,18633 13381,18626 13440,18616 13419,18675 13372,18772 13320,18885 13302,18921 13286,18958 13266,18995 L 13149,18999 13135,18999 Z"/>
          <path fill="none" stroke="rgb(231,91,120)" stroke-width="8" stroke-linejoin="miter" d="M 13957,19553 C 13948,19491 13953,19339 13962,19174 13977,18960 14003,18722 14024,18623 14030,18594 14018,18573 13998,18560 13988,18555 13977,18551 13966,18550 13954,18548 13943,18550 13933,18555 13915,18563 13904,18576 13904,18599 L 13894,18649 C 13881,18706 13860,18772 13821,18828 13779,18879 13737,18880 13703,18880 13680,18882 13661,18885 13649,18908 13646,18914 13644,18922 13646,18930 13648,18939 13651,18945 13656,18952 13665,18961 13682,18968 13703,18961 13781,18940 13834,18890 13870,18830 13865,18882 13860,18935 13857,18987 13846,19148 13831,19345 13852,19507 13855,19529 13860,19546 13870,19561 13878,19571 13896,19587 13909,19595 13917,19598 13923,19602 13930,19602 13941,19602 13951,19595 13956,19584 13962,19571 13961,19566 13957,19553 Z"/>
          <path fill="none" stroke="rgb(231,91,120)" stroke-width="8" stroke-linejoin="miter" d="M 14467,19553 C 14457,19491 14462,19339 14472,19174 14486,18960 14512,18722 14534,18623 14540,18594 14527,18573 14508,18560 14498,18555 14486,18551 14475,18550 14464,18548 14452,18550 14443,18555 14425,18563 14413,18576 14413,18599 L 14404,18649 C 14391,18706 14370,18772 14331,18828 14289,18879 14246,18880 14212,18880 14190,18882 14170,18885 14159,18908 14156,18914 14154,18922 14156,18930 14157,18939 14160,18945 14165,18952 14175,18961 14191,18968 14212,18961 14290,18940 14344,18890 14379,18830 14375,18882 14370,18935 14366,18987 14355,19148 14340,19345 14362,19507 14365,19529 14370,19546 14379,19561 14388,19571 14405,19587 14418,19595 14426,19598 14433,19602 14439,19602 14451,19602 14461,19595 14465,19584 14472,19571 14470,19566 14467,19553 Z"/>
          <path fill="none" stroke="rgb(231,91,120)" stroke-width="8" stroke-linejoin="miter" d="M 15080,19132 C 15077,19148 15074,19164 15072,19182 15035,19383 14962,19559 14882,19559 L 14865,19559 C 14832,19554 14805,19540 14785,19517 14756,19480 14766,19448 14775,19417 14780,19401 14785,19385 14785,19365 14787,19341 14780,19325 14769,19315 14758,19306 14741,19304 14727,19312 14715,19318 14706,19335 14702,19360 14701,19372 14701,19383 14701,19393 14701,19447 14715,19496 14743,19532 14771,19569 14811,19595 14861,19600 14868,19602 14874,19602 14882,19602 15028,19602 15134,19444 15184,19250 15202,19182 15213,19107 15215,19034 15218,18961 15212,18890 15197,18827 15168,18701 15105,18603 14999,18577 14972,18571 14946,18569 14918,18573 14805,18584 14727,18670 14691,18777 14676,18822 14667,18869 14667,18916 14665,18963 14670,19008 14683,19051 14714,19153 14787,19229 14904,19229 14991,19229 15045,19185 15080,19132 Z"/>
          <path fill="none" stroke="rgb(231,91,120)" stroke-width="8" stroke-linejoin="miter" d="M 14921,18615 C 14944,18613 14968,18613 14990,18623 15038,18644 15067,18709 15084,18794 15092,18843 15095,18898 15095,18955 15095,18955 15079,19187 14904,19187 14808,19187 14749,19124 14723,19039 14712,19000 14707,18960 14709,18918 14709,18874 14717,18832 14730,18793 14762,18699 14827,18624 14921,18615 Z"/>
         </g>
        </g>
        <g class="Group">
         <g class="com.sun.star.drawing.ClosedBezierShape">
          <g id="id24">
           <rect class="BoundingBox" stroke="none" fill="none" x="5468" y="18405" width="1243" height="1243"/>
           <path fill="rgb(88,197,191)" stroke="none" d="M 6592,19382 L 6593,19383 6592,19382 Z M 6592,19382 L 6592,19382 Z M 6598,19381 L 6595,19381 6597,19379 6598,19381 Z M 6598,19381 L 6598,19381 Z M 5838,18692 C 5850,18690 5872,18691 5885,18691 5900,18691 5908,18700 5914,18711 5923,18729 5960,18823 5972,18850 5977,18863 5983,18872 5977,18888 5969,18907 5950,18931 5936,18945 5930,18951 5917,18962 5919,18977 5922,18988 5950,19028 5957,19037 6007,19104 6068,19156 6146,19191 6183,19207 6190,19216 6211,19191 L 6256,19137 C 6262,19129 6269,19115 6280,19113 6300,19109 6395,19159 6418,19170 6461,19191 6467,19189 6465,19222 6464,19247 6456,19281 6444,19298 6422,19329 6370,19362 6318,19370 6283,19376 6262,19373 6231,19364 6197,19355 6117,19326 6087,19311 6019,19277 5969,19239 5917,19187 5864,19133 5784,19033 5753,18959 5732,18907 5724,18853 5743,18795 5756,18758 5795,18697 5838,18692 Z M 5838,18692 L 5838,18692 Z M 5522,19580 C 5526,19587 5521,19593 5521,19600 5521,19609 5528,19607 5538,19607 L 5538,19611 C 5559,19608 5741,19542 5749,19546 5751,19547 5760,19553 5762,19554 5768,19558 5771,19560 5777,19563 5871,19618 5992,19653 6115,19646 6230,19640 6318,19610 6404,19561 6446,19537 6476,19512 6511,19482 L 6545,19448 C 6562,19427 6582,19405 6598,19381 6628,19341 6658,19278 6675,19228 6696,19169 6708,19102 6709,19032 6711,18878 6653,18725 6553,18614 6548,18608 6546,18604 6540,18599 6502,18564 6505,18563 6463,18531 6277,18387 6011,18366 5798,18477 5770,18491 5733,18515 5710,18533 5603,18618 5528,18724 5490,18861 5442,19036 5474,19223 5571,19369 5587,19393 5587,19385 5580,19408 L 5537,19536 C 5532,19549 5525,19567 5522,19580 Z"/>
          </g>
         </g>
         <g class="com.sun.star.drawing.ClosedBezierShape">
          <g id="id25">
           <rect class="BoundingBox" stroke="none" fill="none" x="5324" y="18287" width="1506" height="1518"/>
           <path fill="rgb(246,246,246)" stroke="none" d="M 6598,19380 C 6582,19404 6563,19426 6545,19447 L 6511,19482 C 6476,19512 6445,19537 6403,19561 6318,19610 6231,19639 6115,19646 5992,19653 5872,19617 5778,19563 5772,19559 5769,19558 5764,19554 5762,19553 5752,19546 5750,19545 5742,19542 5559,19607 5539,19610 5535,19611 5534,19611 5532,19612 5528,19615 5523,19616 5518,19616 5513,19618 5515,19618 5511,19619 5512,19611 5514,19607 5517,19600 5519,19592 5521,19587 5523,19579 5526,19567 5533,19549 5537,19536 L 5580,19406 C 5588,19384 5587,19392 5571,19368 5474,19223 5442,19036 5490,18861 5528,18724 5603,18618 5712,18533 5734,18515 5772,18491 5798,18477 6012,18364 6277,18386 6464,18530 6506,18563 6503,18564 6541,18599 6546,18604 6549,18608 6554,18614 6654,18724 6711,18878 6710,19032 6709,19102 6697,19169 6676,19228 6658,19278 6629,19340 6598,19380 Z M 6598,19380 L 6598,19380 Z M 5350,19026 C 5350,19127 5367,19201 5399,19292 5400,19294 5400,19295 5401,19297 5402,19299 5402,19300 5404,19303 5418,19335 5432,19368 5451,19399 5457,19409 5455,19408 5450,19422 5433,19469 5411,19539 5394,19588 5382,19627 5324,19792 5324,19804 L 5345,19797 C 5461,19759 5577,19724 5693,19686 5718,19678 5728,19671 5742,19679 L 5780,19698 C 5795,19704 5807,19710 5823,19716 5872,19735 5916,19745 5967,19755 5982,19758 6006,19762 6021,19762 6064,19763 6100,19768 6144,19763 6151,19762 6158,19763 6165,19761 L 6225,19753 C 6274,19743 6321,19731 6366,19711 6419,19688 6470,19663 6517,19629 L 6543,19610 C 6569,19590 6606,19558 6627,19533 L 6699,19444 C 6705,19435 6711,19426 6717,19416 6748,19367 6772,19314 6791,19259 6798,19236 6806,19211 6811,19187 6816,19162 6821,19135 6824,19108 6825,19101 6826,19094 6826,19088 6826,19078 6827,19075 6828,19066 L 6829,19021 C 6829,19012 6827,19010 6827,19000 6828,18927 6811,18854 6789,18787 6770,18731 6745,18681 6715,18630 6708,18620 6702,18612 6696,18602 L 6646,18538 C 6642,18533 6639,18530 6635,18526 6623,18514 6613,18501 6600,18490 6580,18473 6561,18453 6538,18438 6516,18422 6494,18406 6471,18392 6466,18388 6461,18386 6456,18383 L 6425,18367 C 6390,18350 6366,18341 6328,18326 6322,18323 6317,18322 6311,18320 6137,18268 5953,18278 5787,18351 L 5741,18373 C 5706,18390 5673,18413 5642,18436 L 5585,18484 C 5551,18514 5508,18563 5483,18602 5439,18668 5417,18713 5389,18786 5385,18798 5382,18809 5379,18821 5358,18885 5350,18957 5350,19026 Z"/>
          </g>
         </g>
         <g class="com.sun.star.drawing.ClosedBezierShape">
          <g id="id26">
           <rect class="BoundingBox" stroke="none" fill="none" x="5732" y="18691" width="734" height="684"/>
           <path fill="rgb(246,246,246)" stroke="none" d="M 5838,18692 C 5795,18697 5756,18757 5743,18794 5725,18852 5733,18907 5753,18959 5784,19033 5863,19133 5917,19187 5968,19240 6018,19278 6087,19312 6118,19327 6197,19355 6231,19364 6263,19373 6284,19376 6319,19370 6371,19362 6422,19329 6443,19299 6455,19282 6463,19248 6464,19222 6466,19188 6460,19191 6418,19170 6395,19159 6300,19108 6280,19112 6270,19115 6262,19128 6256,19137 L 6212,19190 C 6190,19217 6183,19208 6146,19191 6068,19156 6006,19104 5956,19037 5949,19027 5921,18988 5919,18976 5916,18962 5930,18951 5936,18945 5950,18931 5968,18907 5976,18888 5983,18872 5976,18862 5971,18848 5960,18822 5922,18728 5913,18711 5907,18700 5900,18691 5884,18691 5871,18691 5849,18691 5838,18692 Z"/>
          </g>
         </g>
         <g class="com.sun.star.drawing.ClosedBezierShape">
          <g id="id27">
           <rect class="BoundingBox" stroke="none" fill="none" x="5518" y="19609" width="18" height="9"/>
           <path fill="rgb(19,153,10)" stroke="none" d="M 5518,19616 C 5524,19617 5529,19615 5534,19610 5533,19609 5537,19609 5531,19609 L 5528,19610 C 5518,19617 5524,19609 5518,19616 Z"/>
          </g>
         </g>
        </g>
       </g>
      </g>
     </g>
    </g>
   </g>
  </g>
 </g>
</svg>